SplineFontDB: 3.0
FontName: Comme-Heavy
FullName: Comme Heavy
FamilyName: Comme
Weight: Heavy
Copyright: Digitized data Copyright (c) 2011-2014, vernon adams.
Version: 1
ItalicAngle: 0
UnderlinePosition: 0
UnderlineWidth: 0
Ascent: 1638
Descent: 410
UFOAscent: 1560
UFODescent: -556
LayerCount: 2
Layer: 0 0 "Back"  1
Layer: 1 0 "Fore"  0
OS2Version: 0
OS2_WeightWidthSlopeOnly: 0
OS2_UseTypoMetrics: 0
CreationTime: 1391035393
ModificationTime: 1391036829
PfmFamily: 0
TTFWeight: 100
TTFWidth: 5
LineGap: 0
VLineGap: 0
OS2TypoAscent: 2416
OS2TypoAOffset: 0
OS2TypoDescent: -512
OS2TypoDOffset: 0
OS2TypoLinegap: 0
OS2WinAscent: 2416
OS2WinAOffset: 0
OS2WinDescent: 512
OS2WinDOffset: 0
HheadAscent: 0
HheadAOffset: 1
HheadDescent: 0
HheadDOffset: 1
OS2Vendor: 'NeWT'
Lookup: 4 0 1 "ligaStandardLigatureslookup0"  {"ligaStandardLigatureslookup0 subtable"  } ['liga' ('latn' <'dflt' > 'grek' <'dflt' > 'DFLT' <'dflt' > ) ]
MarkAttachClasses: 1
DEI: 91125
LangName: 1033 "" "" "" "" "" "Version 2" "" "Comme is a trademark of Vernon Adams and may be registered in certain jurisdictions." "newtypography" "Vernon Adams" "" "newtypography.co.uk" "newtypography.co.uk" "Copyright (c) 2014, vernon adams.+AAoACgAA-This Font Software is licensed under the SIL Open Font License, Version 1.1.+AAoA-This license is available with a FAQ at:+AAoA-http://scripts.sil.org/OFL+AAoA" "http://scripts.sil.org/OFL" "" "Comme" "Heavy" 
PickledData: "(dp1
S'public.glyphOrder'
p2
(S'A'
S'Agrave'
S'Aacute'
S'Acircumflex'
S'Atilde'
S'Adieresis'
S'Aring'
S'Amacron'
S'Abreve'
S'Aogonek'
S'uni01CD'
S'uni0200'
S'uni0202'
S'uni0226'
S'B'
S'uni1E02'
S'C'
S'Ccedilla'
S'Cacute'
S'Ccircumflex'
S'Cdotaccent'
S'Ccaron'
S'D'
S'Dcaron'
S'uni1E0A'
S'E'
S'Egrave'
S'Eacute'
S'Ecircumflex'
S'Edieresis'
S'Emacron'
S'Ebreve'
S'Edotaccent'
S'Eogonek'
S'Ecaron'
S'uni0204'
S'uni0206'
S'uni0228'
S'uni1EBC'
S'F'
S'uni1E1E'
S'G'
S'Gcircumflex'
S'Gbreve'
S'Gdotaccent'
S'Gcommaaccent'
S'Gcaron'
S'uni01F4'
S'H'
S'Hcircumflex'
S'uni021E'

StartChar: A
Encoding: 65 65 0
Width: 1574
VWidth: 0
GlyphClass: 2
Flags: HW
PickledData: "(dp1
S'org.pippin.gimp.org.kernagic'
p2
(dp3
S'lstem'
p4
I0
sS'rstem'
p5
I0
ssS'com.typemytype.robofont.layerData'
p6
(dp7
sS'org.robofab.postScriptHintData'
p8
(dp9
s."
AnchorPoint: "bot" 796 0 basechar 0
AnchorPoint: "ogonek" 1326 0 basechar 0
AnchorPoint: "top" 798 1456 basechar 0
LayerCount: 2
Fore
SplineSet
665 594 m 1
 908 594 l 1
 790 1112 l 1
 665 594 l 1
511 1456 m 1
 1072 1456 l 1
 1524 0 l 1
 1084 0 l 1
 978 335 l 1
 588 335 l 1
 490 0 l 1
 50 0 l 1
 511 1456 l 1
EndSplineSet
EndChar

StartChar: AE
Encoding: 198 198 1
Width: 2177
VWidth: 0
GlyphClass: 2
Flags: HW
PickledData: "(dp1
S'org.pippin.gimp.org.kernagic'
p2
(dp3
S'lstem'
p4
I0
sS'rstem'
p5
I0
ssS'com.typemytype.robofont.layerData'
p6
(dp7
sS'org.robofab.postScriptHintData'
p8
(dp9
s."
LayerCount: 2
Fore
SplineSet
974 1456 m 1
 2009 1456 l 1
 1985 1187 l 1
 1344 1187 l 1
 1344 864 l 1
 1977 864 l 1
 1977 593 l 1
 1344 593 l 1
 1344 279 l 1
 2034 279 l 1
 2026 0 l 1
 1020 0 l 1
 1020 327 l 1
 664 327 l 1
 466 0 l 1
 43 0 l 1
 974 1456 l 1
1020 573 m 1
 1020 976 l 1
 778 573 l 1
 1020 573 l 1
EndSplineSet
EndChar

StartChar: B
Encoding: 66 66 13
Width: 1465
VWidth: 0
GlyphClass: 2
Flags: HW
PickledData: "(dp1
S'org.pippin.gimp.org.kernagic'
p2
(dp3
S'lstem'
p4
I0
sS'rstem'
p5
I0
ssS'com.typemytype.robofont.layerData'
p6
(dp7
sS'org.robofab.postScriptHintData'
p8
(dp9
s."
AnchorPoint: "top" 712 1456 basechar 0
LayerCount: 2
Fore
SplineSet
598 634 m 1
 598 282 l 1
 619 281 640 280 661 280 c 0
 850 280 960 292 960 471 c 0
 960 630 871 634 714 634 c 2
 598 634 l 1
598 1204 m 1
 598 882 l 1
 719 882 l 2
 835 882 895 932 895 1033 c 0
 895 1194 821 1204 656 1204 c 2
 598 1204 l 1
626 5 m 0
 496 5 340 10 162 23 c 1
 162 1460 l 1
 331 1465 487 1468 622 1468 c 0
 683 1468 747 1470 812 1470 c 0
 1083 1470 1360 1436 1360 1079 c 0
 1360 935 1252 832 1083 779 c 1
 1298 738 1395 646 1395 434 c 0
 1395 164 1269 5 626 5 c 0
EndSplineSet
EndChar

StartChar: C
Encoding: 67 67 14
Width: 1641
VWidth: 0
GlyphClass: 2
Flags: HW
PickledData: "(dp1
S'org.pippin.gimp.org.kernagic'
p2
(dp3
S'lstem'
p4
I0
sS'rstem'
p5
I0
ssS'com.typemytype.robofont.layerData'
p6
(dp7
sS'org.robofab.postScriptHintData'
p8
(dp9
s."
AnchorPoint: "bot" 882 -1 basechar 0
AnchorPoint: "top" 913 1456 basechar 0
LayerCount: 2
Fore
SplineSet
865 1476 m 0
 1370 1476 1497 1142 1528 1005 c 1
 1207 874 l 1
 1176 874 l 1
 1141 1000 1073 1186 883 1186 c 0
 877 1186 871 1185 865 1185 c 0
 669 1161 573 1074 573 734 c 0
 573 378 700 269 867 269 c 0
 1069 269 1140 448 1175 579 c 1
 1206 579 l 1
 1527 447 l 1
 1495 305 1389 -20 867 -20 c 0
 378 -20 105 249 105 734 c 0
 105 1203 377 1476 865 1476 c 0
EndSplineSet
EndChar

StartChar: D
Encoding: 68 68 21
Width: 1571
VWidth: 0
GlyphClass: 2
Flags: HW
PickledData: "(dp1
S'org.pippin.gimp.org.kernagic'
p2
(dp3
S'lstem'
p4
I0
sS'rstem'
p5
I0
ssS'com.typemytype.robofont.layerData'
p6
(dp7
sS'com.fontlab.hintData'
p8
(dp9
S'vhints'
p10
((dp11
S'position'
p12
I1280
sS'width'
p13
I122
stp14
sS'hhints'
p15
((dp16
g12
I0
sg13
I94
s(dp17
g12
I1355
sg13
I94
stp18
ssS'org.robofab.postScriptHintData'
p19
(dp20
s."
HStem: 0 94 1355 94
VStem: 1280 122
AnchorPoint: "mid" 405 741 basechar 0
AnchorPoint: "bot" 767 1 basechar 0
AnchorPoint: "top" 831 1456 basechar 0
LayerCount: 2
Fore
SplineSet
598 300 m 1
 606 300 l 2
 930 300 1047 467 1047 757 c 0
 1047 964 1018 1181 604 1181 c 2
 598 1181 l 1
 598 300 l 1
162 4 m 1
 162 1460 l 1
 281 1466 392 1470 493 1470 c 0
 1192 1470 1466 1306 1466 762 c 0
 1466 303 1247 -12 487 -12 c 0
 388 -12 280 -7 162 4 c 1
EndSplineSet
EndChar

StartChar: Delta
Encoding: 916 916 24
Width: 1334
VWidth: 0
GlyphClass: 2
Flags: HW
PickledData: "(dp1
S'org.pippin.gimp.org.kernagic'
p2
(dp3
S'lstem'
p4
I0
sS'rstem'
p5
I0
ssS'com.typemytype.robofont.layerData'
p6
(dp7
S'b'
(dp8
S'name'
p9
S'Delta'
p10
sS'lib'
p11
(dp12
sS'unicodes'
p13
(tsS'width'
p14
I1334
sS'contours'
p15
(tsS'components'
p16
(tsS'anchors'
p17
(tsssS'org.robofab.postScriptHintData'
p18
(dp19
s."
LayerCount: 2
Fore
SplineSet
10 0 m 1
 513 1540 l 1
 779 1540 l 1
 1279 0 l 1
 10 0 l 1
347 229 m 1
 950 229 l 1
 645 1234 l 1
 347 229 l 1
EndSplineSet
EndChar

StartChar: E
Encoding: 69 69 25
Width: 1376
VWidth: 0
GlyphClass: 2
Flags: HW
PickledData: "(dp1
S'org.pippin.gimp.org.kernagic'
p2
(dp3
S'lstem'
p4
I0
sS'rstem'
p5
I0
ssS'com.typemytype.robofont.layerData'
p6
(dp7
sS'org.robofab.postScriptHintData'
p8
(dp9
s."
AnchorPoint: "bot" 654 0 basechar 0
AnchorPoint: "ogonek" 1003 0 basechar 0
AnchorPoint: "top" 762 1456 basechar 0
LayerCount: 2
Fore
SplineSet
162 1456 m 1
 1229 1456 l 1
 1206 1173 l 1
 597 1173 l 1
 597 885 l 1
 1199 885 l 1
 1199 601 l 1
 597 601 l 1
 597 293 l 1
 1250 293 l 1
 1248 0 l 1
 162 0 l 1
 162 1456 l 1
EndSplineSet
EndChar

StartChar: Eng
Encoding: 330 330 34
Width: 1672
VWidth: 0
GlyphClass: 2
Flags: HW
PickledData: "(dp1
S'org.robofab.postScriptHintData'
p2
(dp3
s."
LayerCount: 2
Fore
SplineSet
1100 1456 m 1
 1100 973 l 1
 1118 607 l 1
 570 1456 l 1
 162 1456 l 1
 162 0 l 1
 582 0 l 1
 582 467 l 1
 565 799 l 1
 1100 -22 l 1
 1100 -257 1070 -277 882 -277 c 1
 915 -526 l 1
 1385 -504 1509 -370 1509 -72 c 2
 1509 1456 l 1
 1100 1456 l 1
EndSplineSet
EndChar

StartChar: Euro
Encoding: 8364 8364 37
Width: 1391
VWidth: 0
GlyphClass: 2
Flags: HW
PickledData: "(dp1
S'org.pippin.gimp.org.kernagic'
p2
(dp3
S'lstem'
p4
I0
sS'rstem'
p5
I0
ssS'com.typemytype.robofont.layerData'
p6
(dp7
S'b'
(dp8
S'name'
p9
S'Euro'
p10
sS'lib'
p11
(dp12
sS'unicodes'
p13
(tsS'width'
p14
I1391
sS'contours'
p15
(tsS'components'
p16
(tsS'anchors'
p17
(tsssS'org.robofab.postScriptHintData'
p18
(dp19
s."
LayerCount: 2
Fore
SplineSet
547 797 m 1
 800 797 l 1
 800 963 l 1
 568 963 l 1
 606 1113 704 1186 856 1186 c 0
 1046 1186 1114 1000 1149 874 c 1
 1180 874 l 1
 1501 1005 l 1
 1470 1142 1343 1476 838 1476 c 0
 436 1476 180 1291 103 963 c 1
 -72 963 l 1
 -72 797 l 1
 76 797 l 1
 76 690 l 1
 -72 690 l 1
 -72 526 l 1
 97 526 l 1
 167 173 426 -20 840 -20 c 0
 1362 -20 1468 305 1500 447 c 1
 1179 579 l 1
 1148 579 l 1
 1113 448 1042 269 840 269 c 0
 711 269 606 334 565 526 c 1
 800 526 l 1
 800 690 l 1
 547 690 l 1
 547 704 546 719 546 734 c 0
 546 756 546 777 547 797 c 1
EndSplineSet
EndChar

StartChar: F
Encoding: 70 70 38
Width: 1270
VWidth: 0
GlyphClass: 2
Flags: HW
PickledData: "(dp1
S'org.pippin.gimp.org.kernagic'
p2
(dp3
S'lstem'
p4
I0
sS'rstem'
p5
I705
ssS'com.typemytype.robofont.layerData'
p6
(dp7
sS'org.robofab.postScriptHintData'
p8
(dp9
s."
AnchorPoint: "top" 724 1456 basechar 0
LayerCount: 2
Fore
SplineSet
162 1456 m 1
 1185 1456 l 1
 1166 1159 l 1
 598 1159 l 1
 598 853 l 1
 1159 853 l 1
 1159 568 l 1
 598 568 l 1
 598 0 l 1
 162 0 l 1
 162 1456 l 1
EndSplineSet
EndChar

StartChar: G
Encoding: 71 71 39
Width: 1629
VWidth: 0
GlyphClass: 2
Flags: HW
PickledData: "(dp1
S'org.pippin.gimp.org.kernagic'
p2
(dp3
S'lstem'
p4
I0
sS'rstem'
p5
I0
ssS'com.typemytype.robofont.layerData'
p6
(dp7
sS'org.robofab.postScriptHintData'
p8
(dp9
s."
AnchorPoint: "bot" 746 -1 basechar 0
AnchorPoint: "top" 848 1456 basechar 0
LayerCount: 2
Fore
SplineSet
846 -20 m 0
 401 -20 105 228 105 724 c 0
 105 1211 391 1476 841 1476 c 0
 1223 1476 1409 1307 1486 1076 c 1
 1186 937 l 1
 1156 937 l 1
 1110 1058 1051 1185 884 1185 c 0
 676 1185 573 1067 573 724 c 0
 573 326 762 268 915 268 c 0
 1002 268 1074 283 1128 305 c 1
 1128 546 l 1
 830 566 l 1
 839 838 l 1
 1481 838 l 1
 1481 87 l 1
 1320 9 1106 -20 846 -20 c 0
EndSplineSet
EndChar

StartChar: H
Encoding: 72 72 45
Width: 1610
VWidth: 0
GlyphClass: 2
Flags: HW
PickledData: "(dp1
S'org.pippin.gimp.org.kernagic'
p2
(dp3
S'lstem'
p4
I0
sS'rstem'
p5
I0
ssS'com.typemytype.robofont.layerData'
p6
(dp7
sS'org.robofab.postScriptHintData'
p8
(dp9
s."
AnchorPoint: "top" 816 1456 basechar 0
LayerCount: 2
Fore
SplineSet
1012 605 m 1
 597 605 l 1
 597 -7 l 1
 161 -7 l 1
 161 1456 l 1
 597 1456 l 1
 597 885 l 1
 1012 885 l 1
 1012 1456 l 1
 1449 1456 l 1
 1449 -7 l 1
 1012 -7 l 1
 1012 605 l 1
EndSplineSet
EndChar

StartChar: Hbar
Encoding: 294 294 46
Width: 1620
VWidth: 0
GlyphClass: 2
Flags: HW
PickledData: "(dp1
S'org.pippin.gimp.org.kernagic'
p2
(dp3
S'lstem'
p4
I0
sS'rstem'
p5
I0
ssS'com.typemytype.robofont.layerData'
p6
(dp7
sS'org.robofab.postScriptHintData'
p8
(dp9
s."
LayerCount: 2
Fore
SplineSet
63 1292 m 1
 63 1069 l 1
 1555 1069 l 1
 1555 1292 l 1
 63 1292 l 1
EndSplineSet
Refer: 45 72 N 1 0 0 1 0 0 2
EndChar

StartChar: I
Encoding: 73 73 48
Width: 1075
VWidth: 0
GlyphClass: 2
Flags: HW
PickledData: "(dp1
S'org.pippin.gimp.org.kernagic'
p2
(dp3
S'lstem'
p4
I0
sS'rstem'
p5
I0
ssS'com.typemytype.robofont.layerData'
p6
(dp7
sS'com.fontlab.hintData'
p8
(dp9
S'vhints'
p10
((dp11
S'position'
p12
I111
sS'width'
p13
I529
stp14
sS'hhints'
p15
((dp16
g12
I0
sg13
I86
s(dp17
g12
I1363
sg13
I86
stp18
ssS'org.robofab.postScriptHintData'
p19
(dp20
s."
HStem: 0 86 1363 86
VStem: 111 529
AnchorPoint: "ogonek" 565 0 basechar 0
AnchorPoint: "top" 542 1456 basechar 0
LayerCount: 2
Fore
SplineSet
98 1456 m 1
 979 1456 l 1
 979 1226 l 1
 760 1226 l 1
 760 222 l 1
 979 222 l 1
 979 -7 l 1
 98 -7 l 1
 98 222 l 1
 325 222 l 1
 325 1226 l 1
 98 1226 l 1
 98 1456 l 1
EndSplineSet
EndChar

StartChar: J
Encoding: 74 74 59
Width: 823
VWidth: 0
GlyphClass: 2
Flags: HW
PickledData: "(dp1
S'org.pippin.gimp.org.kernagic'
p2
(dp3
S'lstem'
p4
I132
sS'rstem'
p5
I0
ssS'com.typemytype.robofont.layerData'
p6
(dp7
sS'org.robofab.postScriptHintData'
p8
(dp9
s."
AnchorPoint: "top" 453 1456 basechar 0
LayerCount: 2
Fore
SplineSet
231 1456 m 1
 666 1456 l 1
 666 343 l 2
 666 250 668 168 668 95 c 0
 668 -214 630 -366 233 -546 c 1
 42 -632 l 1
 -112 -296 l 1
 104 -188 l 2
 221 -129 231 -61 231 355 c 2
 231 1456 l 1
EndSplineSet
EndChar

StartChar: K
Encoding: 75 75 61
Width: 1492
VWidth: 0
GlyphClass: 2
Flags: HW
PickledData: "(dp1
S'org.pippin.gimp.org.kernagic'
p2
(dp3
S'lstem'
p4
I0
sS'rstem'
p5
I851
ssS'com.typemytype.robofont.layerData'
p6
(dp7
sS'org.robofab.postScriptHintData'
p8
(dp9
s."
AnchorPoint: "bot" 802 0 basechar 0
AnchorPoint: "top" 806 1456 basechar 0
LayerCount: 2
Fore
SplineSet
1428 1456 m 1
 1430 1459 l 1
 1430 1456 l 1
 1428 1456 l 1
1428 1456 m 1
 935 782 l 1
 1489 3 l 1
 1489 0 l 1
 1003 0 l 1
 617 545 l 1
 598 517 l 1
 598 0 l 1
 162 0 l 1
 162 1456 l 1
 598 1456 l 1
 598 939 l 1
 951 1456 l 1
 1428 1456 l 1
EndSplineSet
EndChar

StartChar: L
Encoding: 76 76 63
Width: 1235
VWidth: 0
GlyphClass: 2
Flags: HW
PickledData: "(dp1
S'org.pippin.gimp.org.kernagic'
p2
(dp3
S'lstem'
p4
I0
sS'rstem'
p5
I597
ssS'com.typemytype.robofont.layerData'
p6
(dp7
sS'org.robofab.postScriptHintData'
p8
(dp9
s."
AnchorPoint: "mid" 394 838 basechar 0
AnchorPoint: "bot" 531 0 basechar 0
AnchorPoint: "top" 352 1456 basechar 0
LayerCount: 2
Fore
SplineSet
162 1456 m 1
 598 1456 l 1
 598 267 l 1
 1212 267 l 1
 1187 0 l 1
 162 0 l 1
 162 1456 l 1
EndSplineSet
EndChar

StartChar: M
Encoding: 77 77 69
Width: 1932
VWidth: 0
GlyphClass: 2
Flags: HW
PickledData: "(dp1
S'org.pippin.gimp.org.kernagic'
p2
(dp3
S'lstem'
p4
I0
sS'rstem'
p5
I0
ssS'com.typemytype.robofont.guides'
p6
((dp7
S'y'
I378
sS'x'
I548
sS'magnetic'
p8
I5
sS'angle'
p9
I0
sS'isGlobal'
p10
I00
stp11
sS'com.typemytype.robofont.layerData'
p12
(dp13
sS'com.fontlab.hintData'
p14
(dp15
S'vhints'
p16
((dp17
S'position'
p18
I185
sS'width'
p19
I166
s(dp20
g18
I214
sg19
I151
s(dp21
g18
I332
sg19
I33
s(dp22
g18
I1463
sg19
I149
s(dp23
g18
I1463
sg19
I39
s(dp24
g18
I1477
sg19
I164
stp25
ssS'org.robofab.postScriptHintData'
p26
(dp27
s."
VStem: 185 166 214 151 332 33 1463 149 1463 39 1477 164
AnchorPoint: "top" 964 1456 basechar 0
LayerCount: 2
Fore
SplineSet
144 -7 m 1
 144 651 l 1
 166 1456 l 1
 598 1456 l 1
 972 739 l 1
 1343 1456 l 1
 1766 1456 l 1
 1788 661 l 1
 1788 -7 l 1
 1377 -7 l 1
 1377 581 l 1
 1371 824 l 1
 1085 256 l 1
 836 256 l 1
 557 821 l 1
 550 578 l 1
 550 -7 l 1
 144 -7 l 1
EndSplineSet
EndChar

StartChar: N
Encoding: 78 78 70
Width: 1671
VWidth: 0
GlyphClass: 2
Flags: HW
PickledData: "(dp1
S'org.pippin.gimp.org.kernagic'
p2
(dp3
S'lstem'
p4
I0
sS'rstem'
p5
I0
ssS'com.typemytype.robofont.layerData'
p6
(dp7
sS'org.robofab.postScriptHintData'
p8
(dp9
s."
AnchorPoint: "bot" 780 0 basechar 0
AnchorPoint: "top" 754 1456 basechar 0
LayerCount: 2
Fore
SplineSet
1100 1456 m 1
 1509 1456 l 1
 1509 0 l 1
 1086 0 l 1
 565 799 l 1
 582 467 l 1
 582 0 l 1
 162 0 l 1
 162 1456 l 1
 570 1456 l 1
 1118 607 l 1
 1100 973 l 1
 1100 1456 l 1
EndSplineSet
EndChar

StartChar: O
Encoding: 79 79 75
Width: 1673
VWidth: 0
GlyphClass: 2
Flags: HW
PickledData: "(dp1
S'org.pippin.gimp.org.kernagic'
p2
(dp3
S'lstem'
p4
I0
sS'rstem'
p5
I0
ssS'com.typemytype.robofont.guides'
p6
(tsS'com.typemytype.robofont.layerData'
p7
(dp8
sS'com.fontlab.hintData'
p9
(dp10
S'vhints'
p11
((dp12
S'position'
p13
I150
sS'width'
p14
I122
s(dp15
g13
I1390
sg14
I122
stp16
sS'hhints'
p17
((dp18
g13
I-19
sg14
I96
s(dp19
g13
I1372
sg14
I96
stp20
ssS'org.robofab.postScriptHintData'
p21
(dp22
s."
HStem: -19 96 1372 96
VStem: 150 122 1390 122
AnchorPoint: "ogonek" 776 -1 basechar 0
AnchorPoint: "top" 824 1456 basechar 0
LayerCount: 2
Fore
SplineSet
104 723 m 0
 104 1204 376 1476 837 1476 c 0
 1301 1476 1569 1203 1569 726 c 0
 1569 238 1301 -22 838 -22 c 0
 379 -22 104 241 104 723 c 0
1099 722 m 0
 1099 1005 1003 1168 838 1168 c 0
 675 1168 573 1005 573 722 c 0
 573 434 677 285 839 285 c 0
 1000 285 1099 435 1099 722 c 0
EndSplineSet
EndChar

StartChar: OE
Encoding: 338 338 76
Width: 2196
VWidth: 0
GlyphClass: 2
Flags: HW
PickledData: "(dp1
S'org.pippin.gimp.org.kernagic'
p2
(dp3
S'lstem'
p4
I0
sS'rstem'
p5
I0
ssS'com.typemytype.robofont.layerData'
p6
(dp7
S'b'
(dp8
S'name'
p9
S'OE'
p10
sS'lib'
p11
(dp12
sS'unicodes'
p13
(tsS'width'
p14
I2367
sS'contours'
p15
(tsS'components'
p16
(tsS'anchors'
p17
(tsssS'org.robofab.postScriptHintData'
p18
(dp19
s."
LayerCount: 2
Fore
SplineSet
51 730 m 0
 51 1226 312 1485 733 1485 c 0
 883 1485 963 1474 1048 1444 c 1
 1048 1456 l 1
 2030 1456 l 1
 2008 1187 l 1
 1380 1187 l 1
 1380 878 l 1
 1999 878 l 1
 1999 608 l 1
 1380 608 l 1
 1380 279 l 1
 2051 279 l 1
 2048 0 l 1
 1048 0 l 1
 1048 25 l 1
 963 -4 880 -15 734 -15 c 0
 315 -15 51 242 51 730 c 0
1047 729 m 0
 1047 1018 945 1192 734 1192 c 0
 525 1192 417 1018 417 729 c 0
 417 446 527 278 735 278 c 0
 943 278 1047 446 1047 729 c 0
EndSplineSet
EndChar

StartChar: Oslash
Encoding: 216 216 84
Width: 1678
VWidth: 0
GlyphClass: 2
Flags: HW
PickledData: "(dp1
S'org.pippin.gimp.org.kernagic'
p2
(dp3
S'lstem'
p4
I0
sS'rstem'
p5
I0
ssS'com.typemytype.robofont.layerData'
p6
(dp7
sS'org.robofab.postScriptHintData'
p8
(dp9
s."
AnchorPoint: "top" 837 1456 basechar 0
LayerCount: 2
Fore
SplineSet
546 -258 m 1
 394 -202 l 1
 487 44 l 1
 243 150 104 381 104 723 c 0
 104 1204 376 1476 837 1476 c 0
 904 1476 967 1471 1026 1460 c 1
 1134 1743 l 1
 1292 1682 l 1
 1188 1410 l 1
 1434 1303 1569 1066 1569 726 c 0
 1569 238 1301 -22 838 -22 c 0
 769 -22 704 -17 643 -5 c 1
 546 -258 l 1
627 410 m 1
 911 1156 l 1
 888 1164 863 1168 838 1168 c 0
 675 1168 573 1005 573 722 c 0
 573 589 595 486 627 410 c 1
839 285 m 0
 1000 285 1099 435 1099 722 c 0
 1099 854 1079 960 1044 1036 c 1
 760 299 l 1
 785 290 811 285 839 285 c 0
EndSplineSet
EndChar

StartChar: P
Encoding: 80 80 87
Width: 1502
VWidth: 0
GlyphClass: 2
Flags: HW
PickledData: "(dp1
S'org.pippin.gimp.org.kernagic'
p2
(dp3
S'lstem'
p4
I0
sS'rstem'
p5
I807
ssS'com.typemytype.robofont.layerData'
p6
(dp7
sS'org.robofab.postScriptHintData'
p8
(dp9
s."
AnchorPoint: "top" 744 1456 basechar 0
LayerCount: 2
Fore
SplineSet
598 730 m 1
 617 729 635 729 652 729 c 0
 951 729 1021 842 1021 969 c 0
 1021 1091 981 1200 636 1200 c 0
 624 1200 611 1199 598 1199 c 1
 598 730 l 1
162 1460 m 1
 304 1468 432 1472 546 1472 c 0
 1245 1472 1440 1322 1440 991 c 0
 1440 643 1251 452 716 452 c 0
 678 452 639 453 598 455 c 1
 598 0 l 1
 162 0 l 1
 162 1460 l 1
EndSplineSet
EndChar

StartChar: Q
Encoding: 81 81 88
Width: 1682
VWidth: 0
GlyphClass: 2
Flags: HW
PickledData: "(dp1
S'org.pippin.gimp.org.kernagic'
p2
(dp3
S'lstem'
p4
I0
sS'rstem'
p5
I0
ssS'com.typemytype.robofont.layerData'
p6
(dp7
sS'org.robofab.postScriptHintData'
p8
(dp9
s."
LayerCount: 2
Fore
SplineSet
1099 722 m 0
 1099 1005 1003 1168 838 1168 c 0
 675 1168 573 1005 573 722 c 0
 573 434 677 285 839 285 c 0
 1000 285 1099 435 1099 722 c 0
104 723 m 0
 104 1204 376 1476 837 1476 c 0
 1301 1476 1569 1203 1569 726 c 0
 1569 377 1432 145 1185 41 c 1
 1279 -89 1382 -196 1543 -333 c 1
 1270 -565 l 1
 1111 -434 899 -187 791 -21 c 1
 361 -3 104 258 104 723 c 0
EndSplineSet
EndChar

StartChar: R
Encoding: 82 82 89
Width: 1540
VWidth: 0
GlyphClass: 2
Flags: HW
PickledData: "(dp1
S'org.pippin.gimp.org.kernagic'
p2
(dp3
S'lstem'
p4
I0
sS'rstem'
p5
I839
ssS'com.typemytype.robofont.layerData'
p6
(dp7
sS'com.fontlab.hintData'
p8
(dp9
S'vhints'
p10
((dp11
S'position'
p12
I1122
sS'width'
p13
I117
stp14
sS'hhints'
p15
((dp16
g12
I722
sg13
I96
s(dp17
g12
I1355
sg13
I94
stp18
ssS'org.robofab.postScriptHintData'
p19
(dp20
s."
HStem: 722 96 1355 94
VStem: 1122 117
AnchorPoint: "bot" 759 0 basechar 0
AnchorPoint: "top" 772 1456 basechar 0
LayerCount: 2
Fore
SplineSet
598 1183 m 1
 598 845 l 1
 780 845 l 2
 931 845 1005 883 1005 1033 c 0
 1005 1166 906 1195 784 1195 c 0
 725 1195 660 1188 598 1183 c 1
162 0 m 1
 162 1460 l 1
 390 1474 582 1485 741 1485 c 0
 1215 1485 1401 1393 1401 1027 c 0
 1401 777 1262 690 1147 651 c 1
 1490 15 l 1
 1490 0 l 1
 1014 0 l 1
 713 589 l 1
 598 589 l 1
 598 0 l 1
 162 0 l 1
EndSplineSet
EndChar

StartChar: S
Encoding: 83 83 93
Width: 1230
VWidth: 0
GlyphClass: 2
Flags: HW
PickledData: "(dp1
S'org.pippin.gimp.org.kernagic'
p2
(dp3
S'lstem'
p4
I185
sS'rstem'
p5
I826
ssS'com.typemytype.robofont.guides'
p6
((dp7
S'y'
I973
sS'x'
I1035
sS'magnetic'
p8
I5
sS'angle'
p9
F90
sS'isGlobal'
p10
I00
s(dp11
S'y'
I382
sS'x'
I75
sg8
I5
sg9
F90
sg10
I00
stp12
sS'com.typemytype.robofont.layerData'
p13
(dp14
sS'org.robofab.postScriptHintData'
p15
(dp16
s."
AnchorPoint: "bot" 599 0 basechar 0
AnchorPoint: "top" 618 1453 basechar 0
LayerCount: 2
Fore
SplineSet
1115 1182 m 1
 821 1049 l 1
 794 1049 l 1
 764 1155 673 1199 624 1199 c 0
 564 1198 507 1160 507 1078 c 0
 507 1004 554 973 674 927 c 1
 835 862 l 2
 1035 782 1160 686 1160 424 c 0
 1160 147 945 -20 617 -20 c 0
 308 -20 141 131 65 255 c 1
 330 443 l 1
 368 443 l 1
 409 378 505 282 597 282 c 0
 669 282 716 314 716 388 c 0
 716 454 704 499 565 556 c 2
 335 649 l 2
 189 709 81 816 81 1045 c 0
 81 1345 321 1476 601 1476 c 0
 922 1476 1089 1301 1115 1182 c 1
EndSplineSet
EndChar

StartChar: T
Encoding: 84 84 99
Width: 1319
VWidth: 0
GlyphClass: 2
Flags: HW
PickledData: "(dp1
S'org.pippin.gimp.org.kernagic'
p2
(dp3
S'lstem'
p4
I285
sS'rstem'
p5
I844
ssS'com.typemytype.robofont.layerData'
p6
(dp7
sS'org.robofab.postScriptHintData'
p8
(dp9
s."
AnchorPoint: "mid" 655 620 basechar 0
AnchorPoint: "bot" 667 0 basechar 0
AnchorPoint: "top" 668 1456 basechar 0
LayerCount: 2
Fore
SplineSet
53 1456 m 1
 1266 1456 l 1
 1266 1190 l 1
 878 1190 l 1
 878 -7 l 1
 443 -7 l 1
 443 1190 l 1
 53 1190 l 1
 53 1456 l 1
EndSplineSet
EndChar

StartChar: Thorn
Encoding: 222 222 104
Width: 1520
VWidth: 0
GlyphClass: 2
Flags: HW
PickledData: "(dp1
S'org.pippin.gimp.org.kernagic'
p2
(dp3
S'lstem'
p4
I0
sS'rstem'
p5
I0
ssS'com.typemytype.robofont.layerData'
p6
(dp7
S'b'
(dp8
S'name'
p9
S'Thorn'
p10
sS'lib'
p11
(dp12
sS'unicodes'
p13
(tsS'width'
p14
I1192
sS'contours'
p15
(tsS'components'
p16
(tsS'anchors'
p17
(tsssS'org.robofab.postScriptHintData'
p18
(dp19
s."
LayerCount: 2
Fore
SplineSet
600 1034 m 1
 600 557 l 1
 658 557 l 2
 985 557 1053 679 1053 807 c 0
 1053 931 1020 1034 696 1034 c 0
 664 1034 632 1034 600 1034 c 1
164 0 m 1
 164 1449 l 1
 600 1449 l 1
 600 1303 l 1
 665 1303 l 2
 1282 1303 1470 1150 1470 829 c 0
 1470 482 1285 282 724 282 c 2
 600 282 l 1
 600 0 l 1
 164 0 l 1
EndSplineSet
EndChar

StartChar: U
Encoding: 85 85 105
Width: 1550
VWidth: 0
GlyphClass: 2
Flags: HW
PickledData: "(dp1
S'org.pippin.gimp.org.kernagic'
p2
(dp3
S'lstem'
p4
I0
sS'rstem'
p5
I0
ssS'com.typemytype.robofont.layerData'
p6
(dp7
sS'org.robofab.postScriptHintData'
p8
(dp9
s."
AnchorPoint: "bot" 794 0 basechar 0
AnchorPoint: "ogonek" 828 -4 basechar 0
AnchorPoint: "top" 773 1456 basechar 0
LayerCount: 2
Fore
SplineSet
981 1456 m 1
 1416 1456 l 1
 1416 531 l 2
 1416 181 1182 -20 770 -20 c 0
 359 -20 135 180 135 530 c 2
 135 1456 l 1
 570 1456 l 1
 570 558 l 2
 570 359 649 286 770 286 c 0
 902 286 981 361 981 560 c 2
 981 1456 l 1
EndSplineSet
EndChar

StartChar: V
Encoding: 86 86 116
Width: 1361
VWidth: 0
GlyphClass: 2
Flags: HW
PickledData: "(dp1
S'org.pippin.gimp.org.kernagic'
p2
(dp3
S'lstem'
p4
I0
sS'rstem'
p5
I0
ssS'com.typemytype.robofont.layerData'
p6
(dp7
sS'org.robofab.postScriptHintData'
p8
(dp9
s."
LayerCount: 2
Fore
SplineSet
407 -7 m 1
 -14 1456 l 1
 405 1456 l 1
 493 1101 589 751 673 392 c 1
 689 470 l 1
 961 1456 l 1
 1375 1456 l 1
 911 -7 l 1
 407 -7 l 1
EndSplineSet
EndChar

StartChar: W
Encoding: 87 87 117
Width: 2068
VWidth: 0
GlyphClass: 2
Flags: HW
PickledData: "(dp1
S'org.pippin.gimp.org.kernagic'
p2
(dp3
S'lstem'
p4
I0
sS'rstem'
p5
I0
ssS'com.typemytype.robofont.layerData'
p6
(dp7
sS'org.robofab.postScriptHintData'
p8
(dp9
s."
AnchorPoint: "bot" 1008 0 basechar 0
AnchorPoint: "top" 1037 1456 basechar 0
LayerCount: 2
Fore
SplineSet
1022 906 m 1
 773 0 l 1
 378 0 l 1
 40 1456 l 1
 464 1456 l 1
 615 571 l 1
 854 1457 l 1
 1191 1457 l 1
 1433 567 l 1
 1607 1456 l 1
 2027 1456 l 1
 1649 0 l 1
 1258 0 l 1
 1022 906 l 1
EndSplineSet
EndChar

StartChar: X
Encoding: 88 88 122
Width: 1460
VWidth: 0
GlyphClass: 2
Flags: HW
PickledData: "(dp1
S'org.pippin.gimp.org.kernagic'
p2
(dp3
S'lstem'
p4
I0
sS'rstem'
p5
I0
ssS'com.typemytype.robofont.layerData'
p6
(dp7
sS'org.robofab.postScriptHintData'
p8
(dp9
s."
LayerCount: 2
Fore
SplineSet
990 742 m 1
 1489 -7 l 1
 1017 -7 l 1
 719 439 l 1
 425 -7 l 1
 -27 -7 l 1
 494 777 l 1
 41 1456 l 1
 515 1456 l 1
 762 1084 l 1
 993 1456 l 1
 1460 1456 l 1
 990 742 l 1
EndSplineSet
EndChar

StartChar: Y
Encoding: 89 89 123
Width: 1343
VWidth: 0
GlyphClass: 2
Flags: HW
PickledData: "(dp1
S'org.pippin.gimp.org.kernagic'
p2
(dp3
S'lstem'
p4
I0
sS'rstem'
p5
I0
ssS'com.typemytype.robofont.layerData'
p6
(dp7
sS'org.robofab.postScriptHintData'
p8
(dp9
s."
AnchorPoint: "top" 676 1456 basechar 0
LayerCount: 2
Fore
SplineSet
887 590 m 1
 887 0 l 1
 452 0 l 1
 452 584 l 1
 -23 1456 l 1
 442 1456 l 1
 668 1000 l 1
 905 1456 l 1
 1366 1456 l 1
 887 590 l 1
EndSplineSet
EndChar

StartChar: Z
Encoding: 90 90 128
Width: 1289
VWidth: 0
GlyphClass: 2
Flags: HW
PickledData: "(dp1
S'org.pippin.gimp.org.kernagic'
p2
(dp3
S'lstem'
p4
I0
sS'rstem'
p5
I0
ssS'com.typemytype.robofont.layerData'
p6
(dp7
sS'org.robofab.postScriptHintData'
p8
(dp9
s."
AnchorPoint: "bot" 583 0 basechar 0
AnchorPoint: "top" 633 1456 basechar 0
LayerCount: 2
Fore
SplineSet
112 0 m 1
 112 216 l 1
 698 1187 l 1
 135 1187 l 1
 114 1456 l 1
 1168 1456 l 1
 1166 1219 l 1
 628 267 l 1
 1186 267 l 1
 1206 0 l 1
 112 0 l 1
EndSplineSet
EndChar

StartChar: a
Encoding: 97 97 132
Width: 1174
VWidth: 0
GlyphClass: 2
Flags: HW
PickledData: "(dp1
S'org.pippin.gimp.org.kernagic'
p2
(dp3
S'lstem'
p4
I0
sS'rstem'
p5
I0
ssS'com.typemytype.robofont.guides'
p6
(tsS'com.typemytype.robofont.layerData'
p7
(dp8
sS'com.fontlab.hintData'
p9
(dp10
S'vhints'
p11
((dp12
S'position'
p13
I126
sS'width'
p14
I120
s(dp15
g13
I842
sg14
I32
s(dp16
g13
I875
sg14
I86
stp17
sS'hhints'
p18
((dp19
g13
I-15
sg14
I92
s(dp20
g13
I535
sg14
I82
s(dp21
g13
I983
sg14
I92
stp22
ssS'org.robofab.postScriptHintData'
p23
(dp24
s."
HStem: -15 92 535 82 983 92
VStem: 126 120 842 32 875 86
AnchorPoint: "bot" 672 -1 basechar 0
AnchorPoint: "ogonek" 897 -1 basechar 0
AnchorPoint: "top" 561 1081 basechar 0
LayerCount: 2
Fore
SplineSet
406 -16 m 0
 212 -16 75 95 75 308 c 0
 75 580 370 636 559 636 c 2
 564 636 l 1
 681 635 l 1
 681 693 l 2
 681 785 616 818 526 818 c 0
 433 818 312 782 185 740 c 1
 115 975 l 1
 284 1053 455 1099 606 1099 c 0
 870 1099 1081 958 1081 612 c 2
 1081 0 l 1
 784 0 l 1
 740 115 l 1
 671 49 574 -16 406 -16 c 0
678 245 m 1
 678 461 l 1
 656 461 l 2
 561 461 437 437 437 315 c 0
 437 232 494 195 550 195 c 0
 611 195 658 225 678 245 c 1
EndSplineSet
EndChar

StartChar: acute
Encoding: 180 180 136
Width: 814
VWidth: 0
GlyphClass: 4
Flags: HW
PickledData: "(dp1
S'org.robofab.postScriptHintData'
p2
(dp3
sS'com.typemytype.robofont.layerData'
p4
(dp5
s."
AnchorPoint: "top" 543 1082 mark 0
LayerCount: 2
Fore
SplineSet
427 1207 m 1
 596 1623 l 1
 1000 1623 l 1
 649 1207 l 1
 427 1207 l 1
EndSplineSet
EndChar

StartChar: ae
Encoding: 230 230 138
Width: 1782
VWidth: 0
GlyphClass: 2
Flags: HW
PickledData: "(dp1
S'org.pippin.gimp.org.kernagic'
p2
(dp3
S'lstem'
p4
I0
sS'rstem'
p5
I0
ssS'com.typemytype.robofont.layerData'
p6
(dp7
sS'com.fontlab.hintData'
p8
(dp9
S'vhints'
p10
((dp11
S'position'
p12
I126
sS'width'
p13
I119
s(dp14
g12
I817
sg13
I117
s(dp15
g12
I817
sg13
I82
s(dp16
g12
I1556
sg13
I98
stp17
sS'hhints'
p18
((dp19
g12
I-14
sg13
I98
s(dp20
g12
I518
sg13
I82
s(dp21
g12
I983
sg13
I92
stp22
ssS'org.robofab.postScriptHintData'
p23
(dp24
s."
HStem: -14 98 518 82 983 92
VStem: 126 119 817 117 817 82 1556 98
AnchorPoint: "top" 1285 1082 basechar 0
LayerCount: 2
Fore
SplineSet
636 631 m 2
 665 631 692 631 697 632 c 1
 697 694 l 2
 697 784 609 819 520 819 c 0
 426 819 303 782 181 741 c 1
 114 980 l 1
 279 1056 455 1100 601 1100 c 0
 760 1100 876 1033 908 944 c 1
 973 1031 1074 1102 1257 1102 c 0
 1591 1102 1697 864 1697 701 c 0
 1697 491 1450 414 1048 409 c 1
 1073 240 1184 236 1268 236 c 2
 1279 236 l 2
 1420 236 1540 283 1622 336 c 1
 1681 123 l 1
 1599 38 1425 -20 1233 -20 c 0
 991 -20 913 53 839 120 c 1
 755 41 619 -15 422 -15 c 2
 416 -15 l 2
 209 -15 70 86 70 308 c 0
 70 579 368 631 558 631 c 2
 636 631 l 2
433 313 m 0
 433 235 484 196 539 196 c 0
 545 196 550 196 556 197 c 0
 676 213 725 256 752 258 c 1
 730 306 702 419 702 457 c 1
 693 456 656 456 656 456 c 1
 557 456 433 437 433 313 c 0
1050 619 m 1
 1366 627 1444 658 1444 743 c 0
 1444 801 1414 858 1265 858 c 0
 1188 858 1060 802 1050 619 c 1
EndSplineSet
EndChar

StartChar: ampersand
Encoding: 38 38 143
Width: 1420
VWidth: 0
GlyphClass: 2
Flags: HW
PickledData: "(dp1
S'org.pippin.gimp.org.kernagic'
p2
(dp3
S'lstem'
p4
I0
sS'rstem'
p5
I0
ssS'com.typemytype.robofont.layerData'
p6
(dp7
sS'com.fontlab.hintData'
p8
(dp9
S'vhints'
p10
((dp11
S'position'
p12
I135
sS'width'
p13
I121
s(dp14
g12
I312
sg13
I105
s(dp15
g12
I917
sg13
I110
stp16
sS'hhints'
p17
((dp18
g12
I-19
sg13
I96
s(dp19
g12
I1372
sg13
I96
stp20
ssS'org.robofab.postScriptHintData'
p21
(dp22
s."
HStem: -19 96 1372 96
VStem: 135 121 312 105 917 110
LayerCount: 2
Fore
SplineSet
554 691 m 1
 525 658 394 558 394 439 c 0
 394 286 502 220 628 220 c 0
 718 220 802 255 879 311 c 1
 554 691 l 1
408 889 m 1
 387 908 247 1052 247 1192 c 0
 247 1449 472 1557 666 1557 c 0
 839 1557 1068 1477 1068 1245 c 0
 1068 1118 918 946 756 861 c 1
 1068 501 l 1
 1137 590 1198 691 1249 787 c 1
 1445 647 l 1
 1377 537 1307 421 1226 318 c 1
 1395 123 l 1
 1182 -42 l 1
 1038 125 l 1
 927 39 796 -15 630 -15 c 0
 416 -15 95 120 95 480 c 0
 95 674 309 807 408 889 c 1
638 1015 m 1
 706 1049 784 1176 784 1240 c 0
 784 1321 725 1339 659 1339 c 0
 600 1338 550 1323 550 1234 c 0
 550 1145 566 1099 638 1015 c 1
EndSplineSet
EndChar

StartChar: apostrophemod
Encoding: 700 700 145
Width: 651
VWidth: 0
GlyphClass: 2
Flags: HW
PickledData: "(dp1
S'org.robofab.postScriptHintData'
p2
(dp3
sS'com.typemytype.robofont.layerData'
p4
(dp5
s."
LayerCount: 2
Fore
SplineSet
28 1074 m 1
 28 1074 63 1444 75 1554 c 1
 396 1554 l 1
 357 1337 306 1074 306 1074 c 1
 28 1074 l 1
EndSplineSet
EndChar

StartChar: approxequal
Encoding: 8776 8776 146
Width: 1344
VWidth: 0
GlyphClass: 2
Flags: HW
PickledData: "(dp1
S'org.pippin.gimp.org.kernagic'
p2
(dp3
S'lstem'
p4
I0
sS'rstem'
p5
I0
ssS'com.typemytype.robofont.layerData'
p6
(dp7
S'b'
(dp8
S'name'
p9
S'approxequal'
p10
sS'lib'
p11
(dp12
sS'unicodes'
p13
(tsS'width'
p14
I1136
sS'contours'
p15
(tsS'components'
p16
(tsS'anchors'
p17
(tsssS'org.robofab.postScriptHintData'
p18
(dp19
s."
LayerCount: 2
Fore
SplineSet
287 727 m 1
 96 791 l 1
 124 987 227 1109 418 1109 c 0
 522 1109 592 1074 706 1006 c 0
 773 965 831 938 886 938 c 0
 940 938 995 960 1042 1095 c 1
 1209 1030 l 1
 1173 848 1112 719 896 719 c 0
 780 719 689 757 523 851 c 0
 501 865 460 891 412 891 c 0
 332 891 301 835 287 727 c 1
287 275 m 1
 96 340 l 1
 124 536 227 658 418 658 c 0
 522 658 592 622 706 555 c 0
 773 514 831 487 886 487 c 0
 940 487 995 509 1042 644 c 1
 1209 579 l 1
 1173 397 1112 267 896 267 c 0
 780 267 689 306 523 400 c 0
 501 413 461 439 414 439 c 0
 332 439 301 385 287 275 c 1
EndSplineSet
EndChar

StartChar: asciicircum
Encoding: 94 94 149
Width: 1563
VWidth: 0
GlyphClass: 2
Flags: HW
PickledData: "(dp1
S'org.pippin.gimp.org.kernagic'
p2
(dp3
S'lstem'
p4
I0
sS'rstem'
p5
I0
ssS'com.typemytype.robofont.layerData'
p6
(dp7
sS'org.robofab.postScriptHintData'
p8
(dp9
s."
LayerCount: 2
Fore
SplineSet
672 1456 m 1
 846 1456 l 1
 1450 265 l 1
 1043 265 l 1
 769 844 l 1
 521 265 l 1
 113 265 l 1
 672 1456 l 1
EndSplineSet
EndChar

StartChar: asciitilde
Encoding: 126 126 150
Width: 1192
VWidth: 0
GlyphClass: 2
Flags: HW
PickledData: "(dp1
S'org.pippin.gimp.org.kernagic'
p2
(dp3
S'lstem'
p4
I0
sS'rstem'
p5
I0
ssS'com.typemytype.robofont.layerData'
p6
(dp7
S'b'
(dp8
S'name'
p9
S'asciitilde'
p10
sS'lib'
p11
(dp12
sS'unicodes'
p13
(tsS'width'
p14
I1192
sS'contours'
p15
(tsS'components'
p16
(tsS'anchors'
p17
(tsssS'org.robofab.postScriptHintData'
p18
(dp19
s."
LayerCount: 2
Fore
SplineSet
194 464 m 1
 84 641 l 1
 137 745 223 836 380 836 c 0
 466 836 565 806 641 773 c 0
 723 734 786 717 835 717 c 0
 905 717 963 743 1060 837 c 1
 1160 670 l 1
 1109 577 967 474 814 474 c 0
 710 474 638 503 543 547 c 0
 485 576 437 597 367 597 c 0
 285 597 230 532 194 464 c 1
EndSplineSet
EndChar

StartChar: asterisk
Encoding: 42 42 151
Width: 1077
VWidth: 0
GlyphClass: 2
Flags: HW
PickledData: "(dp1
S'org.pippin.gimp.org.kernagic'
p2
(dp3
S'lstem'
p4
I0
sS'rstem'
p5
I0
ssS'com.typemytype.robofont.layerData'
p6
(dp7
sS'org.robofab.postScriptHintData'
p8
(dp9
s."
LayerCount: 2
Fore
SplineSet
377 443 m 1
 118 585 l 1
 362 908 l 1
 17 990 l 1
 97 1271 l 1
 435 1122 l 1
 401 1539 l 1
 679 1539 l 1
 648 1122 l 1
 988 1271 l 1
 1070 990 l 1
 720 908 l 1
 763 852 969 583 964 583 c 1
 962 585 l 1
 710 440 l 1
 541 775 l 1
 377 443 l 1
EndSplineSet
EndChar

StartChar: at
Encoding: 64 64 152
Width: 2052
VWidth: 0
GlyphClass: 2
Flags: HW
PickledData: "(dp1
S'org.pippin.gimp.org.kernagic'
p2
(dp3
S'lstem'
p4
I0
sS'rstem'
p5
I0
ssS'com.typemytype.robofont.layerData'
p6
(dp7
sS'org.robofab.postScriptHintData'
p8
(dp9
s."
LayerCount: 2
Fore
SplineSet
1024 -104 m 0
 507 -104 153 194 153 724 c 0
 153 1220 550 1620 1093 1620 c 0
 1567 1620 1945 1313 1945 865 c 0
 1945 486 1703 294 1495 294 c 0
 1363 294 1276 376 1248 521 c 1
 1197 372 1088 282 958 282 c 0
 690 282 581 464 581 681 c 0
 581 952 771 1238 1102 1238 c 0
 1266 1238 1428 1181 1497 1143 c 1
 1468 925 1428 724 1428 594 c 0
 1428 521 1453 484 1495 484 c 0
 1579 484 1673 610 1673 873 c 0
 1673 1125 1492 1386 1086 1386 c 0
 672 1386 443 1054 443 720 c 0
 443 393 657 121 1027 121 c 0
 1210 121 1399 153 1540 231 c 1
 1610 53 l 1
 1476 -54 1243 -104 1024 -104 c 0
866 655 m 0
 866 532 909 484 976 484 c 0
 1088 484 1146 556 1179 799 c 1
 1215 1029 l 1
 1185 1033 1144 1036 1118 1036 c 0
 960 1036 866 845 866 655 c 0
EndSplineSet
EndChar

StartChar: b
Encoding: 98 98 154
Width: 1286
VWidth: 0
GlyphClass: 2
Flags: HW
PickledData: "(dp1
S'org.pippin.gimp.org.kernagic'
p2
(dp3
S'lstem'
p4
I0
sS'rstem'
p5
I0
ssS'com.typemytype.robofont.guides'
p6
(tsS'com.typemytype.robofont.layerData'
p7
(dp8
sS'com.fontlab.hintData'
p9
(dp10
S'vhints'
p11
((dp12
S'position'
p13
I193
sS'width'
p14
I125
s(dp15
g13
I193
sg14
I94
s(dp16
g13
I1018
sg14
I122
stp17
sS'hhints'
p18
((dp19
g13
I-19
sg14
I92
s(dp20
g13
I982
sg14
I92
stp21
ssS'org.robofab.postScriptHintData'
p22
(dp23
s."
HStem: -19 92 982 92
VStem: 193 125 193 94 1018 122
AnchorPoint: "top" 809 1082 basechar 0
LayerCount: 2
Fore
SplineSet
1216 551 m 0
 1216 219 1075 -20 778 -20 c 0
 622 -20 535 66 495 141 c 1
 486 0 l 1
 117 0 l 1
 117 1540 l 1
 525 1560 l 1
 525 1161 l 1
 515 968 l 1
 567 1045 654 1101 789 1101 c 0
 1074 1101 1216 858 1216 551 c 0
673 236 m 0
 727 236 801 305 801 552 c 0
 801 810 739 844 685 844 c 0
 623 844 526 814 526 567 c 2
 526 302 l 1
 550 273 574 236 673 236 c 0
EndSplineSet
EndChar

StartChar: backslash
Encoding: 92 92 155
Width: 937
VWidth: 0
GlyphClass: 2
Flags: HW
PickledData: "(dp1
S'org.pippin.gimp.org.kernagic'
p2
(dp3
S'lstem'
p4
I0
sS'rstem'
p5
I0
ssS'com.typemytype.robofont.layerData'
p6
(dp7
S'b'
(dp8
S'name'
p9
S'backslash'
p10
sS'lib'
p11
(dp12
sS'unicodes'
p13
(tsS'width'
p14
I937
sS'contours'
p15
(tsS'components'
p16
(tsS'anchors'
p17
(tsssS'org.robofab.postScriptHintData'
p18
(dp19
s."
LayerCount: 2
Fore
SplineSet
548 29 m 1
 92 1516 l 1
 387 1516 l 1
 838 29 l 1
 548 29 l 1
EndSplineSet
EndChar

StartChar: bar
Encoding: 124 124 156
Width: 755
VWidth: 0
GlyphClass: 2
Flags: HW
PickledData: "(dp1
S'org.pippin.gimp.org.kernagic'
p2
(dp3
S'lstem'
p4
I0
sS'rstem'
p5
I0
ssS'com.typemytype.robofont.layerData'
p6
(dp7
S'b'
(dp8
S'name'
p9
S'bar'
p10
sS'lib'
p11
(dp12
sS'unicodes'
p13
(tsS'width'
p14
I681
sS'contours'
p15
(tsS'components'
p16
(tsS'anchors'
p17
(tsssS'org.robofab.postScriptHintData'
p18
(dp19
s."
LayerCount: 2
Fore
SplineSet
274 1476 m 1
 497 1476 l 1
 497 -577 l 1
 274 -577 l 1
 274 1476 l 1
EndSplineSet
EndChar

StartChar: braceleft
Encoding: 123 123 157
Width: 990
VWidth: 0
GlyphClass: 2
Flags: HW
PickledData: "(dp1
S'org.pippin.gimp.org.kernagic'
p2
(dp3
S'lstem'
p4
I0
sS'rstem'
p5
I0
ssS'com.typemytype.robofont.layerData'
p6
(dp7
sS'org.robofab.postScriptHintData'
p8
(dp9
s."
LayerCount: 2
Fore
SplineSet
857 -335 m 1
 691 -335 409 -317 409 -91 c 2
 409 358 l 2
 409 427 397 531 187 531 c 1
 187 762 l 1
 397 762 409 865 409 935 c 2
 409 1383 l 2
 409 1610 691 1628 857 1628 c 1
 857 1419 l 1
 738 1415 667 1410 667 1291 c 2
 667 918 l 2
 667 829 659 685 467 646 c 1
 659 608 667 464 667 375 c 2
 667 1 l 2
 667 -118 738 -122 857 -127 c 1
 857 -335 l 1
EndSplineSet
EndChar

StartChar: braceright
Encoding: 125 125 158
Width: 990
VWidth: 0
GlyphClass: 2
Flags: HW
PickledData: "(dp1
S'org.pippin.gimp.org.kernagic'
p2
(dp3
S'lstem'
p4
I0
sS'rstem'
p5
I0
ssS'com.typemytype.robofont.layerData'
p6
(dp7
sS'org.robofab.postScriptHintData'
p8
(dp9
s."
LayerCount: 2
Fore
SplineSet
176 -335 m 1
 176 -127 l 1
 295 -122 365 -118 365 1 c 2
 365 375 l 2
 365 464 374 608 566 646 c 1
 374 685 365 829 365 918 c 2
 365 1291 l 2
 365 1410 295 1415 176 1419 c 1
 176 1628 l 1
 342 1628 624 1610 624 1383 c 2
 624 935 l 2
 624 865 635 762 845 762 c 1
 845 531 l 1
 636 531 624 427 624 358 c 2
 624 -91 l 2
 624 -317 342 -335 176 -335 c 1
EndSplineSet
EndChar

StartChar: bracketleft
Encoding: 91 91 159
Width: 823
VWidth: 0
GlyphClass: 2
Flags: HW
PickledData: "(dp1
S'org.pippin.gimp.org.kernagic'
p2
(dp3
S'lstem'
p4
I0
sS'rstem'
p5
I0
ssS'com.typemytype.robofont.layerData'
p6
(dp7
sS'org.robofab.postScriptHintData'
p8
(dp9
s."
LayerCount: 2
Fore
SplineSet
229 -248 m 1
 229 1485 l 1
 672 1485 l 1
 672 1255 l 1
 498 1255 l 1
 498 -15 l 1
 672 -15 l 1
 672 -248 l 1
 229 -248 l 1
EndSplineSet
EndChar

StartChar: bracketright
Encoding: 93 93 160
Width: 965
VWidth: 0
GlyphClass: 2
Flags: HW
PickledData: "(dp1
S'org.pippin.gimp.org.kernagic'
p2
(dp3
S'lstem'
p4
I0
sS'rstem'
p5
I0
ssS'com.typemytype.robofont.layerData'
p6
(dp7
sS'org.robofab.postScriptHintData'
p8
(dp9
s."
LayerCount: 2
Fore
SplineSet
299 -248 m 1
 299 -15 l 1
 472 -15 l 1
 472 1255 l 1
 299 1255 l 1
 299 1485 l 1
 742 1485 l 1
 742 -248 l 1
 299 -248 l 1
EndSplineSet
EndChar

StartChar: breve
Encoding: 728 728 161
Width: 956
VWidth: 0
GlyphClass: 4
Flags: HW
PickledData: "(dp1
S'org.robofab.postScriptHintData'
p2
(dp3
sS'com.typemytype.robofont.layerData'
p4
(dp5
s."
AnchorPoint: "top" 453 1085 mark 0
LayerCount: 2
Fore
SplineSet
454 1331 m 0
 258 1331 138 1443 138 1614 c 1
 352 1614 l 1
 352 1567 388 1535 454 1535 c 0
 519 1535 555 1567 555 1614 c 1
 766 1614 l 1
 766 1443 648 1331 454 1331 c 0
EndSplineSet
EndChar

StartChar: breveinvertedcomb
Encoding: 785 785 162
Width: 895
VWidth: 0
GlyphClass: 4
Flags: HW
PickledData: "(dp1
S'org.robofab.postScriptHintData'
p2
(dp3
sS'com.typemytype.robofont.layerData'
p4
(dp5
s."
AnchorPoint: "top" 458 1085 mark 0
LayerCount: 2
Fore
SplineSet
141 1331 m 1
 141 1502 261 1614 457 1614 c 0
 651 1614 769 1502 769 1331 c 1
 558 1331 l 1
 558 1377 522 1410 457 1410 c 0
 391 1410 355 1377 355 1331 c 1
 141 1331 l 1
EndSplineSet
EndChar

StartChar: brokenbar
Encoding: 166 166 163
Width: 793
VWidth: 0
GlyphClass: 2
Flags: HW
PickledData: "(dp1
S'org.pippin.gimp.org.kernagic'
p2
(dp3
S'lstem'
p4
I0
sS'rstem'
p5
I0
ssS'com.typemytype.robofont.layerData'
p6
(dp7
S'b'
(dp8
S'name'
p9
S'brokenbar'
p10
sS'lib'
p11
(dp12
sS'unicodes'
p13
(tsS'width'
p14
I653
sS'contours'
p15
(tsS'components'
p16
(tsS'anchors'
p17
(tsssS'org.robofab.postScriptHintData'
p18
(dp19
s."
LayerCount: 2
Fore
SplineSet
248 226 m 1
 502 226 l 1
 502 -440 l 1
 248 -440 l 1
 248 226 l 1
248 1401 m 1
 502 1401 l 1
 502 734 l 1
 248 734 l 1
 248 1401 l 1
EndSplineSet
EndChar

StartChar: bullet
Encoding: 8226 8226 164
Width: 979
VWidth: 0
GlyphClass: 2
Flags: HW
PickledData: "(dp1
S'org.pippin.gimp.org.kernagic'
p2
(dp3
S'lstem'
p4
I0
sS'rstem'
p5
I0
ssS'com.typemytype.robofont.layerData'
p6
(dp7
S'b'
(dp8
S'name'
p9
S'bullet'
p10
sS'lib'
p11
(dp12
sS'unicodes'
p13
(tsS'width'
p14
I908
sS'contours'
p15
(tsS'components'
p16
(tsS'anchors'
p17
(tsssS'org.robofab.postScriptHintData'
p18
(dp19
s."
LayerCount: 2
Fore
SplineSet
477 330 m 0
 262 330 114 489 114 682 c 0
 114 874 271 1038 484 1038 c 0
 697 1038 846 882 846 687 c 0
 846 494 691 330 477 330 c 0
EndSplineSet
EndChar

StartChar: c
Encoding: 99 99 165
Width: 1144
VWidth: 0
GlyphClass: 2
Flags: HW
PickledData: "(dp1
S'org.pippin.gimp.org.kernagic'
p2
(dp3
S'lstem'
p4
I0
sS'rstem'
p5
I696
ssS'com.typemytype.robofont.guides'
p6
((dp7
S'y'
I417
sS'x'
I962
sS'magnetic'
p8
I5
sS'angle'
p9
F90
sS'isGlobal'
p10
I00
s(dp11
S'y'
I1020
sS'x'
I565
sg8
I5
sg9
F90
sg10
I00
s(dp12
S'y'
I994
sS'x'
I572
sg8
I5
sg9
F90
sg10
I00
stp13
sS'com.typemytype.robofont.layerData'
p14
(dp15
sS'com.fontlab.hintData'
p16
(dp17
S'vhints'
p18
((dp19
S'position'
p20
I128
sS'width'
p21
I120
stp22
sS'hhints'
p23
((dp24
g20
I-19
sg21
I92
s(dp25
g20
I982
sg21
I92
stp26
ssS'org.robofab.postScriptHintData'
p27
(dp28
s."
HStem: -19 92 982 92
VStem: 128 120
AnchorPoint: "bot" 635 0 basechar 0
AnchorPoint: "top" 622 1082 basechar 0
LayerCount: 2
Fore
SplineSet
672 828 m 0
 587 828 479 751 479 541 c 0
 479 328 587 253 673 253 c 0
 742 253 819 303 836 386 c 1
 848 386 l 1
 1098 251 l 1
 1006 47 855 -20 655 -20 c 0
 295 -20 69 195 69 541 c 0
 69 887 295 1101 655 1101 c 0
 855 1101 1006 1035 1098 830 c 1
 848 696 l 1
 836 696 l 1
 819 780 742 828 672 828 c 0
EndSplineSet
EndChar

StartChar: caron
Encoding: 711 711 167
Width: 977
VWidth: 0
GlyphClass: 4
Flags: HW
PickledData: "(dp1
S'org.robofab.postScriptHintData'
p2
(dp3
sS'com.typemytype.robofont.layerData'
p4
(dp5
s."
AnchorPoint: "top" 475 1082 mark 0
LayerCount: 2
Fore
SplineSet
288 1289 m 1
 71 1700 l 1
 377 1700 l 1
 458 1498 l 1
 538 1700 l 1
 844 1700 l 1
 626 1289 l 1
 288 1289 l 1
EndSplineSet
EndChar

StartChar: caron.alt
Encoding: 65537 -1 168
Width: 576
VWidth: 0
GlyphClass: 4
Flags: HW
PickledData: "(dp1
S'org.robofab.postScriptHintData'
p2
(dp3
sS'com.typemytype.robofont.layerData'
p4
(dp5
s."
AnchorPoint: "caron.alt" -38 1082 mark 0
LayerCount: 2
Fore
SplineSet
305 1107 m 1
 301 1563 l 1
 586 1563 l 1
 523 1107 l 1
 305 1107 l 1
EndSplineSet
EndChar

StartChar: cedilla
Encoding: 184 184 173
Width: 781
VWidth: 0
GlyphClass: 4
Flags: HW
PickledData: "(dp1
S'org.robofab.postScriptHintData'
p2
(dp3
sS'com.typemytype.robofont.layerData'
p4
(dp5
s."
AnchorPoint: "bot" 549 26 mark 0
LayerCount: 2
Fore
SplineSet
477 -424 m 0
 422 -424 362 -412 302 -387 c 1
 349 -254 l 1
 389 -266 423 -272 450 -272 c 0
 525 -272 551 -232 551 -198 c 0
 550 -155 523 -137 469 -137 c 0
 461 -137 453 -137 444 -138 c 1
 444 -60 l 1
 489 -43 530 -35 567 -35 c 0
 668 -35 733 -97 733 -208 c 0
 733 -346 618 -424 477 -424 c 0
EndSplineSet
EndChar

StartChar: cent
Encoding: 162 162 174
Width: 1144
VWidth: 0
GlyphClass: 2
Flags: HW
PickledData: "(dp1
S'org.pippin.gimp.org.kernagic'
p2
(dp3
S'lstem'
p4
I0
sS'rstem'
p5
I0
ssS'com.typemytype.robofont.layerData'
p6
(dp7
sS'org.robofab.postScriptHintData'
p8
(dp9
s."
LayerCount: 2
Fore
SplineSet
672 828 m 0
 742 828 819 780 836 696 c 1
 848 696 l 1
 1098 830 l 1
 1014 1016 882 1088 708 1099 c 1
 727 1355 l 1
 569 1355 l 1
 571 1097 l 1
 260 1066 69 859 69 541 c 0
 69 224 259 16 568 -16 c 1
 559 -294 l 1
 701 -294 l 1
 699 -19 l 1
 877 -9 1013 62 1098 251 c 1
 848 386 l 1
 836 386 l 1
 819 303 742 253 673 253 c 0
 587 253 479 328 479 541 c 0
 479 751 587 828 672 828 c 0
EndSplineSet
EndChar

StartChar: circumflex
Encoding: 710 710 175
Width: 946
VWidth: 0
GlyphClass: 4
Flags: HW
PickledData: "(dp1
S'org.robofab.postScriptHintData'
p2
(dp3
sS'com.typemytype.robofont.layerData'
p4
(dp5
s."
AnchorPoint: "top" 452 1082 mark 0
LayerCount: 2
Fore
SplineSet
69 1322 m 1
 286 1733 l 1
 624 1733 l 1
 841 1322 l 1
 535 1322 l 1
 455 1524 l 1
 375 1322 l 1
 69 1322 l 1
EndSplineSet
EndChar

StartChar: colon
Encoding: 58 58 176
Width: 722
VWidth: 0
GlyphClass: 2
Flags: HW
PickledData: "(dp1
S'org.pippin.gimp.org.kernagic'
p2
(dp3
S'lstem'
p4
I0
sS'rstem'
p5
I0
ssS'com.typemytype.robofont.layerData'
p6
(dp7
S'b'
(dp8
S'name'
p9
S'colon'
p10
sS'lib'
p11
(dp12
sS'unicodes'
p13
(tsS'width'
p14
I653
sS'contours'
p15
(tsS'components'
p16
(tsS'anchors'
p17
(tsssS'org.robofab.postScriptHintData'
p18
(dp19
s."
LayerCount: 2
Fore
SplineSet
371 773 m 0
 276 773 185 822 185 945 c 0
 185 1071 274 1125 371 1125 c 0
 471 1125 559 1071 559 945 c 0
 559 825 471 773 371 773 c 0
371 -5 m 0
 276 -5 185 44 185 167 c 0
 185 293 274 347 371 347 c 0
 471 347 559 293 559 167 c 0
 559 47 471 -5 371 -5 c 0
EndSplineSet
EndChar

StartChar: comma
Encoding: 44 44 177
Width: 695
VWidth: 0
GlyphClass: 2
Flags: HW
PickledData: "(dp1
S'org.pippin.gimp.org.kernagic'
p2
(dp3
S'lstem'
p4
I0
sS'rstem'
p5
I0
ssS'com.typemytype.robofont.layerData'
p6
(dp7
sS'org.robofab.postScriptHintData'
p8
(dp9
s."
LayerCount: 2
Fore
SplineSet
182 -363 m 1
 182 -363 218 213 218 293 c 1
 548 293 l 1
 548 91 l 1
 423 -363 l 1
 182 -363 l 1
EndSplineSet
EndChar

StartChar: commaaccent
Encoding: 806 806 178
Width: 626
VWidth: 0
GlyphClass: 4
Flags: HW
PickledData: "(dp1
S'org.robofab.postScriptHintData'
p2
(dp3
s."
AnchorPoint: "bot" 352 0 mark 0
LayerCount: 2
Fore
SplineSet
105 -562 m 1
 105 -562 201 -79 201 -91 c 1
 511 -91 l 1
 507 -98 355 -562 355 -562 c 1
 105 -562 l 1
EndSplineSet
EndChar

StartChar: commaturnedabovecomb
Encoding: 786 786 179
Width: 600
VWidth: 0
GlyphClass: 4
Flags: HW
PickledData: "(dp1
S'org.robofab.postScriptHintData'
p2
(dp3
s."
AnchorPoint: "top" 287 1085 mark 0
LayerCount: 2
Fore
SplineSet
132 1286 m 1
 132 1311 280 1792 280 1792 c 1
 522 1792 l 1
 522 1792 448 1259 448 1271 c 1
 121 1271 l 1
 132 1286 l 1
EndSplineSet
EndChar

StartChar: copyright
Encoding: 169 169 180
Width: 1816
VWidth: 0
GlyphClass: 2
Flags: HW
PickledData: "(dp1
S'org.pippin.gimp.org.kernagic'
p2
(dp3
S'lstem'
p4
I0
sS'rstem'
p5
I0
ssS'com.typemytype.robofont.layerData'
p6
(dp7
sS'org.robofab.postScriptHintData'
p8
(dp9
s."
LayerCount: 2
Fore
SplineSet
947 256 m 0
 710 256 470 406 470 741 c 0
 470 1079 711 1227 948 1227 c 0
 1048 1227 1148 1200 1232 1149 c 1
 1182 1011 l 1
 1108 1047 1035 1067 965 1067 c 0
 807 1067 682 969 682 741 c 0
 682 516 807 417 964 417 c 0
 1032 417 1108 437 1180 474 c 1
 1231 335 l 1
 1147 283 1047 256 947 256 c 0
925 113 m 0
 1263 113 1524 399 1524 729 c 0
 1524 1059 1263 1344 925 1344 c 0
 586 1344 324 1059 324 729 c 0
 324 399 586 113 925 113 c 0
925 -64 m 0
 477 -64 131 300 131 729 c 0
 131 1157 477 1520 925 1520 c 0
 1372 1520 1716 1157 1716 729 c 0
 1716 300 1372 -64 925 -64 c 0
EndSplineSet
EndChar

StartChar: currency
Encoding: 164 164 181
Width: 1095
VWidth: 0
GlyphClass: 2
Flags: HW
PickledData: "(dp1
S'org.pippin.gimp.org.kernagic'
p2
(dp3
S'lstem'
p4
I0
sS'rstem'
p5
I0
ssS'com.typemytype.robofont.layerData'
p6
(dp7
S'b'
(dp8
S'name'
p9
S'currency'
p10
sS'lib'
p11
(dp12
sS'unicodes'
p13
(tsS'width'
p14
I1164
sS'contours'
p15
(tsS'components'
p16
(tsS'anchors'
p17
(tsssS'org.robofab.postScriptHintData'
p18
(dp19
s."
LayerCount: 2
Fore
SplineSet
789 1107 m 1
 970 1281 l 1
 1087 1157 l 1
 910 981 l 1
 947 918 974 840 974 753 c 0
 974 669 952 594 911 525 c 1
 1086 353 l 1
 970 230 l 1
 789 404 l 1
 723 355 645 325 557 325 c 0
 470 325 388 351 320 400 c 1
 150 231 l 1
 26 349 l 1
 205 525 l 1
 168 589 141 669 141 753 c 0
 141 837 166 911 205 981 c 1
 25 1157 l 1
 150 1281 l 1
 324 1108 l 1
 389 1151 472 1184 557 1184 c 0
 646 1184 721 1159 789 1107 c 1
800 753 m 0
 800 892 682 1001 557 1001 c 0
 434 1001 319 892 319 753 c 0
 319 614 434 508 557 508 c 0
 686 508 800 613 800 753 c 0
EndSplineSet
EndChar

StartChar: d
Encoding: 100 100 182
Width: 1287
VWidth: 0
GlyphClass: 2
Flags: HW
PickledData: "(dp1
S'org.pippin.gimp.org.kernagic'
p2
(dp3
S'lstem'
p4
I0
sS'rstem'
p5
I0
ssS'com.typemytype.robofont.layerData'
p6
(dp7
sS'com.fontlab.hintData'
p8
(dp9
S'vhints'
p10
((dp11
S'position'
p12
I114
sS'width'
p13
I166
s(dp14
g12
I907
sg13
I161
s(dp15
g12
I930
sg13
I138
stp16
sS'hhints'
p17
((dp18
g12
I-19
sg13
I127
s(dp19
g12
I953
sg13
I127
stp20
ssS'org.robofab.postScriptHintData'
p21
(dp22
s."
HStem: -19 127 953 127
VStem: 114 166 907 161 930 138
AnchorPoint: "mid" 926 1289 basechar 0
AnchorPoint: "caron.alt" 965 1060 basechar 0
AnchorPoint: "top" 436 1082 basechar 0
LayerCount: 2
Fore
SplineSet
763 1540 m 1
 1168 1560 l 1
 1168 0 l 1
 800 0 l 1
 793 164 l 1
 748 61 657 -20 495 -20 c 0
 211 -20 74 223 74 530 c 0
 74 862 209 1101 506 1102 c 0
 638 1101 720 1040 767 976 c 1
 763 1133 l 1
 763 1540 l 1
609 238 m 0
 678 238 734 275 760 331 c 1
 760 778 l 1
 733 809 701 846 625 846 c 0
 572 846 484 823 484 529 c 0
 484 275 555 238 609 238 c 0
EndSplineSet
EndChar

StartChar: dagger
Encoding: 8224 8224 183
Width: 1190
VWidth: 0
GlyphClass: 2
Flags: HW
PickledData: "(dp1
S'org.pippin.gimp.org.kernagic'
p2
(dp3
S'lstem'
p4
I0
sS'rstem'
p5
I0
ssS'com.typemytype.robofont.layerData'
p6
(dp7
S'b'
(dp8
S'name'
p9
S'dagger'
p10
sS'lib'
p11
(dp12
sS'unicodes'
p13
(tsS'width'
p14
I1050
sS'contours'
p15
(tsS'components'
p16
(tsS'anchors'
p17
(tsssS'org.robofab.postScriptHintData'
p18
(dp19
s."
LayerCount: 2
Fore
SplineSet
401 1450 m 1
 792 1450 l 1
 792 1077 l 1
 1119 1077 l 1
 1119 840 l 1
 782 840 l 1
 782 -171 l 1
 401 -171 l 1
 401 840 l 1
 89 840 l 1
 89 1077 l 1
 401 1077 l 1
 401 1450 l 1
EndSplineSet
EndChar

StartChar: daggerdbl
Encoding: 8225 8225 184
Width: 1162
VWidth: 0
GlyphClass: 2
Flags: HW
PickledData: "(dp1
S'org.pippin.gimp.org.kernagic'
p2
(dp3
S'lstem'
p4
I0
sS'rstem'
p5
I0
ssS'com.typemytype.robofont.layerData'
p6
(dp7
S'b'
(dp8
S'name'
p9
S'daggerdbl'
p10
sS'lib'
p11
(dp12
sS'unicodes'
p13
(tsS'width'
p14
I1022
sS'contours'
p15
(tsS'components'
p16
(tsS'anchors'
p17
(tsssS'org.robofab.postScriptHintData'
p18
(dp19
s."
LayerCount: 2
Fore
SplineSet
401 1453 m 1
 793 1453 l 1
 793 1081 l 1
 1123 1081 l 1
 1123 843 l 1
 792 843 l 1
 792 576 l 1
 1123 576 l 1
 1123 338 l 1
 782 338 l 1
 782 -222 l 1
 401 -222 l 1
 401 338 l 1
 88 338 l 1
 88 576 l 1
 401 576 l 1
 401 843 l 1
 88 843 l 1
 88 1081 l 1
 401 1081 l 1
 401 1453 l 1
EndSplineSet
EndChar

StartChar: dblgravecomb
Encoding: 783 783 185
Width: 1172
VWidth: 0
GlyphClass: 4
Flags: HW
PickledData: "(dp1
S'org.robofab.postScriptHintData'
p2
(dp3
sS'com.typemytype.robofont.layerData'
p4
(dp5
s."
AnchorPoint: "top" 608 1085 mark 0
LayerCount: 2
Fore
SplineSet
330 1262 m 1
 34 1683 l 1
 365 1683 l 1
 509 1262 l 1
 330 1262 l 1
725 1262 m 1
 449 1683 l 1
 752 1683 l 1
 917 1262 l 1
 725 1262 l 1
EndSplineSet
EndChar

StartChar: degree
Encoding: 176 176 188
Width: 814
VWidth: 0
GlyphClass: 2
Flags: HW
PickledData: "(dp1
S'org.pippin.gimp.org.kernagic'
p2
(dp3
S'lstem'
p4
I0
sS'rstem'
p5
I0
ssS'com.typemytype.robofont.layerData'
p6
(dp7
sS'org.robofab.postScriptHintData'
p8
(dp9
s."
LayerCount: 2
Fore
SplineSet
421 1076 m 0
 486 1076 550 1122 550 1219 c 0
 550 1309 483 1356 422 1356 c 0
 353 1356 288 1309 288 1219 c 0
 288 1123 353 1076 421 1076 c 0
421 904 m 0
 200 904 100 1065 100 1220 c 0
 100 1379 204 1523 421 1523 c 0
 632 1523 740 1379 740 1220 c 0
 740 1065 636 904 421 904 c 0
EndSplineSet
EndChar

StartChar: dieresis
Encoding: 168 168 189
Width: 1155
VWidth: 0
GlyphClass: 4
Flags: HW
PickledData: "(dp1
S'org.robofab.postScriptHintData'
p2
(dp3
sS'com.typemytype.robofont.layerData'
p4
(dp5
s."
AnchorPoint: "top" 570 1082 mark 0
LayerCount: 2
Fore
SplineSet
297 1203 m 0
 191 1203 123 1268 123 1377 c 0
 123 1487 191 1554 297 1554 c 0
 401 1554 468 1487 468 1377 c 0
 468 1268 401 1203 297 1203 c 0
841 1203 m 0
 735 1203 665 1268 665 1377 c 0
 665 1487 735 1554 841 1554 c 0
 946 1554 1013 1487 1013 1377 c 0
 1013 1268 946 1203 841 1203 c 0
EndSplineSet
EndChar

StartChar: divide
Encoding: 247 247 190
Width: 1304
VWidth: 0
GlyphClass: 2
Flags: HW
PickledData: "(dp1
S'org.pippin.gimp.org.kernagic'
p2
(dp3
S'lstem'
p4
I0
sS'rstem'
p5
I0
ssS'com.typemytype.robofont.layerData'
p6
(dp7
sS'org.robofab.postScriptHintData'
p8
(dp9
s."
LayerCount: 2
Fore
SplineSet
76 719 m 1
 1196 719 l 1
 1196 485 l 1
 76 485 l 1
 76 719 l 1
477 336 m 1
 795 336 l 1
 795 15 l 1
 477 15 l 1
 477 336 l 1
477 1187 m 1
 806 1187 l 1
 806 883 l 1
 477 883 l 1
 477 1187 l 1
EndSplineSet
EndChar

StartChar: dollar
Encoding: 36 36 191
Width: 1230
VWidth: 0
GlyphClass: 2
Flags: HW
PickledData: "(dp1
S'org.pippin.gimp.org.kernagic'
p2
(dp3
S'lstem'
p4
I0
sS'rstem'
p5
I0
ssS'com.typemytype.robofont.layerData'
p6
(dp7
S'b'
(dp8
S'name'
p9
S'dollar'
p10
sS'lib'
p11
(dp12
sS'unicodes'
p13
(tsS'width'
p14
I1221
sS'contours'
p15
(tsS'components'
p16
(tsS'anchors'
p17
(tsssS'org.robofab.postScriptHintData'
p18
(dp19
s."
LayerCount: 2
Fore
SplineSet
707 -16 m 1
 984 12 1160 173 1160 424 c 0
 1160 686 1035 782 835 862 c 2
 674 927 l 1
 554 973 507 1004 507 1078 c 0
 507 1160 564 1198 624 1199 c 0
 673 1199 764 1155 794 1049 c 1
 821 1049 l 1
 1115 1182 l 1
 1092 1289 953 1442 690 1471 c 1
 690 1773 l 1
 515 1773 l 1
 521 1472 l 1
 277 1449 81 1316 81 1045 c 0
 81 816 189 709 335 649 c 2
 565 556 l 2
 704 499 716 454 716 388 c 0
 716 314 669 282 597 282 c 0
 505 282 409 378 368 443 c 1
 330 443 l 1
 65 255 l 1
 134 142 278 8 535 -16 c 1
 535 -275 l 1
 722 -275 l 1
 707 -16 l 1
EndSplineSet
EndChar

StartChar: dotaccent
Encoding: 729 729 192
Width: 692
VWidth: 0
GlyphClass: 4
Flags: HW
PickledData: "(dp1
S'org.robofab.postScriptHintData'
p2
(dp3
sS'com.typemytype.robofont.layerData'
p4
(dp5
s."
AnchorPoint: "top" 349 1082 mark 0
LayerCount: 2
Fore
SplineSet
574 1468 m 0
 574 1340 487 1256 351 1256 c 0
 215 1256 128 1340 128 1468 c 0
 128 1588 215 1671 351 1671 c 0
 487 1671 574 1588 574 1468 c 0
EndSplineSet
EndChar

StartChar: dotlessi
Encoding: 305 305 193
Width: 642
VWidth: 0
GlyphClass: 2
Flags: HW
PickledData: "(dp1
S'org.pippin.gimp.org.kernagic'
p2
(dp3
S'lstem'
p4
I0
sS'rstem'
p5
I0
ssS'com.typemytype.robofont.layerData'
p6
(dp7
sS'org.robofab.postScriptHintData'
p8
(dp9
s."
AnchorPoint: "ogonek" 360 0 basechar 0
AnchorPoint: "top" 329 1082 basechar 0
LayerCount: 2
Fore
SplineSet
118 1082 m 1
 532 1082 l 1
 532 0 l 1
 118 0 l 1
 118 1082 l 1
EndSplineSet
EndChar

StartChar: dotlessj
Encoding: 567 567 194
Width: 739
VWidth: 0
GlyphClass: 2
Flags: HW
PickledData: "(dp1
S'org.pippin.gimp.org.kernagic'
p2
(dp3
S'lstem'
p4
I0
sS'rstem'
p5
I0
ssS'com.typemytype.robofont.layerData'
p6
(dp7
sS'com.fontlab.hintData'
p8
(dp9
S'vhints'
p10
((dp11
S'position'
p12
I111
sS'width'
p13
I142
stp14
sS'hhints'
p15
((dp16
g12
I-479
sg13
I112
stp17
ssS'org.robofab.postScriptHintData'
p18
(dp19
s."
HStem: -479 112
VStem: 111 142
LayerCount: 2
Fore
SplineSet
180 1082 m 1
 593 1082 l 1
 593 -37 l 2
 593 -355 411 -426 131 -569 c 1
 34 -618 l 1
 -122 -325 l 1
 -20 -275 l 1
 154 -186 180 -142 180 -4 c 2
 180 1082 l 1
EndSplineSet
EndChar

StartChar: e
Encoding: 101 101 195
Width: 1218
VWidth: 0
GlyphClass: 2
Flags: HW
PickledData: "(dp1
S'org.pippin.gimp.org.kernagic'
p2
(dp3
S'lstem'
p4
I0
sS'rstem'
p5
I747
ssS'com.typemytype.robofont.layerData'
p6
(dp7
sS'com.fontlab.hintData'
p8
(dp9
S'hhints'
p10
((dp11
S'position'
p12
I-19
sS'width'
p13
I94
s(dp14
g12
I982
sg13
I92
stp15
ssS'org.robofab.postScriptHintData'
p16
(dp17
s."
HStem: -19 94 982 92
AnchorPoint: "bot" 673 0 basechar 0
AnchorPoint: "ogonek" 803 -9 basechar 0
AnchorPoint: "top" 631 1082 basechar 0
LayerCount: 2
Fore
SplineSet
671 -20 m 0
 297 -20 69 198 69 543 c 0
 69 884 279 1101 628 1101 c 0
 995 1101 1115 876 1128 571 c 1
 1128 561 l 2
 1128 464 1114 412 1114 412 c 1
 481 412 l 1
 498 303 591 236 717 236 c 0
 823 236 932 271 1013 324 c 1
 1032 324 l 1
 1119 123 l 1
 1037 38 863 -20 671 -20 c 0
483 624 m 1
 785 624 l 1
 785 629 l 2
 785 790 738 849 650 849 c 2
 648 849 l 2
 554 849 488 794 483 624 c 1
EndSplineSet
EndChar

StartChar: eight
Encoding: 56 56 203
Width: 1414
VWidth: 0
GlyphClass: 2
Flags: HW
PickledData: "(dp1
S'org.pippin.gimp.org.kernagic'
p2
(dp3
S'lstem'
p4
I0
sS'rstem'
p5
I0
ssS'com.typemytype.robofont.layerData'
p6
(dp7
sS'org.robofab.postScriptHintData'
p8
(dp9
s."
LayerCount: 2
Fore
SplineSet
713 -20 m 0
 338 -20 133 138 133 398 c 0
 133 587 222 732 364 783 c 1
 234 828 159 931 159 1110 c 0
 159 1350 397 1476 709 1476 c 0
 1023 1476 1258 1350 1258 1110 c 0
 1258 938 1190 832 1068 783 c 1
 1204 729 1281 595 1281 398 c 0
 1281 138 1084 -20 713 -20 c 0
713 232 m 0
 808 232 841 289 841 412 c 0
 841 542 793 650 713 683 c 1
 631 650 579 541 579 411 c 0
 579 288 618 232 713 232 c 0
713 843 m 1
 797 889 849 986 849 1084 c 0
 849 1174 799 1229 713 1229 c 0
 625 1229 568 1173 568 1084 c 0
 568 985 627 889 713 843 c 1
EndSplineSet
EndChar

StartChar: emdash
Encoding: 8212 8212 206
Width: 2273
VWidth: 0
GlyphClass: 2
Flags: HW
PickledData: "(dp1
S'org.robofab.postScriptHintData'
p2
(dp3
sS'com.typemytype.robofont.layerData'
p4
(dp5
s."
LayerCount: 2
Fore
SplineSet
60 430 m 1
 60 660 l 1
 2213 660 l 1
 2213 430 l 1
 60 430 l 1
EndSplineSet
EndChar

StartChar: endash
Encoding: 8211 8211 207
Width: 1126
VWidth: 0
GlyphClass: 2
Flags: HW
PickledData: "(dp1
S'org.pippin.gimp.org.kernagic'
p2
(dp3
S'lstem'
p4
I0
sS'rstem'
p5
I0
ssS'com.typemytype.robofont.layerData'
p6
(dp7
sS'org.robofab.postScriptHintData'
p8
(dp9
s."
LayerCount: 2
Fore
SplineSet
156 416 m 1
 156 670 l 1
 970 670 l 1
 970 416 l 1
 156 416 l 1
EndSplineSet
EndChar

StartChar: eng
Encoding: 331 331 208
Width: 1259
VWidth: 0
GlyphClass: 2
Flags: HW
PickledData: "(dp1
S'org.robofab.postScriptHintData'
p2
(dp3
sS'com.typemytype.robofont.layerData'
p4
(dp5
s."
LayerCount: 2
Fore
SplineSet
121 0 m 1
 535 0 l 1
 535 625 l 2
 535 800 597 844 653 844 c 0
 722 844 764 808 764 615 c 2
 764 -21 l 2
 764 -254 732 -277 551 -277 c 1
 584 -526 l 1
 1049 -504 1178 -368 1178 -71 c 2
 1178 677 l 2
 1178 937 1048 1101 806 1101 c 0
 640 1101 548 1022 495 932 c 1
 478 1082 l 1
 121 1082 l 1
 121 0 l 1
EndSplineSet
EndChar

StartChar: equal
Encoding: 61 61 210
Width: 1329
VWidth: 0
GlyphClass: 2
Flags: HW
PickledData: "(dp1
S'org.pippin.gimp.org.kernagic'
p2
(dp3
S'lstem'
p4
I0
sS'rstem'
p5
I0
ssS'com.typemytype.robofont.layerData'
p6
(dp7
S'b'
(dp8
S'name'
p9
S'equal'
p10
sS'lib'
p11
(dp12
sS'unicodes'
p13
(tsS'width'
p14
I1050
sS'contours'
p15
(tsS'components'
p16
(tsS'anchors'
p17
(tsssS'org.robofab.postScriptHintData'
p18
(dp19
s."
LayerCount: 2
Fore
SplineSet
84 1196 m 1
 1209 1196 l 1
 1209 957 l 1
 84 957 l 1
 84 1196 l 1
84 751 m 1
 1209 751 l 1
 1209 511 l 1
 84 511 l 1
 84 751 l 1
EndSplineSet
EndChar

StartChar: estimated
Encoding: 8494 8494 211
Width: 1147
VWidth: 0
GlyphClass: 2
Flags: HW
PickledData: "(dp1
S'org.robofab.postScriptHintData'
p2
(dp3
sS'com.typemytype.robofont.layerData'
p4
(dp5
S'b'
(dp6
S'name'
p7
S'estimated'
p8
sS'lib'
p9
(dp10
sS'unicodes'
p11
(tsS'width'
p12
I1223
sS'contours'
p13
(tsS'components'
p14
(tsS'anchors'
p15
(tsss."
LayerCount: 2
Fore
SplineSet
58 524 m 0
 58 834 281 1062 594 1062 c 0
 905 1062 1048 840 1048 504 c 1
 328 504 l 1
 329 236 388 53 610 53 c 0
 787 53 895 129 990 232 c 1
 1040 183 l 1
 942 65 812 -20 610 -20 c 0
 242 -20 58 214 58 524 c 0
880 584 m 1
 880 812 804 1002 600 1002 c 0
 433 1002 345 836 327 584 c 1
 880 584 l 1
EndSplineSet
EndChar

StartChar: eth
Encoding: 240 240 212
Width: 1150
VWidth: 0
GlyphClass: 2
Flags: HW
PickledData: "(dp1
S'org.pippin.gimp.org.kernagic'
p2
(dp3
S'lstem'
p4
I0
sS'rstem'
p5
I0
ssS'com.typemytype.robofont.layerData'
p6
(dp7
sS'org.robofab.postScriptHintData'
p8
(dp9
s."
LayerCount: 2
Fore
SplineSet
140 1462 m 1
 507 1462 l 1
 596 1371 l 1
 851 1480 l 1
 928 1259 l 1
 746 1181 l 1
 823 1083 935 974 1017 841 c 0
 1083 735 1124 608 1127 458 c 0
 1127 139 905 -25 591 -25 c 0
 278 -25 44 166 44 470 c 0
 44 753 236 941 531 941 c 1
 531 941 591 948 619 951 c 1
 587 980 510 1058 497 1072 c 1
 261 976 l 1
 187 1191 l 1
 338 1257 l 1
 140 1462 l 1
849 463 m 0
 849 627 753 722 591 722 c 0
 422 722 335 633 335 474 c 0
 335 320 436 225 597 225 c 0
 755 225 849 319 849 463 c 0
EndSplineSet
EndChar

StartChar: exclam
Encoding: 33 33 213
Width: 779
VWidth: 0
GlyphClass: 2
Flags: HW
PickledData: "(dp1
S'org.pippin.gimp.org.kernagic'
p2
(dp3
S'lstem'
p4
I0
sS'rstem'
p5
I0
ssS'com.typemytype.robofont.layerData'
p6
(dp7
sS'org.robofab.postScriptHintData'
p8
(dp9
s."
LayerCount: 2
Fore
SplineSet
326 478 m 1
 251 1315 l 1
 251 1595 l 1
 536 1595 l 1
 536 1315 l 1
 470 478 l 1
 326 478 l 1
387 -6 m 0
 292 -6 210 76 210 174 c 0
 210 275 292 352 387 352 c 0
 481 352 560 275 560 174 c 0
 560 77 481 -6 387 -6 c 0
EndSplineSet
EndChar

StartChar: f
Encoding: 102 102 215
Width: 865
VWidth: 0
GlyphClass: 2
Flags: HW
PickledData: "(dp1
S'org.pippin.gimp.org.kernagic'
p2
(dp3
S'lstem'
p4
I182
sS'rstem'
p5
I417
ssS'com.typemytype.robofont.layerData'
p6
(dp7
sS'com.fontlab.hintData'
p8
(dp9
S'vhints'
p10
((dp11
S'position'
p12
I269
sS'width'
p13
I166
stp14
sS'hhints'
p15
((dp16
g12
I952
sg13
I89
s(dp17
g12
I1358
sg13
I122
stp18
ssS'org.robofab.postScriptHintData'
p19
(dp20
s."
HStem: 952 89 1358 122
VStem: 269 166
AnchorPoint: "top" 486 1456 basechar 0
LayerCount: 2
Fore
SplineSet
575 1522 m 0
 752 1522 845 1498 882 1488 c 1
 873 1248 l 1
 790 1259 763 1261 728 1261 c 0
 635 1261 572 1229 572 1157 c 2
 572 1082 l 1
 833 1082 l 1
 833 851 l 1
 572 851 l 1
 572 0 l 1
 158 0 l 1
 158 851 l 1
 26 851 l 1
 31 1052 l 1
 158 1076 l 1
 158 1157 l 2
 158 1437 358 1522 575 1522 c 0
EndSplineSet
EndChar

StartChar: five
Encoding: 53 53 216
Width: 1414
VWidth: 0
GlyphClass: 2
Flags: HW
PickledData: "(dp1
S'org.pippin.gimp.org.kernagic'
p2
(dp3
S'lstem'
p4
I0
sS'rstem'
p5
I0
ssS'com.typemytype.robofont.layerData'
p6
(dp7
sS'org.robofab.postScriptHintData'
p8
(dp9
s."
LayerCount: 2
Fore
SplineSet
691 700 m 0
 573 700 521 661 512 579 c 1
 217 627 l 1
 286 1456 l 1
 1176 1456 l 1
 1138 1187 l 1
 595 1187 l 1
 553 900 l 1
 605 942 668 964 765 964 c 0
 1102 964 1237 716 1237 489 c 0
 1237 204 1047 -20 715 -20 c 0
 440 -20 281 43 165 212 c 1
 357 427 l 1
 379 427 l 1
 437 316 574 283 662 283 c 0
 793 283 860 356 860 509 c 0
 860 608 800 700 691 700 c 0
EndSplineSet
EndChar

StartChar: florin
Encoding: 402 402 218
Width: 1256
VWidth: 0
GlyphClass: 2
Flags: HW
PickledData: "(dp1
S'org.robofab.postScriptHintData'
p2
(dp3
s."
LayerCount: 2
Fore
SplineSet
410 1283 m 2
 462 1628 657 1784 943 1784 c 0
 1232 1784 1332 1583 1345 1310 c 1
 1184 1310 l 1
 1162 1458 1132 1569 983 1569 c 0
 974 1569 964 1569 954 1568 c 0
 867 1559 782 1513 754 1347 c 2
 696 1006 l 1
 1053 1006 l 1
 1038 937 l 1
 680 937 l 1
 572 110 l 1
 507 -290 372 -455 140 -455 c 0
 49 -455 -58 -430 -181 -383 c 1
 -146 -254 l 1
 -65 -269 -3 -280 46 -280 c 0
 175 -280 212 -202 253 96 c 1
 359 937 l 1
 111 937 l 1
 126 1006 l 1
 369 1006 l 1
 410 1283 l 2
EndSplineSet
EndChar

StartChar: foundryicon
Encoding: 65540 -1 219
Width: 1347
VWidth: 0
GlyphClass: 2
Flags: HW
PickledData: "(dp1
S'org.robofab.postScriptHintData'
p2
(dp3
s."
LayerCount: 2
Fore
SplineSet
485 405 m 1
 591 405 l 1
 591 552 l 1
 761 405 l 1
 867 405 l 1
 867 672 l 1
 761 672 l 1
 761 523 l 1
 591 672 l 1
 485 672 l 1
 485 405 l 1
280 2 m 1
 423 461 l 1
 34 755 l 1
 519 755 l 1
 669 1215 l 1
 828 755 l 1
 1313 755 l 1
 922 461 l 1
 1066 2 l 1
 669 278 l 1
 280 2 l 1
EndSplineSet
EndChar

StartChar: four
Encoding: 52 52 220
Width: 1414
VWidth: 0
GlyphClass: 2
Flags: HW
PickledData: "(dp1
S'org.pippin.gimp.org.kernagic'
p2
(dp3
S'lstem'
p4
I0
sS'rstem'
p5
I0
ssS'com.typemytype.robofont.layerData'
p6
(dp7
sS'org.robofab.postScriptHintData'
p8
(dp9
s."
LayerCount: 2
Fore
SplineSet
675 0 m 1
 675 311 l 1
 90 311 l 1
 80 550 l 1
 598 1456 l 1
 1114 1456 l 1
 1114 576 l 1
 1343 576 l 1
 1327 311 l 1
 1114 311 l 1
 1114 0 l 1
 675 0 l 1
385 569 m 1
 674 569 l 1
 674 1077 l 1
 385 569 l 1
EndSplineSet
EndChar

StartChar: fraction
Encoding: 8260 8260 221
Width: 1220
VWidth: 0
GlyphClass: 2
Flags: HW
PickledData: "(dp1
S'org.robofab.postScriptHintData'
p2
(dp3
s."
LayerCount: 2
Fore
SplineSet
21 0 m 1
 1181 1605 l 1
 1401 1605 l 1
 258 0 l 1
 21 0 l 1
EndSplineSet
EndChar

StartChar: g
Encoding: 103 103 222
Width: 1272
VWidth: 0
GlyphClass: 2
Flags: HW
PickledData: "(dp1
S'org.pippin.gimp.org.kernagic'
p2
(dp3
S'lstem'
p4
I0
sS'rstem'
p5
I0
ssS'com.typemytype.robofont.layerData'
p6
(dp7
sS'com.fontlab.hintData'
p8
(dp9
S'vhints'
p10
((dp11
S'position'
p12
I128
sS'width'
p13
I122
s(dp14
g12
I977
sg13
I125
s(dp15
g12
I977
sg13
I36
stp16
sS'hhints'
p17
((dp18
g12
I-426
sg13
I101
s(dp19
g12
I0
sg13
I93
s(dp20
g12
I982
sg13
I92
stp21
ssS'org.robofab.postScriptHintData'
p22
(dp23
s."
HStem: -426 101 0 93 982 92
VStem: 128 122 977 125 977 36
AnchorPoint: "top" 574 1082 basechar 0
LayerCount: 2
Fore
SplineSet
794 -30 m 0
 794 -13 793 6 790 26 c 2
 780 98 l 1
 736 51 654 3 499 3 c 0
 343 3 69 64 69 569 c 0
 69 970 325 1101 515 1101 c 0
 639 1101 713 1050 758 996 c 1
 756 1082 l 1
 1164 1082 l 1
 1164 -32 l 2
 1164 -381 878 -519 591 -519 c 0
 444 -519 310 -511 183 -476 c 1
 211 -223 l 1
 242 -223 l 1
 337 -249 426 -265 504 -265 c 0
 666 -265 794 -200 794 -30 c 0
621 236 m 0
 667 236 724 256 758 277 c 1
 758 789 l 1
 721 821 705 844 628 844 c 0
 589 844 481 838 481 567 c 0
 481 321 544 236 621 236 c 0
EndSplineSet
EndChar

StartChar: germandbls
Encoding: 223 223 228
Width: 1354
VWidth: 0
GlyphClass: 2
Flags: HW
PickledData: "(dp1
S'org.pippin.gimp.org.kernagic'
p2
(dp3
S'lstem'
p4
I0
sS'rstem'
p5
I0
ssS'com.typemytype.robofont.layerData'
p6
(dp7
S'b'
(dp8
S'name'
p9
S'germandbls'
p10
sS'lib'
p11
(dp12
sS'unicodes'
p13
(tsS'width'
p14
I1278
sS'contours'
p15
(tsS'components'
p16
(tsS'anchors'
p17
(tsssS'org.robofab.postScriptHintData'
p18
(dp19
s."
LayerCount: 2
Fore
SplineSet
930 -20 m 0
 843 -20 722 -4 582 49 c 1
 653 292 l 1
 684 274 748 252 797 252 c 0
 850 252 897 269 897 347 c 0
 897 524 650 515 650 706 c 0
 650 881 808 916 808 1069 c 0
 808 1149 751 1167 680 1167 c 0
 560 1167 521 1060 521 916 c 2
 521 -1 l 1
 107 -1 l 1
 107 970 l 2
 107 1267 349 1447 654 1447 c 0
 942 1447 1185 1333 1185 1073 c 0
 1185 837 965 775 965 741 c 0
 965 707 1340 663 1340 336 c 0
 1340 107 1216 -20 930 -20 c 0
EndSplineSet
EndChar

StartChar: grave
Encoding: 96 96 229
Width: 1123
VWidth: 0
GlyphClass: 4
Flags: HW
PickledData: "(dp1
S'org.robofab.postScriptHintData'
p2
(dp3
sS'com.typemytype.robofont.layerData'
p4
(dp5
s."
AnchorPoint: "top" 584 1085 mark 0
LayerCount: 2
Fore
SplineSet
429 1207 m 1
 79 1623 l 1
 483 1623 l 1
 650 1207 l 1
 429 1207 l 1
EndSplineSet
EndChar

StartChar: greater
Encoding: 62 62 230
Width: 1107
VWidth: 0
GlyphClass: 2
Flags: HW
PickledData: "(dp1
S'org.pippin.gimp.org.kernagic'
p2
(dp3
S'lstem'
p4
I0
sS'rstem'
p5
I0
ssS'com.typemytype.robofont.layerData'
p6
(dp7
S'b'
(dp8
S'name'
p9
S'greater'
p10
sS'lib'
p11
(dp12
sS'unicodes'
p13
(tsS'width'
p14
I1107
sS'contours'
p15
(tsS'components'
p16
(tsS'anchors'
p17
(tsssS'org.robofab.postScriptHintData'
p18
(dp19
s."
LayerCount: 2
Fore
SplineSet
81 1048 m 1
 81 1320 l 1
 1031 823 l 1
 1031 670 l 1
 81 201 l 1
 81 484 l 1
 653 753 l 1
 81 1048 l 1
EndSplineSet
EndChar

StartChar: greaterequal
Encoding: 8805 8805 231
Width: 1192
VWidth: 0
GlyphClass: 2
Flags: HW
PickledData: "(dp1
S'org.pippin.gimp.org.kernagic'
p2
(dp3
S'lstem'
p4
I0
sS'rstem'
p5
I0
ssS'com.typemytype.robofont.layerData'
p6
(dp7
S'b'
(dp8
S'name'
p9
S'greaterequal'
p10
sS'lib'
p11
(dp12
sS'unicodes'
p13
(tsS'width'
p14
I1192
sS'contours'
p15
(tsS'components'
p16
(tsS'anchors'
p17
(tsssS'org.robofab.postScriptHintData'
p18
(dp19
s."
LayerCount: 2
Fore
SplineSet
138 209 m 1
 138 464 l 1
 821 753 l 1
 138 1056 l 1
 138 1302 l 1
 1072 825 l 1
 1072 682 l 1
 138 209 l 1
140 1 m 1
 140 194 l 1
 1071 192 l 1
 1071 1 l 1
 140 1 l 1
EndSplineSet
EndChar

StartChar: guillemotleft
Encoding: 171 171 232
Width: 1063
VWidth: 0
GlyphClass: 2
Flags: HW
PickledData: "(dp1
S'org.pippin.gimp.org.kernagic'
p2
(dp3
S'lstem'
p4
I0
sS'rstem'
p5
I0
ssS'com.typemytype.robofont.layerData'
p6
(dp7
S'b'
(dp8
S'name'
p9
S'guillemotleft'
p10
sS'lib'
p11
(dp12
sS'unicodes'
p13
(tsS'width'
p14
I994
sS'contours'
p15
(tsS'components'
p16
(tsS'anchors'
p17
(tsssS'org.robofab.postScriptHintData'
p18
(dp19
s."
LayerCount: 2
Fore
SplineSet
353 124 m 1
 25 578 l 1
 354 1038 l 1
 553 1038 l 1
 307 581 l 1
 549 124 l 1
 353 124 l 1
806 124 m 1
 479 578 l 1
 807 1038 l 1
 1005 1038 l 1
 762 581 l 1
 1003 124 l 1
 806 124 l 1
EndSplineSet
EndChar

StartChar: guillemotright
Encoding: 187 187 233
Width: 1063
VWidth: 0
GlyphClass: 2
Flags: HW
PickledData: "(dp1
S'org.pippin.gimp.org.kernagic'
p2
(dp3
S'lstem'
p4
I0
sS'rstem'
p5
I0
ssS'com.typemytype.robofont.layerData'
p6
(dp7
sS'org.robofab.postScriptHintData'
p8
(dp9
s."
LayerCount: 2
Fore
SplineSet
248 124 m 1
 46 124 l 1
 299 577 l 1
 66 1038 l 1
 256 1038 l 1
 581 589 l 1
 248 124 l 1
679 124 m 1
 482 124 l 1
 731 577 l 1
 507 1038 l 1
 692 1038 l 1
 1017 589 l 1
 679 124 l 1
EndSplineSet
EndChar

StartChar: guilsinglleft
Encoding: 8249 8249 234
Width: 1007
VWidth: 0
GlyphClass: 2
Flags: HW
PickledData: "(dp1
S'org.robofab.postScriptHintData'
p2
(dp3
s."
LayerCount: 2
Fore
SplineSet
510 177 m 1
 242 610 l 1
 519 1058 l 1
 729 1058 l 1
 472 606 l 1
 725 177 l 1
 510 177 l 1
EndSplineSet
EndChar

StartChar: guilsinglright
Encoding: 8250 8250 235
Width: 766
VWidth: 0
GlyphClass: 2
Flags: HW
PickledData: "(dp1
S'org.pippin.gimp.org.kernagic'
p2
(dp3
S'lstem'
p4
I0
sS'rstem'
p5
I0
ssS'com.typemytype.robofont.layerData'
p6
(dp7
S'b'
(dp8
S'name'
p9
S'guilsinglright'
p10
sS'lib'
p11
(dp12
sS'unicodes'
p13
(tsS'width'
p14
I766
sS'contours'
p15
(tsS'components'
p16
(tsS'anchors'
p17
(tsssS'org.robofab.postScriptHintData'
p18
(dp19
s."
LayerCount: 2
Fore
SplineSet
127 177 m 1
 388 594 l 1
 150 989 l 1
 361 989 l 1
 615 590 l 1
 340 177 l 1
 127 177 l 1
EndSplineSet
EndChar

StartChar: h
Encoding: 104 104 236
Width: 1292
VWidth: 0
GlyphClass: 2
Flags: HW
PickledData: "(dp1
S'org.pippin.gimp.org.kernagic'
p2
(dp3
S'lstem'
p4
I0
sS'rstem'
p5
I0
ssS'com.typemytype.robofont.layerData'
p6
(dp7
sS'com.fontlab.hintData'
p8
(dp9
S'vhints'
p10
((dp11
S'position'
p12
I193
sS'width'
p13
I122
s(dp14
g12
I910
sg13
I122
stp15
sS'hhints'
p16
((dp17
g12
I982
sg13
I92
stp18
ssS'org.robofab.postScriptHintData'
p19
(dp20
s."
HStem: 982 92
VStem: 193 122 910 122
AnchorPoint: "mid" 441 1240 basechar 0
AnchorPoint: "top" 496 1560 basechar 0
LayerCount: 2
Fore
SplineSet
128 0 m 1
 128 1540 l 1
 542 1560 l 1
 542 1162 l 1
 536 929 l 1
 586 1029 676 1101 836 1101 c 0
 1080 1101 1184 936 1184 674 c 2
 1184 0 l 1
 771 0 l 1
 771 616 l 2
 771 804 731 844 660 844 c 0
 607 844 542 804 542 628 c 2
 542 0 l 1
 128 0 l 1
EndSplineSet
EndChar

StartChar: hungarumlaut
Encoding: 733 733 239
Width: 1034
VWidth: 0
GlyphClass: 4
Flags: HW
PickledData: "(dp1
S'org.robofab.postScriptHintData'
p2
(dp3
sS'com.typemytype.robofont.layerData'
p4
(dp5
s."
AnchorPoint: "top" 419 1085 mark 0
LayerCount: 2
Fore
SplineSet
111 1262 m 1
 276 1683 l 1
 579 1683 l 1
 302 1262 l 1
 111 1262 l 1
519 1262 m 1
 663 1683 l 1
 994 1683 l 1
 698 1262 l 1
 519 1262 l 1
EndSplineSet
EndChar

StartChar: hyphen
Encoding: 45 45 240
Width: 990
VWidth: 0
GlyphClass: 4
Flags: HW
PickledData: "(dp1
S'org.pippin.gimp.org.kernagic'
p2
(dp3
S'lstem'
p4
I0
sS'rstem'
p5
I0
ssS'com.typemytype.robofont.layerData'
p6
(dp7
sS'org.robofab.postScriptHintData'
p8
(dp9
s."
AnchorPoint: "mid" 504 510 mark 0
LayerCount: 2
Fore
SplineSet
134 392 m 1
 134 640 l 1
 869 640 l 1
 869 392 l 1
 134 392 l 1
EndSplineSet
EndChar

StartChar: infinity
Encoding: 8734 8734 252
Width: 1821
VWidth: 0
GlyphClass: 2
Flags: HW
PickledData: "(dp1
S'org.pippin.gimp.org.kernagic'
p2
(dp3
S'lstem'
p4
I0
sS'rstem'
p5
I0
ssS'com.typemytype.robofont.layerData'
p6
(dp7
S'b'
(dp8
S'name'
p9
S'infinity'
p10
sS'lib'
p11
(dp12
sS'unicodes'
p13
(tsS'width'
p14
I1647
sS'contours'
p15
(tsS'components'
p16
(tsS'anchors'
p17
(tsssS'org.robofab.postScriptHintData'
p18
(dp19
s."
LayerCount: 2
Fore
SplineSet
920 771 m 1
 1037 935 1167 1053 1345 1053 c 0
 1575 1053 1705 888 1705 663 c 0
 1705 426 1546 259 1343 259 c 0
 1187 259 1060 351 920 540 c 1
 798 375 664 259 494 259 c 0
 264 259 128 454 128 681 c 0
 128 887 289 1053 490 1053 c 0
 664 1053 795 940 920 771 c 1
743 658 m 1
 666 764 585 825 489 825 c 0
 390 825 327 749 327 658 c 0
 327 576 397 490 496 490 c 0
 581 490 665 555 743 658 c 1
1498 686 m 0
 1498 759 1434 825 1341 825 c 0
 1255 825 1177 758 1103 660 c 1
 1195 541 1262 490 1345 490 c 0
 1450 490 1498 563 1498 686 c 0
EndSplineSet
EndChar

StartChar: integral
Encoding: 8747 8747 253
Width: 671
VWidth: 0
GlyphClass: 2
Flags: HW
PickledData: "(dp1
S'org.pippin.gimp.org.kernagic'
p2
(dp3
S'lstem'
p4
I0
sS'rstem'
p5
I0
ssS'com.typemytype.robofont.layerData'
p6
(dp7
S'b'
(dp8
S'name'
p9
S'integral'
p10
sS'lib'
p11
(dp12
sS'unicodes'
p13
(tsS'width'
p14
I994
sS'contours'
p15
(tsS'components'
p16
(tsS'anchors'
p17
(tsssS'org.robofab.postScriptHintData'
p18
(dp19
s."
LayerCount: 2
Fore
SplineSet
118 1197 m 2
 118 1487 236 1673 471 1673 c 0
 530 1673 595 1661 676 1642 c 1
 676 1412 l 1
 650 1413 625 1416 605 1416 c 0
 496 1416 464 1366 464 1206 c 2
 464 -37 l 2
 464 -332 322 -529 77 -529 c 0
 22 -529 -44 -520 -123 -498 c 1
 -123 -196 l 1
 -87 -200 -54 -207 -24 -207 c 0
 -15 -207 -3 -208 9 -208 c 0
 57 -208 118 -193 118 -45 c 2
 118 1197 l 2
EndSplineSet
EndChar

StartChar: k
Encoding: 107 107 258
Width: 1254
VWidth: 0
GlyphClass: 2
Flags: HW
PickledData: "(dp1
S'org.pippin.gimp.org.kernagic'
p2
(dp3
S'lstem'
p4
I0
sS'rstem'
p5
I671
ssS'com.typemytype.robofont.layerData'
p6
(dp7
sS'org.robofab.postScriptHintData'
p8
(dp9
s."
AnchorPoint: "bot" 680 0 basechar 0
LayerCount: 2
Fore
SplineSet
128 0 m 1
 128 1540 l 1
 542 1560 l 1
 542 862 l 1
 537 748 l 1
 812 1082 l 1
 1236 1082 l 1
 1236 1065 l 1
 878 619 l 1
 1245 33 l 1
 1245 0 l 1
 836 0 l 1
 567 465 l 1
 542 438 l 1
 542 0 l 1
 128 0 l 1
EndSplineSet
EndChar

StartChar: kgreenlandic
Encoding: 312 312 260
Width: 1219
VWidth: 0
GlyphClass: 2
Flags: HW
PickledData: "(dp1
S'org.robofab.postScriptHintData'
p2
(dp3
s."
LayerCount: 2
Fore
SplineSet
95 0 m 1
 95 1082 l 1
 401 1082 l 1
 401 864 l 1
 395 650 l 1
 736 1082 l 1
 1092 1082 l 1
 1092 1065 l 1
 700 587 l 1
 1112 2 l 1
 1112 0 l 1
 756 0 l 1
 462 419 l 1
 401 352 l 1
 401 0 l 1
 95 0 l 1
EndSplineSet
EndChar

StartChar: l
Encoding: 108 108 261
Width: 809
VWidth: 0
GlyphClass: 2
Flags: HW
PickledData: "(dp1
S'org.pippin.gimp.org.kernagic'
p2
(dp3
S'lstem'
p4
I0
sS'rstem'
p5
I238
ssS'com.typemytype.robofont.layerData'
p6
(dp7
sS'com.fontlab.hintData'
p8
(dp9
S'vhints'
p10
((dp11
S'position'
p12
I193
sS'width'
p13
I122
stp14
sS'hhints'
p15
((dp16
g12
I-11
sg13
I87
stp17
ssS'org.robofab.postScriptHintData'
p18
(dp19
s."
HStem: -11 87
VStem: 193 122
AnchorPoint: "mid" 331 898 basechar 0
AnchorPoint: "top" 311 1571 basechar 0
LayerCount: 2
Fore
SplineSet
677 -10 m 2
 650 -11 623 -12 598 -12 c 0
 247 -12 123 107 123 376 c 2
 123 1540 l 1
 537 1560 l 1
 537 335 l 2
 537 314 557 264 622 259 c 2
 793 247 l 1
 781 -6 l 1
 677 -10 l 2
EndSplineSet
EndChar

StartChar: less
Encoding: 60 60 266
Width: 1107
VWidth: 0
GlyphClass: 2
Flags: HW
PickledData: "(dp1
S'org.pippin.gimp.org.kernagic'
p2
(dp3
S'lstem'
p4
I0
sS'rstem'
p5
I0
ssS'com.typemytype.robofont.layerData'
p6
(dp7
S'b'
(dp8
S'name'
p9
S'less'
p10
sS'lib'
p11
(dp12
sS'unicodes'
p13
(tsS'width'
p14
I1107
sS'contours'
p15
(tsS'components'
p16
(tsS'anchors'
p17
(tsssS'org.robofab.postScriptHintData'
p18
(dp19
s."
LayerCount: 2
Fore
SplineSet
998 202 m 1
 49 669 l 1
 49 822 l 1
 998 1321 l 1
 998 1049 l 1
 428 753 l 1
 998 485 l 1
 998 202 l 1
EndSplineSet
EndChar

StartChar: lessequal
Encoding: 8804 8804 267
Width: 1192
VWidth: 0
GlyphClass: 2
Flags: HW
PickledData: "(dp1
S'org.robofab.postScriptHintData'
p2
(dp3
sS'com.typemytype.robofont.layerData'
p4
(dp5
s."
LayerCount: 2
Fore
SplineSet
1054 349 m 1
 127 750 l 1
 127 898 l 1
 1060 1300 l 1
 1060 1054 l 1
 432 827 l 1
 1054 603 l 1
 1054 349 l 1
108 -10 m 1
 108 178 l 1
 1050 180 l 1
 1050 -10 l 1
 108 -10 l 1
EndSplineSet
EndChar

StartChar: logicalnot
Encoding: 172 172 268
Width: 1180
VWidth: 0
GlyphClass: 2
Flags: HW
PickledData: "(dp1
S'org.pippin.gimp.org.kernagic'
p2
(dp3
S'lstem'
p4
I0
sS'rstem'
p5
I0
ssS'com.typemytype.robofont.layerData'
p6
(dp7
sS'org.robofab.postScriptHintData'
p8
(dp9
s."
LayerCount: 2
Fore
SplineSet
90 868 m 1
 1108 868 l 1
 1108 248 l 1
 867 248 l 1
 867 625 l 1
 90 625 l 1
 90 868 l 1
EndSplineSet
EndChar

StartChar: lozenge
Encoding: 9674 9674 269
Width: 1233
VWidth: 0
GlyphClass: 2
Flags: HW
PickledData: "(dp1
S'org.pippin.gimp.org.kernagic'
p2
(dp3
S'lstem'
p4
I0
sS'rstem'
p5
I0
ssS'com.typemytype.robofont.layerData'
p6
(dp7
S'b'
(dp8
S'name'
p9
S'lozenge'
p10
sS'lib'
p11
(dp12
sS'unicodes'
p13
(tsS'width'
p14
I1164
sS'contours'
p15
(tsS'components'
p16
(tsS'anchors'
p17
(tsssS'org.robofab.postScriptHintData'
p18
(dp19
s."
LayerCount: 2
Fore
SplineSet
542 1505 m 1
 692 1505 l 1
 1142 727 l 1
 681 -45 l 1
 535 -45 l 1
 88 727 l 1
 542 1505 l 1
945 731 m 1
 690 1220 869 802 617 1297 c 1
 352 807 547 1222 285 729 c 1
 540 237 339 655 599 165 c 1
 863 659 682 237 945 731 c 1
EndSplineSet
EndChar

StartChar: m
Encoding: 109 109 271
Width: 1938
VWidth: 0
GlyphClass: 2
Flags: HW
PickledData: "(dp1
S'org.pippin.gimp.org.kernagic'
p2
(dp3
S'lstem'
p4
I0
sS'rstem'
p5
I0
ssS'com.typemytype.robofont.layerData'
p6
(dp7
sS'com.fontlab.hintData'
p8
(dp9
S'vhints'
p10
((dp11
S'position'
p12
I193
sS'width'
p13
I122
s(dp14
g12
I193
sg13
I98
s(dp15
g12
I845
sg13
I122
s(dp16
g12
I1483
sg13
I122
stp17
sS'hhints'
p18
((dp19
g12
I982
sg13
I92
stp20
ssS'org.robofab.postScriptHintData'
p21
(dp22
s."
HStem: 982 92
VStem: 193 122 193 98 845 122 1483 122
AnchorPoint: "top" 1102 1082 basechar 0
LayerCount: 2
Fore
SplineSet
117 0 m 1
 117 1082 l 1
 473 1082 l 1
 492 915 l 1
 543 1009 633 1101 808 1101 c 0
 930 1101 1065 1066 1137 914 c 1
 1185 1007 1275 1101 1457 1101 c 0
 1703 1101 1831 934 1831 669 c 2
 1831 0 l 1
 1417 0 l 1
 1417 619 l 2
 1417 816 1371 844 1303 844 c 0
 1230 844 1178 759 1180 680 c 1
 1181 682 1181 634 1181 634 c 1
 1181 0 l 1
 767 0 l 1
 767 625 l 2
 767 806 727 844 654 844 c 0
 590 844 530 799 530 636 c 0
 530 424 530 212 530 0 c 1
 117 0 l 1
EndSplineSet
EndChar

StartChar: macron
Encoding: 175 175 272
Width: 1007
VWidth: 0
GlyphClass: 4
Flags: HW
PickledData: "(dp1
S'org.robofab.postScriptHintData'
p2
(dp3
sS'com.typemytype.robofont.layerData'
p4
(dp5
s."
AnchorPoint: "mid" 495 1323 mark 0
AnchorPoint: "top" 502 1085 mark 0
LayerCount: 2
Fore
SplineSet
127 1247 m 1
 127 1416 l 1
 881 1416 l 1
 881 1247 l 1
 127 1247 l 1
EndSplineSet
EndChar

StartChar: minus
Encoding: 8722 8722 274
Width: 1233
VWidth: 0
GlyphClass: 2
Flags: HW
PickledData: "(dp1
S'org.pippin.gimp.org.kernagic'
p2
(dp3
S'lstem'
p4
I0
sS'rstem'
p5
I0
ssS'com.typemytype.robofont.layerData'
p6
(dp7
sS'org.robofab.postScriptHintData'
p8
(dp9
s."
LayerCount: 2
Fore
SplineSet
90 666 m 1
 1156 666 l 1
 1156 437 l 1
 90 437 l 1
 90 666 l 1
EndSplineSet
EndChar

StartChar: multiply
Encoding: 215 215 275
Width: 994
VWidth: 0
GlyphClass: 2
Flags: HW
PickledData: "(dp1
S'org.pippin.gimp.org.kernagic'
p2
(dp3
S'lstem'
p4
I0
sS'rstem'
p5
I0
ssS'com.typemytype.robofont.layerData'
p6
(dp7
sS'org.robofab.postScriptHintData'
p8
(dp9
s."
LayerCount: 2
Fore
SplineSet
86 743 m 1
 242 911 l 1
 507 648 l 1
 768 912 l 1
 926 745 l 1
 673 476 l 1
 760 385 927 220 927 220 c 1
 764 45 l 1
 507 303 l 1
 247 42 l 1
 90 219 l 1
 340 476 l 1
 86 743 l 1
EndSplineSet
EndChar

StartChar: n
Encoding: 110 110 276
Width: 1286
VWidth: 0
GlyphClass: 2
Flags: HW
PickledData: "(dp1
S'org.pippin.gimp.org.kernagic'
p2
(dp3
S'lstem'
p4
I0
sS'rstem'
p5
I0
ssS'com.typemytype.robofont.layerData'
p6
(dp7
sS'com.fontlab.hintData'
p8
(dp9
S'vhints'
p10
((dp11
S'position'
p12
I193
sS'width'
p13
I122
s(dp14
g12
I903
sg13
I122
stp15
sS'hhints'
p16
((dp17
g12
I0
sg13
I22
s(dp18
g12
I982
sg13
I92
s(dp19
g12
I1034
sg13
I21
stp20
ssS'org.robofab.postScriptHintData'
p21
(dp22
s."
HStem: 0 22 982 92 1034 21
VStem: 193 122 903 122
AnchorPoint: "bot" 669 0 basechar 0
AnchorPoint: "top" 704 1082 basechar 0
LayerCount: 2
Fore
SplineSet
121 0 m 1
 121 1082 l 1
 478 1082 l 1
 495 932 l 1
 548 1022 640 1101 806 1101 c 0
 1048 1101 1178 937 1178 677 c 2
 1178 0 l 1
 764 0 l 1
 764 615 l 2
 764 808 722 844 653 844 c 0
 597 844 535 800 535 625 c 2
 535 0 l 1
 121 0 l 1
EndSplineSet
EndChar

StartChar: nine
Encoding: 57 57 281
Width: 1414
VWidth: 0
GlyphClass: 2
Flags: HW
PickledData: "(dp1
S'org.pippin.gimp.org.kernagic'
p2
(dp3
S'lstem'
p4
I0
sS'rstem'
p5
I0
ssS'com.typemytype.robofont.layerData'
p6
(dp7
sS'org.robofab.postScriptHintData'
p8
(dp9
s."
LayerCount: 2
Fore
SplineSet
318 0 m 1
 318 34 l 1
 592 420 l 1
 729 585 l 1
 689 570 638 556 585 556 c 0
 390 556 141 676 141 1008 c 0
 141 1290 356 1476 718 1476 c 0
 1086 1476 1298 1279 1298 984 c 0
 1298 822 1245 711 1164 592 c 2
 760 0 l 1
 318 0 l 1
720 773 m 0
 826 773 875 866 875 992 c 0
 875 1122 812 1196 716 1196 c 0
 621 1196 559 1122 559 992 c 0
 559 855 624 773 720 773 c 0
EndSplineSet
EndChar

StartChar: notequal
Encoding: 8800 8800 282
Width: 1219
VWidth: 0
GlyphClass: 2
Flags: HW
PickledData: "(dp1
S'org.pippin.gimp.org.kernagic'
p2
(dp3
S'lstem'
p4
I0
sS'rstem'
p5
I0
ssS'com.typemytype.robofont.layerData'
p6
(dp7
S'b'
(dp8
S'name'
p9
S'notequal'
p10
sS'lib'
p11
(dp12
sS'unicodes'
p13
(tsS'width'
p14
I1079
sS'contours'
p15
(tsS'components'
p16
(tsS'anchors'
p17
(tsssS'org.robofab.postScriptHintData'
p18
(dp19
s."
LayerCount: 2
Fore
SplineSet
412 39 m 1
 201 72 l 1
 321 304 l 1
 69 304 l 1
 56 520 l 1
 419 520 l 1
 506 697 l 1
 69 697 l 1
 52 927 l 1
 601 927 l 1
 732 1173 l 1
 944 1142 l 1
 830 927 l 1
 1090 927 l 1
 1107 695 l 1
 730 695 l 1
 643 519 l 1
 1091 519 l 1
 1107 304 l 1
 543 304 l 1
 412 39 l 1
EndSplineSet
EndChar

StartChar: numbersign
Encoding: 35 35 284
Width: 1095
VWidth: 0
GlyphClass: 2
Flags: HW
PickledData: "(dp1
S'org.pippin.gimp.org.kernagic'
p2
(dp3
S'lstem'
p4
I0
sS'rstem'
p5
I0
ssS'com.typemytype.robofont.layerData'
p6
(dp7
sS'org.robofab.postScriptHintData'
p8
(dp9
s."
LayerCount: 2
Fore
SplineSet
148 7 m 1
 222 439 l 1
 63 439 l 1
 84 582 l 1
 247 582 l 1
 304 933 l 1
 114 933 l 1
 134 1082 l 1
 328 1082 l 1
 384 1439 l 1
 579 1439 l 1
 520 1082 l 1
 715 1082 l 1
 770 1439 l 1
 970 1439 l 1
 911 1082 l 1
 1043 1082 l 1
 1022 933 l 1
 886 933 l 1
 832 582 l 1
 965 582 l 1
 948 439 l 1
 807 439 l 1
 730 7 l 1
 534 7 l 1
 609 439 l 1
 414 439 l 1
 341 7 l 1
 148 7 l 1
442 582 m 1
 632 582 l 1
 689 933 l 1
 497 933 l 1
 442 582 l 1
EndSplineSet
EndChar

StartChar: o
Encoding: 111 111 285
Width: 1269
VWidth: 0
GlyphClass: 2
Flags: HW
PickledData: "(dp1
S'org.pippin.gimp.org.kernagic'
p2
(dp3
S'lstem'
p4
I0
sS'rstem'
p5
I0
ssS'com.typemytype.robofont.guides'
p6
((dp7
S'y'
I1093
sS'x'
I582
sS'magnetic'
p8
I5
sS'angle'
p9
F90
sS'isGlobal'
p10
I00
stp11
sS'com.typemytype.robofont.layerData'
p12
(dp13
sS'com.fontlab.hintData'
p14
(dp15
S'vhints'
p16
((dp17
S'position'
p18
I128
sS'width'
p19
I120
s(dp20
g18
I982
sg19
I120
stp21
sS'hhints'
p22
((dp23
g18
I-19
sg19
I92
s(dp24
g18
I982
sg19
I92
stp25
ssS'org.robofab.postScriptHintData'
p26
(dp27
s."
HStem: -19 92 982 92
VStem: 128 120 982 120
AnchorPoint: "ogonek" 651 0 basechar 0
AnchorPoint: "top" 636 1082 basechar 0
LayerCount: 2
Fore
SplineSet
635 236 m 0
 724 236 789 312 789 546 c 0
 789 774 728 844 635 844 c 0
 541 844 480 774 480 546 c 0
 480 309 544 236 635 236 c 0
635 -22 m 0
 287 -22 69 210 69 546 c 0
 69 871 291 1101 635 1101 c 0
 978 1101 1200 871 1200 546 c 0
 1200 210 982 -22 635 -22 c 0
EndSplineSet
EndChar

StartChar: oe
Encoding: 339 339 290
Width: 1824
VWidth: 0
GlyphClass: 2
Flags: HW
PickledData: "(dp1
S'org.pippin.gimp.org.kernagic'
p2
(dp3
S'lstem'
p4
I0
sS'rstem'
p5
I0
ssS'com.typemytype.robofont.layerData'
p6
(dp7
S'b'
(dp8
S'name'
p9
S'oe'
p10
sS'lib'
p11
(dp12
sS'unicodes'
p13
(tsS'width'
p14
F1915.3599999999999
sS'contours'
p15
(tsS'components'
p16
(tsS'anchors'
p17
(tsssS'org.robofab.postScriptHintData'
p18
(dp19
s."
LayerCount: 2
Fore
SplineSet
1621 317 m 1
 1635 317 l 1
 1721 118 l 1
 1674 52 1517 -16 1333 -16 c 0
 1165 -16 1020 50 923 137 c 1
 834 59 703 -15 562 -15 c 0
 255 -15 48 204 48 544 c 0
 48 877 258 1094 562 1094 c 0
 704 1094 851 1004 926 924 c 1
 1002 1004 1136 1094 1274 1094 c 0
 1578 1094 1712 872 1725 562 c 1
 1725 546 l 2
 1725 452 1717 411 1717 411 c 1
 1081 411 l 1
 1121 251 1254 229 1345 229 c 0
 1456 229 1602 273 1621 317 c 1
562 229 m 0
 697 229 768 314 768 546 c 0
 768 770 698 851 562 851 c 0
 425 851 356 770 356 546 c 0
 356 314 426 229 562 229 c 0
1087 612 m 1
 1450 612 l 1
 1436 815 1374 865 1290 865 c 0
 1204 865 1093 809 1087 612 c 1
EndSplineSet
EndChar

StartChar: ogonek
Encoding: 731 731 291
Width: 766
VWidth: 0
GlyphClass: 4
Flags: HW
PickledData: "(dp1
S'org.pippin.gimp.org.kernagic'
p2
(dp3
S'lstem'
p4
I0
sS'rstem'
p5
I0
ssS'com.typemytype.robofont.layerData'
p6
(dp7
sS'org.robofab.postScriptHintData'
p8
(dp9
s."
AnchorPoint: "ogonek" 478 0 mark 0
LayerCount: 2
Fore
SplineSet
454 -456 m 0
 346 -456 236 -397 236 -257 c 0
 236 -114 349 -40 417 4 c 1
 549 4 l 1
 460 -68 445 -146 445 -200 c 0
 445 -229 470 -274 510 -274 c 0
 574 -274 641 -243 652 -235 c 1
 662 -413 l 1
 590 -440 525 -456 454 -456 c 0
EndSplineSet
EndChar

StartChar: one
Encoding: 49 49 295
Width: 1414
VWidth: 0
GlyphClass: 2
Flags: HW
PickledData: "(dp1
S'org.pippin.gimp.org.kernagic'
p2
(dp3
S'lstem'
p4
I0
sS'rstem'
p5
I0
ssS'com.typemytype.robofont.layerData'
p6
(dp7
sS'org.robofab.postScriptHintData'
p8
(dp9
s."
LayerCount: 2
Fore
SplineSet
192 0 m 1
 192 286 l 1
 558 286 l 1
 558 1092 l 1
 451 1048 307 1001 189 988 c 1
 189 1256 l 1
 340 1300 517 1372 627 1456 c 1
 1007 1456 l 1
 1007 286 l 1
 1327 286 l 1
 1327 0 l 1
 192 0 l 1
EndSplineSet
EndChar

StartChar: onehalf
Encoding: 189 189 296
Width: 2020
VWidth: 0
GlyphClass: 2
Flags: HW
PickledData: "(dp1
S'org.pippin.gimp.org.kernagic'
p2
(dp3
S'lstem'
p4
I0
sS'rstem'
p5
I0
ssS'com.typemytype.robofont.layerData'
p6
(dp7
sS'org.robofab.postScriptHintData'
p8
(dp9
s."
LayerCount: 2
Fore
SplineSet
1322 0 m 1
 1280 157 l 1
 1612 475 l 2
 1653 513 1683 570 1683 613 c 0
 1683 669 1637 708 1577 708 c 0
 1495 708 1400 658 1348 595 c 1
 1233 718 l 1
 1301 796 1418 889 1585 889 c 0
 1851 889 1911 728 1911 605 c 0
 1911 538 1870 429 1745 324 c 2
 1555 163 l 1
 1905 163 l 1
 1899 0 l 1
 1322 0 l 1
163 602 m 1
 163 755 l 1
 323 755 l 1
 323 1319 l 1
 288 1303 165 1242 155 1242 c 0
 154 1242 154 1243 154 1243 c 1
 154 1398 l 1
 213 1428 358 1511 380 1518 c 1
 551 1518 l 1
 551 755 l 1
 694 755 l 1
 694 602 l 1
 163 602 l 1
408 0 m 1
 1415 1518 l 1
 1645 1518 l 1
 637 0 l 1
 408 0 l 1
EndSplineSet
EndChar

StartChar: onequarter
Encoding: 188 188 297
Width: 1563
VWidth: 0
GlyphClass: 2
Flags: HW
PickledData: "(dp1
S'org.pippin.gimp.org.kernagic'
p2
(dp3
S'lstem'
p4
I0
sS'rstem'
p5
I0
ssS'com.typemytype.robofont.layerData'
p6
(dp7
sS'org.robofab.postScriptHintData'
p8
(dp9
s."
LayerCount: 2
Fore
SplineSet
109 602 m 1
 109 794 l 1
 268 794 l 1
 268 1282 l 1
 233 1268 97 1207 89 1207 c 1
 89 1271 89 1334 89 1398 c 1
 148 1426 278 1511 301 1516 c 1
 471 1516 l 1
 471 794 l 1
 606 794 l 1
 606 602 l 1
 109 602 l 1
1340 0 m 1
 1340 174 l 1
 986 174 l 1
 986 345 l 1
 1330 882 l 1
 1526 882 l 1
 1526 333 l 1
 1639 333 l 1
 1616 174 l 1
 1527 174 l 1
 1527 0 l 1
 1340 0 l 1
271 0 m 1
 1301 1516 l 1
 1543 1516 l 1
 523 0 l 1
 271 0 l 1
1194 333 m 1
 1341 333 l 1
 1341 629 l 1
 1194 333 l 1
EndSplineSet
EndChar

StartChar: ordmasculine
Encoding: 186 186 299
Width: 965
VWidth: 0
GlyphClass: 2
Flags: HW
PickledData: "(dp1
S'org.pippin.gimp.org.kernagic'
p2
(dp3
S'lstem'
p4
I0
sS'rstem'
p5
I0
ssS'com.typemytype.robofont.layerData'
p6
(dp7
S'b'
(dp8
S'name'
p9
S'ordmasculine'
p10
sS'lib'
p11
(dp12
sS'unicodes'
p13
(tsS'width'
p14
I965
sS'contours'
p15
(tsS'components'
p16
(tsS'anchors'
p17
(tsssS'org.robofab.postScriptHintData'
p18
(dp19
s."
LayerCount: 2
Fore
SplineSet
95 1146 m 0
 95 1383 231 1575 480 1575 c 0
 736 1575 865 1386 865 1146 c 0
 865 910 718 718 480 718 c 0
 231 718 95 909 95 1146 c 0
637 1143 m 0
 637 1303 580 1370 480 1370 c 0
 384 1370 330 1307 330 1146 c 0
 330 988 383 923 480 923 c 0
 586 923 637 987 637 1143 c 0
EndSplineSet
EndChar

StartChar: oslash
Encoding: 248 248 300
Width: 1269
VWidth: 0
GlyphClass: 2
Flags: HW
PickledData: "(dp1
S'org.pippin.gimp.org.kernagic'
p2
(dp3
S'lstem'
p4
I0
sS'rstem'
p5
I0
ssS'com.typemytype.robofont.layerData'
p6
(dp7
sS'org.robofab.postScriptHintData'
p8
(dp9
s."
LayerCount: 2
Fore
SplineSet
245 -126 m 1
 326 -182 l 1
 428 9 l 1
 490 -11 560 -22 635 -22 c 0
 982 -22 1200 210 1200 546 c 0
 1200 749 1113 915 965 1011 c 1
 1073 1212 l 1
 987 1267 l 1
 875 1057 l 1
 804 1085 724 1101 635 1101 c 0
 291 1101 69 871 69 546 c 0
 69 320 168 141 338 48 c 1
 245 -126 l 1
781 668 m 1
 786 634 789 593 789 546 c 0
 789 312 724 236 635 236 c 0
 608 236 583 243 562 258 c 1
 781 668 l 1
736 796 m 1
 501 355 l 1
 487 401 480 464 480 546 c 0
 480 774 541 844 635 844 c 0
 676 844 710 830 736 796 c 1
EndSplineSet
EndChar

StartChar: p
Encoding: 112 112 303
Width: 1290
VWidth: 0
GlyphClass: 2
Flags: HW
PickledData: "(dp1
S'org.pippin.gimp.org.kernagic'
p2
(dp3
S'lstem'
p4
I0
sS'rstem'
p5
I0
ssS'com.typemytype.robofont.layerData'
p6
(dp7
sS'com.fontlab.hintData'
p8
(dp9
S'vhints'
p10
((dp11
S'position'
p12
I193
sS'width'
p13
I122
s(dp14
g12
I193
sg13
I97
s(dp15
g12
I1009
sg13
I122
stp16
sS'hhints'
p17
((dp18
g12
I-19
sg13
I92
s(dp19
g12
I982
sg13
I92
stp20
ssS'org.robofab.postScriptHintData'
p21
(dp22
s."
HStem: -19 92 982 92
VStem: 193 122 193 97 1009 122
AnchorPoint: "top" 659 1082 basechar 0
LayerCount: 2
Fore
SplineSet
121 -482 m 1
 121 1082 l 1
 490 1082 l 1
 496 930 l 1
 544 1026 635 1101 787 1101 c 0
 1074 1101 1216 858 1216 552 c 0
 1216 218 1081 -20 782 -20 c 0
 651 -20 569 42 523 106 c 1
 527 -52 l 1
 527 -482 l 1
 121 -482 l 1
663 236 m 0
 717 236 806 258 806 552 c 0
 806 810 730 844 676 844 c 0
 625 844 568 829 530 802 c 1
 530 302 l 1
 555 273 587 236 663 236 c 0
EndSplineSet
EndChar

StartChar: paragraph
Encoding: 182 182 304
Width: 1276
VWidth: 0
GlyphClass: 2
Flags: HW
PickledData: "(dp1
S'org.pippin.gimp.org.kernagic'
p2
(dp3
S'lstem'
p4
I0
sS'rstem'
p5
I0
ssS'com.typemytype.robofont.layerData'
p6
(dp7
sS'org.robofab.postScriptHintData'
p8
(dp9
s."
LayerCount: 2
Fore
SplineSet
715 1296 m 1
 715 -270 l 1
 521 -270 l 1
 521 657 l 1
 233 657 90 836 90 1038 c 0
 90 1344 252 1456 692 1456 c 2
 1120 1456 l 1
 1120 -270 l 1
 926 -270 l 1
 926 1296 l 1
 715 1296 l 1
EndSplineSet
EndChar

StartChar: parenleft
Encoding: 40 40 305
Width: 906
VWidth: 0
GlyphClass: 2
Flags: HW
PickledData: "(dp1
S'org.pippin.gimp.org.kernagic'
p2
(dp3
S'lstem'
p4
I0
sS'rstem'
p5
I0
ssS'com.typemytype.robofont.layerData'
p6
(dp7
S'b'
(dp8
S'name'
p9
S'parenright'
p10
sS'lib'
p11
(dp12
sS'unicodes'
p13
(tsS'width'
p14
I766
sS'contours'
p15
(tsS'components'
p16
(tsS'anchors'
p17
(tsssS'org.robofab.postScriptHintData'
p18
(dp19
s."
LayerCount: 2
Fore
SplineSet
206 640 m 0
 206 1015 352 1445 496 1597 c 1
 775 1597 l 1
 775 1556 l 1
 653 1455 489 1197 489 640 c 0
 489 85 653 -186 775 -287 c 1
 775 -315 l 1
 496 -315 l 1
 352 -163 206 266 206 640 c 0
EndSplineSet
EndChar

StartChar: parenright
Encoding: 41 41 306
Width: 906
VWidth: 0
GlyphClass: 2
Flags: HW
PickledData: "(dp1
S'org.pippin.gimp.org.kernagic'
p2
(dp3
S'lstem'
p4
I0
sS'rstem'
p5
I0
ssS'com.typemytype.robofont.layerData'
p6
(dp7
S'b'
(dp8
S'name'
p9
S'parenright'
p10
sS'lib'
p11
(dp12
sS'unicodes'
p13
(tsS'width'
p14
I766
sS'contours'
p15
(tsS'components'
p16
(tsS'anchors'
p17
(tsssS'org.robofab.postScriptHintData'
p18
(dp19
s."
LayerCount: 2
Fore
SplineSet
700 640 m 0
 700 266 554 -163 410 -315 c 1
 131 -315 l 1
 131 -287 l 1
 253 -186 417 85 417 640 c 0
 417 1197 253 1455 131 1556 c 1
 131 1597 l 1
 410 1597 l 1
 554 1445 700 1015 700 640 c 0
EndSplineSet
EndChar

StartChar: partialdiff
Encoding: 8706 8706 307
Width: 1444
VWidth: 0
GlyphClass: 2
Flags: HW
PickledData: "(dp1
S'org.robofab.postScriptHintData'
p2
(dp3
s."
LayerCount: 2
Fore
SplineSet
585 -21 m 0
 331 -21 212 135 212 324 c 0
 212 601 467 948 923 984 c 1
 923 994 l 2
 923 1224 785 1364 602 1364 c 0
 523 1364 437 1338 349 1282 c 1
 283 1451 l 1
 407 1526 532 1561 650 1561 c 0
 968 1561 1227 1310 1227 938 c 0
 1227 402 984 -21 585 -21 c 0
599 151 m 0
 775 151 888 542 913 822 c 1
 666 762 539 444 539 268 c 0
 539 199 559 151 599 151 c 0
EndSplineSet
EndChar

StartChar: percent
Encoding: 37 37 308
Width: 2408
VWidth: 0
GlyphClass: 2
Flags: HW
PickledData: "(dp1
S'org.pippin.gimp.org.kernagic'
p2
(dp3
S'lstem'
p4
I0
sS'rstem'
p5
I0
ssS'com.typemytype.robofont.layerData'
p6
(dp7
S'b'
(dp8
S'name'
p9
S'percent'
p10
sS'lib'
p11
(dp12
sS'unicodes'
p13
(tsS'width'
p14
I1563
sS'contours'
p15
(tsS'components'
p16
(tsS'anchors'
p17
(tsssS'org.robofab.postScriptHintData'
p18
(dp19
s."
LayerCount: 2
Fore
SplineSet
577 942 m 0
 679 942 771 1034 771 1151 c 0
 771 1269 678 1354 577 1354 c 0
 472 1354 375 1265 375 1151 c 0
 375 1034 472 942 577 942 c 0
571 721 m 0
 312 721 130 908 130 1145 c 0
 130 1382 316 1566 571 1566 c 0
 829 1566 1027 1385 1027 1145 c 0
 1027 908 826 721 571 721 c 0
668 0 m 1
 1530 1546 l 1
 1802 1546 l 1
 947 0 l 1
 668 0 l 1
1910 175 m 0
 2012 175 2104 268 2104 382 c 0
 2104 500 2011 586 1910 586 c 0
 1805 586 1708 496 1708 382 c 0
 1708 267 1805 175 1910 175 c 0
1904 -48 m 0
 1645 -48 1450 139 1450 379 c 0
 1450 613 1649 795 1904 795 c 0
 2162 795 2360 619 2360 379 c 0
 2360 139 2159 -48 1904 -48 c 0
EndSplineSet
EndChar

StartChar: period
Encoding: 46 46 309
Width: 764
VWidth: 0
GlyphClass: 2
Flags: HW
PickledData: "(dp1
S'org.pippin.gimp.org.kernagic'
p2
(dp3
S'lstem'
p4
I0
sS'rstem'
p5
I0
ssS'com.typemytype.robofont.layerData'
p6
(dp7
S'b'
(dp8
S'name'
p9
S'period'
p10
sS'lib'
p11
(dp12
sS'unicodes'
p13
(tsS'width'
p14
I624
sS'contours'
p15
(tsS'components'
p16
(tsS'anchors'
p17
(tsssS'org.robofab.postScriptHintData'
p18
(dp19
s."
LayerCount: 2
Fore
SplineSet
372 -5 m 0
 276 -5 183 47 183 168 c 0
 183 292 274 349 372 349 c 0
 474 349 563 292 563 168 c 0
 563 50 474 -5 372 -5 c 0
EndSplineSet
EndChar

StartChar: periodcentered
Encoding: 183 183 310
Width: 582
VWidth: 0
GlyphClass: 2
Flags: HW
PickledData: "(dp1
S'org.pippin.gimp.org.kernagic'
p2
(dp3
S'lstem'
p4
I0
sS'rstem'
p5
I0
ssS'com.typemytype.robofont.layerData'
p6
(dp7
S'b'
(dp8
S'name'
p9
S'periodcentered'
p10
sS'lib'
p11
(dp12
sS'unicodes'
p13
(tsS'width'
p14
I653
sS'contours'
p15
(tsS'components'
p16
(tsS'anchors'
p17
(tsssS'org.robofab.postScriptHintData'
p18
(dp19
s."
LayerCount: 2
Fore
SplineSet
540 429 m 0
 423 429 351 505 351 629 c 0
 351 748 423 821 540 821 c 0
 654 821 725 748 725 629 c 0
 725 505 654 429 540 429 c 0
EndSplineSet
EndChar

StartChar: perthousand
Encoding: 8240 8240 311
Width: 3485
VWidth: 0
GlyphClass: 2
Flags: HW
PickledData: "(dp1
S'org.pippin.gimp.org.kernagic'
p2
(dp3
S'lstem'
p4
I0
sS'rstem'
p5
I0
ssS'com.typemytype.robofont.layerData'
p6
(dp7
S'b'
(dp8
S'name'
p9
S'perthousand'
p10
sS'lib'
p11
(dp12
sS'unicodes'
p13
(tsS'width'
p14
I2251
sS'contours'
p15
(tsS'components'
p16
(tsS'anchors'
p17
(tsssS'org.robofab.postScriptHintData'
p18
(dp19
s."
LayerCount: 2
Fore
SplineSet
2987 175 m 0
 3090 175 3182 268 3182 382 c 0
 3182 500 3089 586 2987 586 c 0
 2883 586 2786 496 2786 382 c 0
 2786 267 2883 175 2987 175 c 0
2982 -48 m 0
 2723 -48 2527 139 2527 379 c 0
 2527 613 2727 795 2982 795 c 0
 3240 795 3438 619 3438 379 c 0
 3438 139 3237 -48 2982 -48 c 0
EndSplineSet
Refer: 308 37 N 1 0 0 1 59 0 2
EndChar

StartChar: pi
Encoding: 960 960 312
Width: 1504
VWidth: 0
GlyphClass: 2
Flags: HW
PickledData: "(dp1
S'org.robofab.postScriptHintData'
p2
(dp3
sS'com.typemytype.robofont.layerData'
p4
(dp5
s."
LayerCount: 2
Fore
SplineSet
1116 -13 m 0
 946 -13 893 134 893 321 c 0
 893 482 932 673 970 822 c 1
 670 822 l 1
 644 316 l 2
 633 103 566 4 228 4 c 1
 228 108 l 1
 256 108 394 169 423 379 c 2
 486 822 l 1
 438 822 l 1
 360 821 322 770 310 694 c 1
 216 694 l 1
 216 907 289 1082 520 1082 c 2
 1391 1082 l 1
 1391 822 l 1
 1159 822 l 1
 1156 658 1143 511 1143 398 c 0
 1143 261 1173 156 1264 156 c 0
 1282 156 1302 160 1324 168 c 1
 1324 43 l 1
 1283 3 1209 -13 1116 -13 c 0
EndSplineSet
EndChar

StartChar: plus
Encoding: 43 43 313
Width: 1205
VWidth: 0
GlyphClass: 2
Flags: HW
PickledData: "(dp1
S'org.pippin.gimp.org.kernagic'
p2
(dp3
S'lstem'
p4
I0
sS'rstem'
p5
I0
ssS'com.typemytype.robofont.layerData'
p6
(dp7
S'b'
(dp8
S'name'
p9
S'plus'
p10
sS'lib'
p11
(dp12
sS'unicodes'
p13
(tsS'width'
p14
I1136
sS'contours'
p15
(tsS'components'
p16
(tsS'anchors'
p17
(tsssS'org.robofab.postScriptHintData'
p18
(dp19
s."
LayerCount: 2
Fore
SplineSet
468 1253 m 1
 738 1253 l 1
 738 883 l 1
 1108 883 l 1
 1108 618 l 1
 737 618 l 1
 737 240 l 1
 468 240 l 1
 468 618 l 1
 99 618 l 1
 99 883 l 1
 468 883 l 1
 468 1253 l 1
EndSplineSet
EndChar

StartChar: plusminus
Encoding: 177 177 314
Width: 1136
VWidth: 0
GlyphClass: 2
Flags: HW
PickledData: "(dp1
S'org.pippin.gimp.org.kernagic'
p2
(dp3
S'lstem'
p4
I0
sS'rstem'
p5
I0
ssS'com.typemytype.robofont.layerData'
p6
(dp7
sS'org.robofab.postScriptHintData'
p8
(dp9
s."
LayerCount: 2
Fore
SplineSet
447 1259 m 1
 713 1259 l 1
 713 931 l 1
 1065 931 l 1
 1065 670 l 1
 712 670 l 1
 712 358 l 1
 447 358 l 1
 447 670 l 1
 97 670 l 1
 97 931 l 1
 447 931 l 1
 447 1259 l 1
105 225 m 1
 1046 225 l 1
 1046 0 l 1
 105 0 l 1
 105 225 l 1
EndSplineSet
EndChar

StartChar: product
Encoding: 8719 8719 315
Width: 1604
VWidth: 0
GlyphClass: 2
Flags: HW
PickledData: "(dp1
S'org.pippin.gimp.org.kernagic'
p2
(dp3
S'lstem'
p4
I0
sS'rstem'
p5
I0
ssS'com.typemytype.robofont.layerData'
p6
(dp7
S'b'
(dp8
S'name'
p9
S'product'
p10
sS'lib'
p11
(dp12
sS'unicodes'
p13
(tsS'width'
p14
I1533
sS'contours'
p15
(tsS'components'
p16
(tsS'anchors'
p17
(tsssS'org.robofab.postScriptHintData'
p18
(dp19
s."
LayerCount: 2
Fore
SplineSet
210 1550 m 1
 1405 1550 l 1
 1405 0 l 1
 1222 0 l 1
 1222 1382 l 1
 391 1382 l 1
 391 0 l 1
 210 0 l 1
 210 1550 l 1
EndSplineSet
EndChar

StartChar: q
Encoding: 113 113 316
Width: 1277
VWidth: 0
GlyphClass: 2
Flags: HW
PickledData: "(dp1
S'org.pippin.gimp.org.kernagic'
p2
(dp3
S'lstem'
p4
I0
sS'rstem'
p5
I0
ssS'com.typemytype.robofont.layerData'
p6
(dp7
sS'org.robofab.postScriptHintData'
p8
(dp9
s."
LayerCount: 2
Fore
SplineSet
764 -482 m 1
 764 -60 l 1
 768 103 l 1
 723 41 642 -20 506 -20 c 0
 212 -20 75 219 75 551 c 0
 75 858 209 1101 496 1101 c 0
 655 1101 747 1020 794 914 c 1
 801 1082 l 1
 1170 1082 l 1
 1170 -482 l 1
 764 -482 l 1
626 236 m 0
 702 236 734 273 761 305 c 1
 761 755 l 1
 735 808 679 844 610 844 c 0
 555 844 485 807 485 551 c 0
 485 259 573 236 626 236 c 0
EndSplineSet
EndChar

StartChar: question
Encoding: 63 63 317
Width: 1119
VWidth: 0
GlyphClass: 2
Flags: HW
PickledData: "(dp1
S'org.pippin.gimp.org.kernagic'
p2
(dp3
S'lstem'
p4
I0
sS'rstem'
p5
I0
ssS'com.typemytype.robofont.layerData'
p6
(dp7
sS'org.robofab.postScriptHintData'
p8
(dp9
s."
LayerCount: 2
Fore
SplineSet
320 528 m 1
 477 907 604 965 604 1086 c 0
 604 1147 572 1211 463 1211 c 0
 397 1211 302 1189 213 1142 c 1
 114 1419 l 1
 225 1534 418 1574 535 1574 c 0
 770 1574 979 1437 979 1225 c 0
 979 817 620 781 395 493 c 1
 320 528 l 1
364 -21 m 0
 258 -21 190 44 190 152 c 0
 190 261 258 325 364 325 c 0
 465 325 532 261 532 152 c 0
 532 45 465 -21 364 -21 c 0
EndSplineSet
EndChar

StartChar: quotedbl
Encoding: 34 34 319
Width: 917
VWidth: 0
GlyphClass: 2
Flags: HW
PickledData: "(dp1
S'org.robofab.postScriptHintData'
p2
(dp3
sS'com.typemytype.robofont.layerData'
p4
(dp5
s."
LayerCount: 2
Fore
SplineSet
188 884 m 1
 82 1566 l 1
 416 1566 l 1
 365 884 l 1
 188 884 l 1
620 884 m 1
 515 1566 l 1
 849 1566 l 1
 798 884 l 1
 620 884 l 1
EndSplineSet
EndChar

StartChar: quotedblbase
Encoding: 8222 8222 320
Width: 1023
VWidth: 0
GlyphClass: 2
Flags: HW
PickledData: "(dp1
S'org.robofab.postScriptHintData'
p2
(dp3
s."
LayerCount: 2
Fore
SplineSet
103 -400 m 1
 135 135 l 1
 470 135 l 1
 341 -400 l 1
 103 -400 l 1
548 -400 m 1
 580 135 l 1
 914 135 l 1
 787 -400 l 1
 548 -400 l 1
EndSplineSet
EndChar

StartChar: quotedblleft
Encoding: 8220 8220 321
Width: 996
VWidth: 0
GlyphClass: 2
Flags: HW
PickledData: "(dp1
S'org.robofab.postScriptHintData'
p2
(dp3
sS'com.typemytype.robofont.layerData'
p4
(dp5
s."
LayerCount: 2
Fore
SplineSet
101 1037 m 1
 229 1570 l 1
 466 1570 l 1
 433 1037 l 1
 101 1037 l 1
549 1037 m 1
 677 1570 l 1
 913 1570 l 1
 880 1037 l 1
 549 1037 l 1
EndSplineSet
EndChar

StartChar: quotedblright
Encoding: 8221 8221 322
Width: 996
VWidth: 0
GlyphClass: 2
Flags: HW
PickledData: "(dp1
S'org.robofab.postScriptHintData'
p2
(dp3
sS'com.typemytype.robofont.layerData'
p4
(dp5
s."
LayerCount: 2
Fore
SplineSet
549 1037 m 1
 582 1570 l 1
 913 1570 l 1
 785 1037 l 1
 549 1037 l 1
101 1037 m 1
 134 1570 l 1
 466 1570 l 1
 338 1037 l 1
 101 1037 l 1
EndSplineSet
EndChar

StartChar: quoteleft
Encoding: 8216 8216 323
Width: 532
VWidth: 0
GlyphClass: 2
Flags: HW
PickledData: "(dp1
S'org.robofab.postScriptHintData'
p2
(dp3
sS'com.typemytype.robofont.layerData'
p4
(dp5
s."
LayerCount: 2
Fore
SplineSet
466 1570 m 1
 433 1037 l 1
 101 1037 l 1
 229 1570 l 1
 466 1570 l 1
EndSplineSet
EndChar

StartChar: quoteright
Encoding: 8217 8217 324
Width: 532
VWidth: 0
GlyphClass: 2
Flags: HW
PickledData: "(dp1
S'org.robofab.postScriptHintData'
p2
(dp3
sS'com.typemytype.robofont.layerData'
p4
(dp5
s."
LayerCount: 2
Fore
SplineSet
101 1037 m 1
 134 1570 l 1
 466 1570 l 1
 338 1037 l 1
 101 1037 l 1
EndSplineSet
EndChar

StartChar: quotesinglbase
Encoding: 8218 8218 325
Width: 544
VWidth: 0
GlyphClass: 2
Flags: HW
PickledData: "(dp1
S'org.robofab.postScriptHintData'
p2
(dp3
s."
LayerCount: 2
Fore
SplineSet
105 -400 m 1
 136 135 l 1
 470 135 l 1
 343 -400 l 1
 105 -400 l 1
EndSplineSet
EndChar

StartChar: quotesingle
Encoding: 39 39 326
Width: 699
VWidth: 0
GlyphClass: 2
Flags: HW
PickledData: "(dp1
S'org.robofab.postScriptHintData'
p2
(dp3
s."
LayerCount: 2
Fore
SplineSet
262 891 m 1
 154 1570 l 1
 490 1570 l 1
 437 891 l 1
 262 891 l 1
EndSplineSet
EndChar

StartChar: r
Encoding: 114 114 327
Width: 907
VWidth: 0
GlyphClass: 2
Flags: HW
PickledData: "(dp1
S'org.pippin.gimp.org.kernagic'
p2
(dp3
S'lstem'
p4
I0
sS'rstem'
p5
I352
ssS'com.typemytype.robofont.layerData'
p6
(dp7
sS'com.fontlab.hintData'
p8
(dp9
S'vhints'
p10
((dp11
S'position'
p12
I193
sS'width'
p13
I122
s(dp14
g12
I193
sg13
I92
stp15
sS'hhints'
p16
((dp17
g12
I974
sg13
I94
stp18
ssS'org.robofab.postScriptHintData'
p19
(dp20
s."
HStem: 974 94
VStem: 193 122 193 92
AnchorPoint: "bot" 383 0 basechar 0
AnchorPoint: "top" 412 1082 basechar 0
LayerCount: 2
Fore
SplineSet
107 0 m 1
 107 1082 l 1
 471 1082 l 1
 489 922 l 1
 547 1039 657 1086 740 1086 c 0
 768 1086 830 1083 893 1071 c 1
 869 776 l 1
 805 784 l 2
 789 786 772 788 756 788 c 0
 641 788 521 729 521 607 c 2
 521 0 l 1
 107 0 l 1
EndSplineSet
EndChar

StartChar: radical
Encoding: 8730 8730 329
Width: 1445
VWidth: 0
GlyphClass: 2
Flags: HW
PickledData: "(dp1
S'org.pippin.gimp.org.kernagic'
p2
(dp3
S'lstem'
p4
I0
sS'rstem'
p5
I0
ssS'com.typemytype.robofont.layerData'
p6
(dp7
S'b'
(dp8
S'name'
p9
S'radical'
p10
sS'lib'
p11
(dp12
sS'unicodes'
p13
(tsS'width'
p14
I1136
sS'contours'
p15
(tsS'components'
p16
(tsS'anchors'
p17
(tsssS'org.robofab.postScriptHintData'
p18
(dp19
s."
LayerCount: 2
Fore
SplineSet
1065 1534 m 1
 1415 1534 l 1
 872 -169 l 1
 532 -169 l 1
 179 786 l 1
 39 742 l 1
 5 868 l 1
 377 984 l 1
 464 728 552 473 638 216 c 0
 637 213 637 212 637 212 c 1
 643 212 1066 1556 1066 1538 c 1
 1066 1538 1066 1536 1065 1534 c 1
EndSplineSet
EndChar

StartChar: registered
Encoding: 174 174 332
Width: 1917
VWidth: 0
GlyphClass: 2
Flags: HW
PickledData: "(dp1
S'org.pippin.gimp.org.kernagic'
p2
(dp3
S'lstem'
p4
I0
sS'rstem'
p5
I0
ssS'com.typemytype.robofont.layerData'
p6
(dp7
sS'org.robofab.postScriptHintData'
p8
(dp9
s."
LayerCount: 2
Fore
SplineSet
594 331 m 1
 594 1181 l 1
 867 1181 l 2
 1067 1181 1232 1155 1232 937 c 0
 1232 822 1185 761 1027 713 c 1
 1283 331 l 1
 1059 331 l 1
 1059 331 823 705 825 704 c 1
 784 704 l 1
 784 331 l 1
 594 331 l 1
783 824 m 1
 829 824 l 2
 970 824 1042 835 1042 930 c 0
 1042 1031 1004 1041 908 1041 c 0
 885 1041 859 1040 829 1040 c 2
 783 1040 l 1
 783 824 l 1
897 113 m 0
 1237 113 1499 399 1499 729 c 0
 1499 1059 1237 1343 897 1343 c 0
 557 1343 294 1059 294 729 c 0
 294 399 557 113 897 113 c 0
897 -64 m 0
 447 -64 101 300 101 729 c 0
 101 1157 447 1520 897 1520 c 0
 1346 1520 1692 1157 1692 729 c 0
 1692 300 1346 -64 897 -64 c 0
EndSplineSet
EndChar

StartChar: ring
Encoding: 730 730 333
Width: 848
VWidth: 0
GlyphClass: 4
Flags: HW
PickledData: "(dp1
S'org.robofab.postScriptHintData'
p2
(dp3
sS'com.typemytype.robofont.layerData'
p4
(dp5
s."
AnchorPoint: "top" 395 1085 mark 0
LayerCount: 2
Fore
SplineSet
397 1315 m 0
 459 1315 490 1366 490 1422 c 0
 490 1474 459 1529 397 1529 c 0
 338 1529 309 1474 309 1422 c 0
 309 1364 332 1315 397 1315 c 0
397 1190 m 0
 246 1190 160 1303 160 1423 c 0
 160 1544 245 1653 397 1653 c 0
 552 1653 638 1541 638 1423 c 0
 638 1303 549 1190 397 1190 c 0
EndSplineSet
EndChar

StartChar: s
Encoding: 115 115 334
Width: 1022
VWidth: 0
GlyphClass: 2
Flags: HW
PickledData: "(dp1
S'org.pippin.gimp.org.kernagic'
p2
(dp3
S'lstem'
p4
I168
sS'rstem'
p5
I620
ssS'com.typemytype.robofont.guides'
p6
((dp7
S'y'
I381
sS'x'
I77
sS'magnetic'
p8
I5
sS'angle'
p9
F90
sS'isGlobal'
p10
I00
stp11
sS'com.typemytype.robofont.layerData'
p12
(dp13
sS'com.fontlab.hintData'
p14
(dp15
S'vhints'
p16
((dp17
S'position'
p18
I142
sS'width'
p19
I107
s(dp20
g18
I738
sg19
I104
stp21
sS'hhints'
p22
((dp23
g18
I-19
sg19
I92
s(dp24
g18
I982
sg19
I92
stp25
ssS'org.robofab.postScriptHintData'
p26
(dp27
s."
HStem: -19 92 982 92
VStem: 142 107 738 104
AnchorPoint: "bot" 530 0 basechar 0
AnchorPoint: "top" 478 1081 basechar 0
LayerCount: 2
Fore
SplineSet
520 1101 m 0
 704 1101 884 1056 978 894 c 1
 807 732 l 1
 791 732 l 1
 728 810 639 832 587 832 c 0
 558 831 523 816 523 784 c 0
 523 764 536 739 594 710 c 1
 752 637 l 1
 963 536 994 452 994 315 c 0
 994 102 786 -20 557 -20 c 0
 324 -20 167 49 46 205 c 1
 231 377 l 1
 265 377 l 1
 358 258 462 243 533 243 c 0
 590 243 601 280 602 302 c 0
 602 328 577 354 486 391 c 2
 381 433 l 2
 196 508 89 600 89 771 c 0
 89 974 257 1101 520 1101 c 0
EndSplineSet
EndChar

StartChar: section
Encoding: 167 167 340
Width: 1008
VWidth: 0
GlyphClass: 2
Flags: HW
PickledData: "(dp1
S'org.pippin.gimp.org.kernagic'
p2
(dp3
S'lstem'
p4
I0
sS'rstem'
p5
I0
ssS'com.typemytype.robofont.layerData'
p6
(dp7
S'b'
(dp8
S'name'
p9
S'section'
p10
sS'lib'
p11
(dp12
sS'unicodes'
p13
(tsS'width'
p14
I1079
sS'contours'
p15
(tsS'components'
p16
(tsS'anchors'
p17
(tsssS'org.robofab.postScriptHintData'
p18
(dp19
s."
LayerCount: 2
Fore
SplineSet
590 321 m 0
 590 361 560 391 429 457 c 0
 266 535 162 589 162 720 c 0
 162 813 239 891 326 955 c 1
 208 1034 145 1119 145 1241 c 0
 145 1522 396 1567 549 1567 c 0
 636 1567 774 1532 882 1456 c 1
 815 1256 l 1
 748 1294 649 1316 575 1316 c 0
 520 1316 467 1304 467 1262 c 0
 467 1225 476 1199 697 1095 c 0
 850 1022 904 940 904 838 c 0
 904 722 842 656 770 597 c 1
 851 534 891 453 891 370 c 0
 891 87 740 -6 519 -20 c 0
 511 -21 502 -21 493 -21 c 0
 390 -21 258 15 166 67 c 1
 166 331 l 1
 214 297 368 235 483 235 c 0
 551 235 590 264 590 321 c 0
640 668 m 1
 659 684 672 700 672 721 c 0
 672 748 649 784 588 821 c 0
 547 847 439 890 439 890 c 1
 426 886 396 857 396 825 c 0
 396 789 441 770 599 692 c 1
 575 699 640 668 640 668 c 1
EndSplineSet
EndChar

StartChar: semicolon
Encoding: 59 59 341
Width: 779
VWidth: 0
GlyphClass: 2
Flags: HW
PickledData: "(dp1
S'org.pippin.gimp.org.kernagic'
p2
(dp3
S'lstem'
p4
I0
sS'rstem'
p5
I0
ssS'com.typemytype.robofont.layerData'
p6
(dp7
sS'org.robofab.postScriptHintData'
p8
(dp9
s."
LayerCount: 2
Fore
SplineSet
190 -363 m 1
 190 -363 225 213 225 293 c 1
 556 293 l 1
 556 91 l 1
 431 -363 l 1
 190 -363 l 1
387 773 m 0
 292 773 201 822 201 945 c 0
 201 1072 290 1125 387 1125 c 0
 487 1125 575 1072 575 945 c 0
 575 825 487 773 387 773 c 0
EndSplineSet
EndChar

StartChar: seven
Encoding: 55 55 342
Width: 1414
VWidth: 0
GlyphClass: 2
Flags: HW
PickledData: "(dp1
S'org.pippin.gimp.org.kernagic'
p2
(dp3
S'lstem'
p4
I0
sS'rstem'
p5
I0
ssS'com.typemytype.robofont.layerData'
p6
(dp7
sS'org.robofab.postScriptHintData'
p8
(dp9
s."
LayerCount: 2
Fore
SplineSet
313 0 m 1
 792 1163 l 1
 195 1163 l 1
 189 1456 l 1
 1239 1456 l 1
 1246 1151 l 1
 769 0 l 1
 313 0 l 1
EndSplineSet
EndChar

StartChar: six
Encoding: 54 54 343
Width: 1414
VWidth: 0
GlyphClass: 2
Flags: HW
PickledData: "(dp1
S'org.pippin.gimp.org.kernagic'
p2
(dp3
S'lstem'
p4
I0
sS'rstem'
p5
I0
ssS'com.typemytype.robofont.layerData'
p6
(dp7
sS'org.robofab.postScriptHintData'
p8
(dp9
s."
LayerCount: 2
Fore
SplineSet
696 -20 m 0
 330 -20 118 177 118 473 c 0
 118 634 175 746 254 863 c 2
 659 1456 l 1
 1122 1456 l 1
 1122 1422 l 1
 978 1238 841 1048 688 874 c 1
 729 888 778 900 828 900 c 0
 1029 900 1277 781 1277 449 c 0
 1277 166 1062 -20 696 -20 c 0
698 260 m 0
 793 260 857 333 857 463 c 0
 857 601 794 683 697 683 c 0
 589 683 538 591 538 464 c 0
 538 334 602 260 698 260 c 0
EndSplineSet
EndChar

StartChar: slash
Encoding: 47 47 344
Width: 1036
VWidth: 0
GlyphClass: 2
Flags: HW
PickledData: "(dp1
S'org.pippin.gimp.org.kernagic'
p2
(dp3
S'lstem'
p4
I0
sS'rstem'
p5
I0
ssS'com.typemytype.robofont.layerData'
p6
(dp7
S'b'
(dp8
S'name'
p9
S'slash'
p10
sS'lib'
p11
(dp12
sS'unicodes'
p13
(tsS'width'
p14
I965
sS'contours'
p15
(tsS'components'
p16
(tsS'anchors'
p17
(tsssS'org.robofab.postScriptHintData'
p18
(dp19
s."
LayerCount: 2
Fore
SplineSet
37 -195 m 1
 697 1560 l 1
 936 1560 l 1
 272 -195 l 1
 37 -195 l 1
EndSplineSet
EndChar

StartChar: slashbar
Encoding: 65543 -1 345
Width: 153
VWidth: 0
GlyphClass: 4
Flags: HW
PickledData: "(dp1
S'org.pippin.gimp.org.kernagic'
p2
(dp3
S'lstem'
p4
I0
sS'rstem'
p5
I0
ssS'com.typemytype.robofont.layerData'
p6
(dp7
S'b'
(dp8
S'name'
p9
S'slashbar'
p10
sS'lib'
p11
(dp12
sS'unicodes'
p13
(tsS'width'
p14
I908
sS'contours'
p15
(tsS'components'
p16
(tsS'anchors'
p17
(tsssS'org.robofab.postScriptHintData'
p18
(dp19
s."
AnchorPoint: "mid" 392 643 mark 0
LayerCount: 2
Fore
SplineSet
127 434 m 1
 127 710 l 1
 830 909 l 1
 830 631 l 1
 127 434 l 1
EndSplineSet
EndChar

StartChar: sterling
Encoding: 163 163 347
Width: 1243
VWidth: 0
GlyphClass: 2
Flags: HW
PickledData: "(dp1
S'org.pippin.gimp.org.kernagic'
p2
(dp3
S'lstem'
p4
I0
sS'rstem'
p5
I0
ssS'com.typemytype.robofont.layerData'
p6
(dp7
S'b'
(dp8
S'name'
p9
S'sterling'
p10
sS'lib'
p11
(dp12
sS'unicodes'
p13
(tsS'width'
p14
I1136
sS'contours'
p15
((dp16
S'points'
p17
((dp18
S'segmentType'
p19
S'line'
p20
sS'x'
I20
sS'smooth'
p21
I00
sS'y'
I0
s(dp22
g19
S'line'
p23
sS'x'
I8
sg21
I00
sS'y'
I115
s(dp24
g19
S'line'
p25
sS'x'
I180
sg21
I00
sS'y'
I132
s(dp26
g19
S'line'
p27
sS'x'
I180
sg21
I00
sS'y'
I683
s(dp28
g19
S'line'
p29
sS'x'
I8
sg21
I00
sS'y'
I683
s(dp30
g19
S'line'
p31
sS'x'
I8
sg21
I00
sS'y'
I806
s(dp32
g19
S'line'
p33
sS'x'
I180
sg21
I00
sS'y'
I806
s(dp34
g19
S'line'
p35
sS'x'
I180
sg21
I01
sS'y'
I920
s(dp36
S'y'
I1183
sS'x'
I180
sg21
I00
s(dp37
S'y'
I1476
sS'x'
I245
sg21
I00
s(dp38
g19
S'curve'
p39
sS'x'
I598
sg21
I01
sS'y'
I1476
s(dp40
S'y'
I1476
sS'x'
I742
sg21
I00
s(dp41
S'y'
I1421
sS'x'
I854
sg21
I00
s(dp42
g19
S'curve'
p43
sS'x'
I939
sg21
I00
sS'y'
I1347
s(dp44
g19
S'line'
p45
sS'x'
I871
sg21
I00
sS'y'
I1229
s(dp46
S'y'
I1297
sS'x'
I785
sg21
I00
s(dp47
S'y'
I1334
sS'x'
I700
sg21
I00
s(dp48
g19
S'curve'
p49
sS'x'
I598
sg21
I01
sS'y'
I1334
s(dp50
S'y'
I1334
sS'x'
I397
sg21
I00
s(dp51
S'y'
I1179
sS'x'
I356
sg21
I00
s(dp52
g19
S'curve'
p53
sS'x'
I356
sg21
I01
sS'y'
I949
s(dp54
g19
S'line'
p55
sS'x'
I356
sg21
I00
sS'y'
I806
s(dp56
g19
S'line'
p57
sS'x'
I739
sg21
I00
sS'y'
I806
s(dp58
g19
S'line'
p59
sS'x'
I739
sg21
I00
sS'y'
I683
s(dp60
g19
S'line'
p61
sS'x'
I356
sg21
I00
sS'y'
I683
s(dp62
g19
S'line'
p63
sS'x'
I356
sg21
I00
sS'y'
I134
s(dp64
g19
S'line'
p65
sS'x'
I953
sg21
I00
sS'y'
I134
s(dp66
g19
S'line'
p67
sS'x'
I940
sg21
I00
sS'y'
I0
stp68
stp69
sS'components'
p70
(tsS'anchors'
p71
(tsssS'org.robofab.postScriptHintData'
p72
(dp73
s."
LayerCount: 2
Fore
SplineSet
1066 1209 m 1
 1043 1209 l 1
 971 1238 906 1251 863 1251 c 2
 858 1251 l 2
 755 1251 692 1187 692 1066 c 2
 692 889 l 1
 979 889 l 1
 979 661 l 1
 692 661 l 1
 692 283 l 1
 1167 283 l 1
 1164 0 l 1
 111 0 l 1
 101 257 l 1
 280 281 l 1
 280 661 l 1
 89 661 l 1
 89 889 l 1
 280 889 l 1
 280 988 l 2
 280 1367 415 1574 765 1574 c 0
 1004 1574 1169 1466 1193 1450 c 1
 1066 1209 l 1
EndSplineSet
EndChar

StartChar: summation
Encoding: 8721 8721 348
Width: 1240
VWidth: 0
GlyphClass: 2
Flags: HW
PickledData: "(dp1
S'org.pippin.gimp.org.kernagic'
p2
(dp3
S'lstem'
p4
I0
sS'rstem'
p5
I0
ssS'com.typemytype.robofont.layerData'
p6
(dp7
S'b'
(dp8
S'name'
p9
S'summation'
p10
sS'lib'
p11
(dp12
sS'unicodes'
p13
(tsS'width'
p14
I1050
sS'contours'
p15
(tsS'components'
p16
(tsS'anchors'
p17
(tsssS'org.robofab.postScriptHintData'
p18
(dp19
s."
LayerCount: 2
Fore
SplineSet
68 1456 m 1
 1139 1456 l 1
 1139 1157 l 1
 552 1157 l 1
 971 587 l 1
 473 7 l 1
 1168 7 l 1
 1168 -296 l 1
 67 -296 l 1
 67 -39 l 1
 561 563 l 1
 68 1194 l 1
 68 1456 l 1
EndSplineSet
EndChar

StartChar: t
Encoding: 116 116 349
Width: 926
VWidth: 0
GlyphClass: 2
Flags: HW
PickledData: "(dp1
S'org.pippin.gimp.org.kernagic'
p2
(dp3
S'lstem'
p4
I189
sS'rstem'
p5
I480
ssS'com.typemytype.robofont.layerData'
p6
(dp7
sS'com.fontlab.hintData'
p8
(dp9
S'vhints'
p10
((dp11
S'position'
p12
I244
sS'width'
p13
I122
s(dp14
g12
I286
sg13
I80
stp15
sS'hhints'
p16
((dp17
g12
I-11
sg13
I83
stp18
ssS'org.robofab.postScriptHintData'
p19
(dp20
s."
HStem: -11 83
VStem: 244 122 286 80
AnchorPoint: "mid" 389 744 basechar 0
AnchorPoint: "bot" 527 0 basechar 0
AnchorPoint: "top" 456 1306 basechar 0
LayerCount: 2
Fore
SplineSet
652 -10 m 1
 238 -10 184 158 184 448 c 2
 184 848 l 1
 24 848 l 1
 33 1063 l 1
 195 1086 l 1
 212 1400 l 1
 590 1430 l 1
 590 1082 l 1
 878 1082 l 1
 878 848 l 1
 590 848 l 1
 590 432 l 2
 590 329 627 274 736 269 c 2
 912 262 l 1
 901 -1 l 1
 652 -10 l 1
EndSplineSet
EndChar

StartChar: thorn
Encoding: 254 254 354
Width: 1081
VWidth: 0
GlyphClass: 2
Flags: HW
PickledData: "(dp1
S'org.pippin.gimp.org.kernagic'
p2
(dp3
S'lstem'
p4
I0
sS'rstem'
p5
I0
ssS'com.typemytype.robofont.layerData'
p6
(dp7
S'b'
(dp8
S'name'
p9
S'thorn'
p10
sS'lib'
p11
(dp12
sS'unicodes'
p13
(tsS'width'
p14
I1221
sS'contours'
p15
(tsS'components'
p16
(tsS'anchors'
p17
(tsssS'org.robofab.postScriptHintData'
p18
(dp19
s."
LayerCount: 2
Fore
SplineSet
210 650 m 1
 619 650 l 1
 619 -416 l 1
 210 -416 l 1
 210 650 l 1
EndSplineSet
Refer: 154 98 N 1 0 0 1 94 0 2
EndChar

StartChar: three
Encoding: 51 51 355
Width: 1219
VWidth: 0
GlyphClass: 2
Flags: HW
PickledData: "(dp1
S'org.pippin.gimp.org.kernagic'
p2
(dp3
S'lstem'
p4
I0
sS'rstem'
p5
I0
ssS'com.typemytype.robofont.layerData'
p6
(dp7
sS'org.robofab.postScriptHintData'
p8
(dp9
s."
LayerCount: 2
Fore
SplineSet
680 444 m 0
 680 588 554 603 373 603 c 2
 271 603 l 1
 251 835 l 1
 368 837 l 1
 591 837 667 873 667 1029 c 1
 659 1130 601 1168 487 1168 c 1
 399 1163 323 1131 242 1064 c 1
 221 1071 l 1
 45 1274 l 1
 116 1342 245 1476 519 1476 c 0
 827 1476 1071 1377 1079 1094 c 0
 1079 967 1047 795 787 750 c 1
 1049 718 1122 552 1122 427 c 0
 1122 72 793 -20 539 -20 c 0
 200 -20 34 177 26 183 c 1
 179 398 l 1
 209 398 l 1
 256 361 348 282 501 282 c 0
 637 282 680 353 680 444 c 0
EndSplineSet
EndChar

StartChar: threequarters
Encoding: 190 190 356
Width: 1709
VWidth: 0
GlyphClass: 2
Flags: HW
PickledData: "(dp1
S'org.pippin.gimp.org.kernagic'
p2
(dp3
S'lstem'
p4
I0
sS'rstem'
p5
I0
ssS'com.typemytype.robofont.layerData'
p6
(dp7
sS'org.robofab.postScriptHintData'
p8
(dp9
s."
LayerCount: 2
Fore
SplineSet
381 570 m 0
 281 570 176 593 86 640 c 1
 153 800 l 1
 207 757 292 730 371 730 c 0
 469 730 558 769 558 859 c 0
 558 926 516 977 397 977 c 2
 387 977 l 1
 262 975 l 1
 262 1130 l 1
 391 1130 l 2
 534 1130 537 1162 537 1215 c 0
 537 1286 472 1314 388 1314 c 0
 320 1314 234 1293 160 1253 c 1
 99 1387 l 1
 192 1440 316 1472 431 1472 c 0
 589 1472 727 1410 727 1239 c 0
 725 1160 696 1075 591 1057 c 1
 693 1040 745 943 745 848 c 0
 745 660 575 570 381 570 c 0
1472 0 m 1
 1472 174 l 1
 1119 174 l 1
 1119 345 l 1
 1462 882 l 1
 1660 882 l 1
 1660 333 l 1
 1773 333 l 1
 1748 174 l 1
 1661 174 l 1
 1661 0 l 1
 1472 0 l 1
403 0 m 1
 1434 1516 l 1
 1674 1516 l 1
 655 0 l 1
 403 0 l 1
1327 333 m 1
 1474 333 l 1
 1474 629 l 1
 1327 333 l 1
EndSplineSet
EndChar

StartChar: tilde
Encoding: 732 732 357
Width: 965
VWidth: 0
GlyphClass: 4
Flags: HW
PickledData: "(dp1
S'org.robofab.postScriptHintData'
p2
(dp3
sS'com.typemytype.robofont.layerData'
p4
(dp5
sS'com.fontlab.hintData'
p6
(dp7
S'vhints'
p8
((dp9
S'position'
p10
I169
sS'width'
p11
I63
s(dp12
g10
I657
sg11
I67
stp13
sS'hhints'
p14
((dp15
g10
I1301
sg11
I88
s(dp16
g10
I1400
sg11
I79
stp17
ss."
HStem: 1301 88 1400 79
VStem: 169 63 657 67
AnchorPoint: "top" 482 1085 mark 0
LayerCount: 2
Fore
SplineSet
140 1243 m 1
 140 1360 182 1531 365 1531 c 0
 509 1531 589 1450 643 1450 c 0
 669 1450 688 1469 705 1530 c 1
 861 1530 l 1
 861 1423 820 1243 646 1243 c 0
 531 1243 439 1342 374 1342 c 0
 339 1342 316 1317 297 1243 c 1
 140 1243 l 1
EndSplineSet
EndChar

StartChar: trademark
Encoding: 8482 8482 358
Width: 2005
VWidth: 0
GlyphClass: 2
Flags: HW
PickledData: "(dp1
S'org.robofab.postScriptHintData'
p2
(dp3
sS'com.typemytype.robofont.layerData'
p4
(dp5
S'b'
(dp6
S'name'
p7
S'trademark'
p8
sS'lib'
p9
(dp10
sS'unicodes'
p11
(tsS'width'
p12
I2216
sS'contours'
p13
(tsS'components'
p14
(tsS'anchors'
p15
(tsss."
LayerCount: 2
Fore
SplineSet
885 521 m 1
 906 1456 l 1
 1131 1456 l 1
 1395 904 l 1
 1656 1456 l 1
 1882 1456 l 1
 1903 521 l 1
 1687 521 l 1
 1665 1036 l 1
 1445 588 l 1
 1343 588 l 1
 1124 1034 l 1
 1102 521 l 1
 885 521 l 1
326 521 m 1
 326 1284 l 1
 87 1284 l 1
 87 1456 l 1
 790 1456 l 1
 790 1284 l 1
 552 1284 l 1
 552 521 l 1
 326 521 l 1
EndSplineSet
EndChar

StartChar: two
Encoding: 50 50 359
Width: 1414
VWidth: 0
GlyphClass: 2
Flags: HW
PickledData: "(dp1
S'org.pippin.gimp.org.kernagic'
p2
(dp3
S'lstem'
p4
I0
sS'rstem'
p5
I0
ssS'com.typemytype.robofont.layerData'
p6
(dp7
sS'org.robofab.postScriptHintData'
p8
(dp9
s."
LayerCount: 2
Fore
SplineSet
321 979 m 1
 293 979 l 1
 102 1177 l 1
 214 1315 412 1476 695 1476 c 0
 1140 1476 1239 1206 1239 1000 c 0
 1239 884 1169 734 967 545 c 1
 685 279 l 1
 1231 279 l 1
 1221 0 l 1
 261 0 l 1
 196 265 l 1
 738 799 l 2
 814 873 850 950 850 1010 c 0
 850 1100 791 1173 692 1173 c 0
 555 1173 413 1091 321 979 c 1
EndSplineSet
EndChar

StartChar: u
Encoding: 117 117 360
Width: 1280
VWidth: 0
GlyphClass: 2
Flags: HW
PickledData: "(dp1
S'org.pippin.gimp.org.kernagic'
p2
(dp3
S'lstem'
p4
I0
sS'rstem'
p5
I0
ssS'com.typemytype.robofont.layerData'
p6
(dp7
sS'com.fontlab.hintData'
p8
(dp9
S'vhints'
p10
((dp11
S'position'
p12
I162
sS'width'
p13
I166
s(dp14
g12
I862
sg13
I166
stp15
sS'hhints'
p16
((dp17
g12
I-21
sg13
I126
stp18
ssS'org.robofab.postScriptHintData'
p19
(dp20
s."
HStem: -21 126
VStem: 162 166 862 166
AnchorPoint: "bot" 660 0 basechar 0
AnchorPoint: "ogonek" 993 0 basechar 0
AnchorPoint: "top" 638 1082 basechar 0
LayerCount: 2
Fore
SplineSet
750 307 m 1
 750 1082 l 1
 1164 1082 l 1
 1164 0 l 1
 808 0 l 1
 788 170 l 1
 740 73 649 -20 473 -20 c 0
 234 -20 108 148 108 410 c 2
 108 1082 l 1
 521 1082 l 1
 521 468 l 2
 521 277 561 238 629 238 c 0
 682 238 721 269 750 307 c 1
EndSplineSet
EndChar

StartChar: underscore
Encoding: 95 95 368
Width: 1030
VWidth: 0
GlyphClass: 2
Flags: HW
PickledData: "(dp1
S'org.pippin.gimp.org.kernagic'
p2
(dp3
S'lstem'
p4
I0
sS'rstem'
p5
I0
ssS'com.typemytype.robofont.layerData'
p6
(dp7
sS'org.robofab.postScriptHintData'
p8
(dp9
s."
LayerCount: 2
Fore
SplineSet
0 -295 m 1
 0 -75 l 1
 1030 -75 l 1
 1030 -295 l 1
 0 -295 l 1
EndSplineSet
EndChar

StartChar: uni00AD
Encoding: 173 173 371
Width: 1114
VWidth: 0
GlyphClass: 2
Flags: HW
PickledData: "(dp1
S'org.robofab.postScriptHintData'
p2
(dp3
s."
LayerCount: 2
Fore
SplineSet
229 -33 m 1
 229 229 l 1
 871 229 l 1
 871 -33 l 1
 229 -33 l 1
EndSplineSet
EndChar

StartChar: uni00B2
Encoding: 178 178 372
Width: 864
VWidth: 0
GlyphClass: 2
Flags: HW
PickledData: "(dp1
S'org.robofab.postScriptHintData'
p2
(dp3
sS'com.typemytype.robofont.layerData'
p4
(dp5
s."
LayerCount: 2
Fore
SplineSet
158 577 m 1
 158 751 l 1
 248 845 253 796 477 1046 c 1
 477 1060 542 1144 542 1171 c 0
 542 1240 484 1281 443 1281 c 0
 380 1281 306 1251 267 1195 c 1
 181 1342 l 1
 244 1433 344 1472 471 1472 c 0
 605 1472 752 1363 752 1177 c 0
 752 1067 703 949 643 887 c 0
 534 779 614 873 477 753 c 1
 752 753 l 1
 730 577 l 1
 158 577 l 1
EndSplineSet
EndChar

StartChar: uni00B3
Encoding: 179 179 373
Width: 885
VWidth: 0
GlyphClass: 2
Flags: HW
PickledData: "(dp1
S'org.robofab.postScriptHintData'
p2
(dp3
sS'com.typemytype.robofont.layerData'
p4
(dp5
s."
LayerCount: 2
Fore
SplineSet
429 563 m 0
 333 563 230 586 140 631 c 1
 206 793 l 1
 262 751 347 726 420 726 c 0
 515 726 601 763 601 854 c 0
 601 922 562 970 444 970 c 2
 433 970 l 1
 311 968 l 1
 311 1127 l 1
 436 1127 l 2
 574 1127 579 1158 579 1210 c 0
 579 1279 517 1307 436 1307 c 0
 374 1307 290 1288 214 1249 c 1
 152 1385 l 1
 245 1437 366 1469 479 1469 c 0
 635 1469 772 1406 772 1236 c 0
 770 1161 746 1072 639 1053 c 1
 741 1035 792 937 792 844 c 0
 792 654 622 563 429 563 c 0
EndSplineSet
EndChar

StartChar: uni00B5
Encoding: 181 181 374
Width: 1259
VWidth: 0
GlyphClass: 2
Flags: HW
PickledData: "(dp1
S'org.robofab.postScriptHintData'
p2
(dp3
sS'com.typemytype.robofont.layerData'
p4
(dp5
s."
LayerCount: 2
Fore
SplineSet
750 307 m 1
 721 269 682 238 629 238 c 0
 561 238 521 277 521 468 c 2
 521 1082 l 1
 108 1082 l 1
 108 -340 l 1
 521 -340 l 1
 521 -18 l 1
 666 -3 745 82 788 170 c 1
 808 0 l 1
 1164 0 l 1
 1164 1082 l 1
 750 1082 l 1
 750 307 l 1
EndSplineSet
EndChar

StartChar: uni00B9
Encoding: 185 185 375
Width: 849
VWidth: 0
GlyphClass: 2
Flags: HW
PickledData: "(dp1
S'org.robofab.postScriptHintData'
p2
(dp3
sS'com.typemytype.robofont.layerData'
p4
(dp5
s."
LayerCount: 2
Fore
SplineSet
228 532 m 1
 228 723 l 1
 349 723 l 1
 349 1217 l 1
 316 1203 220 1150 208 1142 c 1
 208 1331 l 1
 255 1361 384 1443 406 1450 c 1
 579 1450 l 1
 579 723 l 1
 708 723 l 1
 708 532 l 1
 228 532 l 1
208 1142 m 1
 208 1141 l 1
 207 1141 l 1
 208 1142 l 1
EndSplineSet
EndChar

StartChar: uni02C9
Encoding: 713 713 444
Width: 600
VWidth: 0
GlyphClass: 4
Flags: HW
PickledData: "(dp1
S'org.robofab.postScriptHintData'
p2
(dp3
s."
AnchorPoint: "top" 286 1085 mark 0
LayerCount: 2
Fore
SplineSet
-85 1360 m 1
 -85 1557 l 1
 665 1557 l 1
 665 1360 l 1
 -85 1360 l 1
EndSplineSet
EndChar

StartChar: uni0307
Encoding: 775 775 445
Width: 695
VWidth: 0
GlyphClass: 2
Flags: HW
PickledData: "(dp1
S'org.robofab.postScriptHintData'
p2
(dp3
sS'com.typemytype.robofont.layerData'
p4
(dp5
s."
LayerCount: 2
Fore
SplineSet
559 1457 m 0
 559 1336 478 1260 349 1260 c 0
 221 1260 138 1336 138 1457 c 0
 138 1572 221 1645 349 1645 c 0
 478 1645 559 1572 559 1457 c 0
EndSplineSet
EndChar

StartChar: uni2074
Encoding: 8308 8308 464
Width: 683
VWidth: 0
GlyphClass: 2
Flags: HW
PickledData: "(dp1
S'org.robofab.postScriptHintData'
p2
(dp3
sS'com.typemytype.robofont.layerData'
p4
(dp5
s."
LayerCount: 2
Fore
SplineSet
328 570 m 1
 328 741 l 1
 -34 741 l 1
 -34 910 l 1
 317 1450 l 1
 515 1450 l 1
 515 902 l 1
 627 902 l 1
 606 741 l 1
 517 741 l 1
 516 570 l 1
 328 570 l 1
177 902 m 1
 329 902 l 1
 328 1196 l 1
 177 902 l 1
EndSplineSet
EndChar

StartChar: uni2113
Encoding: 8467 8467 465
Width: 1404
VWidth: 0
GlyphClass: 2
Flags: HW
PickledData: "(dp1
S'org.robofab.postScriptHintData'
p2
(dp3
s."
LayerCount: 2
Fore
SplineSet
1396 1330 m 0
 1396 1120 1291 1042 1032 865 c 2
 749 672 l 1
 686 417 l 2
 680 392 677 370 677 352 c 0
 677 282 720 259 781 259 c 0
 859 259 955 290 1058 326 c 1
 1089 98 l 1
 1089 98 901 -20 612 -20 c 0
 417 -20 282 89 282 315 c 0
 282 355 286 399 295 447 c 1
 125 334 l 1
 62 464 l 1
 362 680 l 1
 556 1396 l 2
 614 1609 797 1714 978 1714 c 0
 1190 1714 1396 1574 1396 1330 c 0
783 816 m 1
 939 926 l 2
 1113 1049 1197 1210 1197 1333 c 0
 1197 1427 1135 1483 1067 1483 c 0
 1004 1483 936 1435 909 1325 c 2
 783 816 l 1
EndSplineSet
EndChar

StartChar: uni2206
Encoding: 8710 8710 467
Width: 1347
VWidth: 0
GlyphClass: 2
Flags: HW
PickledData: "(dp1
S'org.pippin.gimp.org.kernagic'
p2
(dp3
S'lstem'
p4
I0
sS'rstem'
p5
I0
ssS'com.typemytype.robofont.layerData'
p6
(dp7
S'b'
(dp8
S'name'
p9
S'uni2206'
p10
sS'lib'
p11
(dp12
sS'unicodes'
p13
(tsS'width'
p14
I1278
sS'contours'
p15
(tsS'components'
p16
(tsS'anchors'
p17
(tsssS'org.robofab.postScriptHintData'
p18
(dp19
s."
LayerCount: 2
Fore
SplineSet
581 1604 m 1
 775 1604 l 1
 1281 90 l 1
 1281 0 l 1
 74 0 l 1
 74 90 l 1
 581 1604 l 1
709 1241 m 1
 675 1366 l 1
 639 1241 l 1
 281 180 l 1
 1074 180 l 1
 709 1241 l 1
EndSplineSet
EndChar

StartChar: v
Encoding: 118 118 478
Width: 1107
VWidth: 0
GlyphClass: 2
Flags: HW
PickledData: "(dp1
S'org.pippin.gimp.org.kernagic'
p2
(dp3
S'lstem'
p4
I0
sS'rstem'
p5
I0
ssS'com.typemytype.robofont.guides'
p6
((dp7
S'y'
I552
sS'x'
I438
sS'magnetic'
p8
I5
sS'angle'
p9
I0
sS'isGlobal'
p10
I00
stp11
sS'com.typemytype.robofont.layerData'
p12
(dp13
sS'org.robofab.postScriptHintData'
p14
(dp15
s."
LayerCount: 2
Fore
SplineSet
354 0 m 1
 -11 1082 l 1
 412 1082 l 1
 467 871 526 664 576 448 c 1
 605 618 l 1
 704 1082 l 1
 1117 1082 l 1
 763 0 l 1
 354 0 l 1
EndSplineSet
EndChar

StartChar: w
Encoding: 119 119 479
Width: 1544
VWidth: 0
GlyphClass: 2
Flags: HW
PickledData: "(dp1
S'org.pippin.gimp.org.kernagic'
p2
(dp3
S'lstem'
p4
I0
sS'rstem'
p5
I0
ssS'com.typemytype.robofont.layerData'
p6
(dp7
sS'org.robofab.postScriptHintData'
p8
(dp9
s."
AnchorPoint: "top" 791 1082 basechar 0
LayerCount: 2
Fore
SplineSet
786 661 m 1
 607 -7 l 1
 241 -7 l 1
 -4 1082 l 1
 375 1082 l 1
 455 383 l 1
 614 1082 l 1
 972 1082 l 1
 1095 405 l 1
 1198 1082 l 1
 1543 1082 l 1
 1284 -7 l 1
 897 -7 l 1
 786 661 l 1
EndSplineSet
EndChar

StartChar: x
Encoding: 120 120 484
Width: 1110
VWidth: 0
GlyphClass: 2
Flags: HW
PickledData: "(dp1
S'org.pippin.gimp.org.kernagic'
p2
(dp3
S'lstem'
p4
I0
sS'rstem'
p5
I0
ssS'com.typemytype.robofont.layerData'
p6
(dp7
sS'com.fontlab.hintData'
p8
(dp9
S'hhints'
p10
((dp11
S'position'
p12
I0
sS'width'
p13
I22
s(dp14
g12
I1034
sg13
I21
stp15
ssS'org.robofab.postScriptHintData'
p16
(dp17
s."
HStem: 0 22 1034 21
LayerCount: 2
Fore
SplineSet
777 543 m 1
 1138 -7 l 1
 704 -7 l 1
 542 243 l 1
 363 -7 l 1
 -21 -7 l 1
 347 542 l 1
 -4 1082 l 1
 424 1082 l 1
 580 844 l 1
 734 1082 l 1
 1110 1082 l 1
 777 543 l 1
EndSplineSet
EndChar

StartChar: y
Encoding: 121 121 485
Width: 1137
VWidth: 0
GlyphClass: 2
Flags: HW
PickledData: "(dp1
S'org.pippin.gimp.org.kernagic'
p2
(dp3
S'lstem'
p4
I0
sS'rstem'
p5
I0
ssS'com.typemytype.robofont.layerData'
p6
(dp7
sS'org.robofab.postScriptHintData'
p8
(dp9
s."
AnchorPoint: "top" 543 1082 basechar 0
LayerCount: 2
Fore
SplineSet
1172 1082 m 1
 460 -465 l 1
 136 -332 l 1
 373 183 l 1
 -50 1082 l 1
 347 1082 l 1
 576 553 l 1
 792 1082 l 1
 1172 1082 l 1
EndSplineSet
EndChar

StartChar: yen
Encoding: 165 165 489
Width: 1343
VWidth: 0
GlyphClass: 2
Flags: HW
PickledData: "(dp1
S'org.pippin.gimp.org.kernagic'
p2
(dp3
S'lstem'
p4
I0
sS'rstem'
p5
I0
ssS'com.typemytype.robofont.layerData'
p6
(dp7
S'b'
(dp8
S'name'
p9
S'yen'
p10
sS'lib'
p11
(dp12
sS'unicodes'
p13
(tsS'width'
p14
I1366
sS'contours'
p15
(tsS'components'
p16
(tsS'anchors'
p17
(tsssS'org.robofab.postScriptHintData'
p18
(dp19
s."
LayerCount: 2
Fore
SplineSet
887 234 m 1
 1152 234 l 1
 1152 385 l 1
 887 385 l 1
 887 541 l 1
 1152 541 l 1
 1152 692 l 1
 943 692 l 1
 1366 1456 l 1
 905 1456 l 1
 668 1000 l 1
 442 1456 l 1
 -23 1456 l 1
 393 692 l 1
 162 692 l 1
 162 541 l 1
 452 541 l 1
 452 385 l 1
 162 385 l 1
 162 234 l 1
 452 234 l 1
 452 0 l 1
 887 0 l 1
 887 234 l 1
EndSplineSet
EndChar

StartChar: z
Encoding: 122 122 491
Width: 941
VWidth: 0
GlyphClass: 2
Flags: HW
PickledData: "(dp1
S'org.pippin.gimp.org.kernagic'
p2
(dp3
S'lstem'
p4
I0
sS'rstem'
p5
I0
ssS'com.typemytype.robofont.layerData'
p6
(dp7
sS'org.robofab.postScriptHintData'
p8
(dp9
s."
AnchorPoint: "bot" 516 0 basechar 0
AnchorPoint: "top" 465 1082 basechar 0
LayerCount: 2
Fore
SplineSet
56 1082 m 1
 903 1082 l 1
 903 868 l 1
 521 246 l 1
 937 246 l 1
 926 0 l 1
 55 0 l 1
 55 188 l 1
 458 846 l 1
 47 846 l 1
 56 1082 l 1
EndSplineSet
EndChar

StartChar: zero
Encoding: 48 48 495
Width: 1414
VWidth: 0
GlyphClass: 2
Flags: HW
PickledData: "(dp1
S'org.pippin.gimp.org.kernagic'
p2
(dp3
S'lstem'
p4
I0
sS'rstem'
p5
I0
ssS'com.typemytype.robofont.layerData'
p6
(dp7
S'b'
(dp8
S'name'
p9
S'zero'
p10
sS'lib'
p11
(dp12
sS'unicodes'
p13
(tsS'width'
p14
I1248
sS'contours'
p15
(tsS'components'
p16
(tsS'anchors'
p17
(tsssS'org.robofab.postScriptHintData'
p18
(dp19
s."
LayerCount: 2
Fore
SplineSet
706 286 m 0
 816 286 886 471 886 735 c 0
 886 993 816 1168 706 1168 c 0
 601 1168 532 997 527 735 c 1
 527 471 596 286 706 286 c 0
706 -20 m 0
 320 -20 66 272 66 736 c 0
 66 1192 317 1476 706 1476 c 0
 1095 1476 1348 1192 1348 736 c 0
 1348 272 1092 -20 706 -20 c 0
EndSplineSet
EndChar
